/* XPM */
static char * nBullet_red_xpm[] = {
"16 16 54 1",
" 	c None",
".	c #FFF9F9",
"+	c #FFB4B4",
"@	c #FC9191",
"#	c #F6A0A0",
"$	c #FAE3E3",
"%	c #FFB5B5",
"&	c #FF1919",
"*	c #FF0000",
"=	c #EF0000",
"-	c #CD0303",
";	c #CF6A6A",
">	c #FDFAFA",
",	c #FFBCBC",
"'	c #FF0404",
")	c #FB0000",
"!	c #E40000",
"~	c #CF0000",
"{	c #A40000",
"]	c #AF5858",
"^	c #FF2525",
"/	c #DE0000",
"(	c #B90000",
"_	c #9E0000",
":	c #770000",
"<	c #DCBEBE",
"[	c #F50000",
"}	c #C80000",
"|	c #A10000",
"1	c #840000",
"2	c #AE6868",
"3	c #F80000",
"4	c #E80000",
"5	c #860000",
"6	c #9E4A4A",
"7	c #DF0000",
"8	c #E20000",
"9	c #E90000",
"0	c #AA6060",
"a	c #C61919",
"b	c #C30000",
"c	c #BD0000",
"d	c #AD0000",
"e	c #8A0000",
"f	c #D2ACAC",
"g	c #E4A3A3",
"h	c #A80000",
"i	c #8F0000",
"j	c #790000",
"k	c #994040",
"l	c #CF9494",
"m	c #7B0909",
"n	c #9C4747",
"o	c #F7F0F0",
"                ",
"                ",
"                ",
"     .+@#$      ",
"    %&**=-;>    ",
"   ,'**)!~{]    ",
"   ^***)/(_:<   ",
"   ****[}|1:2   ",
"   3)**45:::6   ",
"   789!5::::0   ",
"   abcde::::f   ",
"   ghi:j:::k    ",
"    lm::::no    ",
"                ",
"                ",
"                "};
