<?xml version="1.0" encoding="UTF-8" standalone="no"?>
<svg
   xmlns:dc="http://purl.org/dc/elements/1.1/"
   xmlns:cc="http://creativecommons.org/ns#"
   xmlns:rdf="http://www.w3.org/1999/02/22-rdf-syntax-ns#"
   xmlns:svg="http://www.w3.org/2000/svg"
   xmlns="http://www.w3.org/2000/svg"
   xmlns:sodipodi="http://sodipodi.sourceforge.net/DTD/sodipodi-0.dtd"
   xmlns:inkscape="http://www.inkscape.org/namespaces/inkscape"
   viewBox="0 0 32 32"
   width="32"
   height="32"
   version="1.1"
   id="svg76"
   sodipodi:docname="setting.svg"
   inkscape:version="0.92.4 (unknown)"
   inkscape:export-filename="/home/jeanpierremartine/Documents/projets/navdata_pi/icons/setting.svg.png"
   inkscape:export-xdpi="95.203369"
   inkscape:export-ydpi="95.203369">
  <metadata
     id="metadata82">
    <rdf:RDF>
      <cc:Work
         rdf:about="">
        <dc:format>image/svg+xml</dc:format>
        <dc:type
           rdf:resource="http://purl.org/dc/dcmitype/StillImage" />
        <dc:title></dc:title>
      </cc:Work>
    </rdf:RDF>
  </metadata>
  <defs
     id="defs80" />
  <sodipodi:namedview
     pagecolor="#ffffff"
     bordercolor="#666666"
     borderopacity="1"
     objecttolerance="10"
     gridtolerance="10"
     guidetolerance="10"
     inkscape:pageopacity="0"
     inkscape:pageshadow="2"
     inkscape:window-width="1366"
     inkscape:window-height="716"
     id="namedview78"
     showgrid="false"
     inkscape:zoom="4.72"
     inkscape:cx="-32.627118"
     inkscape:cy="15.745944"
     inkscape:window-x="0"
     inkscape:window-y="0"
     inkscape:window-maximized="1"
     inkscape:current-layer="svg76" />
  <path
     d="M 28.909999,16.910846 C 28.86996,15.004791 29.910112,13.797625 31.652188,13.128169 31.545718,12.086847 30.323726,9.1609598 29.70519,8.4639419 28.033306,9.2399116 26.449514,9.1221846 25.116812,7.8169107 23.762441,6.4910827 23.655976,4.9045719 24.442688,3.2110807 22.973372,2.3145811 21.398532,1.6666158 19.714401,1.2788645 19.144858,2.9219023 18.040162,3.9515452 16.307979,4.0781483 14.255458,4.2281097 12.925111,3.1760426 12.221309,1.295215 10.536709,1.7039898 8.9675196,2.3496191 7.5113925,3.2535931 8.3127105,4.9316679 8.209071,6.500893 6.8914441,7.829058 5.5578006,9.1740406 3.9622319,9.2987751 2.2488934,8.5171993 1.3561852,9.973836 0.71503822,11.532316 0.33063238,13.201515 c 1.71239692,0.622738 2.74501702,1.787394 2.78835572,3.594408 0.044751,1.879426 -0.9765598,3.109018 -2.73606573,3.787348 0.40513413,1.655652 1.06559553,3.196379 1.97667563,4.639001 1.6615198,-0.733925 3.2128062,-0.612461 4.5219532,0.6503 1.334586,1.287055 1.4956975,2.841796 0.7579773,4.522208 1.4693168,0.886221 3.0328505,1.519705 4.7056775,1.902784 0.02496,-0.04952 0.04381,-0.07895 0.05605,-0.110719 0.604403,-1.562685 1.978089,-2.562429 3.54916,-2.58205 1.679892,-0.02103 3.07148,0.907712 3.714982,2.494689 0.07019,0.17332 0.150277,0.169116 0.300082,0.131742 1.513599,-0.379342 2.940988,-0.96424 4.28217,-1.75656 0.07301,-0.04345 0.14274,-0.09297 0.200683,-0.130808 -0.681662,-1.524376 -0.619478,-2.970268 0.470143,-4.229292 1.309619,-1.513164 2.956065,-1.735537 4.787649,-0.96237 0.903542,-1.448695 1.555052,-2.992692 1.951236,-4.64554 -1.68743,-0.640958 -2.709214,-1.787861 -2.747372,-3.59581 z m -12.919532,2.602606 c -1.525846,-0.007 -2.75491,-1.232863 -2.747844,-2.740888 0.0071,-1.511296 1.249321,-2.723602 2.786473,-2.70912 1.535739,0.01448 2.761036,1.276776 2.716753,2.80489 -0.04098,1.421131 -1.205979,2.636708 -2.755382,2.645118 z"
     id="path2"
     inkscape:connector-curvature="0"
     style="fill:#20a3cd;fill-opacity:1;stroke-width:0.47066149" />
  <path
     d="m 12.327304,32.295696 c -0.0292,0 -0.05888,-0.0032 -0.08809,-0.0098 C 10.532467,31.894863 8.9025098,31.235687 7.3945646,30.32704 7.1934103,30.205576 7.1133265,29.955641 7.2075431,29.741209 7.9071054,28.148626 7.6932326,26.839614 6.5532051,25.74083 5.4405,24.666806 4.130411,24.485077 2.5518024,25.182095 2.3379286,25.276002 2.0858981,25.201247 1.9605898,25.003168 1.0221863,23.516633 0.33769885,21.909568 -0.07402989,20.225886 -0.12961874,19.998842 -0.00666449,19.765723 0.21286159,19.680699 1.8903981,19.033201 2.6870033,17.94049 2.6483742,16.339497 2.6116305,14.80204 1.8004206,13.765857 0.16857934,13.17255 -0.05424494,13.091724 -0.18096627,12.859079 -0.1282046,12.630165 0.26373809,10.928265 0.92844062,9.3057826 1.8465869,7.8075678 1.9709531,7.6052827 2.2286373,7.5258639 2.4458081,7.6258385 4.0781205,8.370975 5.4216572,8.1780337 6.5555602,7.0344013 7.6743886,5.906652 7.8472773,4.5822247 7.085532,2.9863712 6.9828347,2.7724073 7.0586827,2.515931 7.2612467,2.3907297 8.7348034,1.4764778 10.366174,0.79814625 12.109192,0.37442279 c 0.236955,-0.0560605 0.471085,0.0691408 0.553997,0.2915143 0.67271,1.79720361 1.851367,2.60634231 3.610401,2.47973931 1.452358,-0.1065149 2.46048,-0.9422822 2.995163,-2.4848777 0.0782,-0.22657775 0.316571,-0.35785273 0.552114,-0.30272645 1.71428,0.39475905 3.352245,1.06374685 4.8682,1.98921085 0.203038,0.1237995 0.280766,0.3788751 0.180897,0.5933056 -0.754679,1.6248178 -0.565775,2.9585889 0.57755,4.0779286 1.121656,1.09785 2.485922,1.2856524 4.057464,0.5559327 0.187964,-0.087825 0.414556,-0.041574 0.553527,0.1144566 0.675067,0.760553 1.946998,3.7994954 2.061944,4.9263104 0.0212,0.208824 -0.100816,0.406437 -0.29867,0.482586 -1.676594,0.644695 -2.475084,1.736005 -2.441166,3.336997 0,4.67e-4 0,4.67e-4 0,4.67e-4 0.03156,1.519705 0.831466,2.556822 2.444464,3.169283 0.220467,0.08363 0.344363,0.316274 0.289717,0.544253 -0.402307,1.682747 -1.078315,3.291682 -2.00871,4.783356 -0.122952,0.196211 -0.372629,0.275163 -0.585089,0.184065 -1.735479,-0.732523 -3.124713,-0.459229 -4.245898,0.836702 -0.917204,1.060476 -1.047222,2.282593 -0.397125,3.73596 0.09328,0.208358 0.02073,0.454089 -0.171476,0.579291 l -0.05182,0.03457 c -0.05087,0.03458 -0.107877,0.07241 -0.166294,0.106983 -1.372271,0.810073 -2.855722,1.418328 -4.407949,1.807948 -0.510657,0.128005 -0.747614,-0.150896 -0.853136,-0.409708 -0.560121,-1.382357 -1.762803,-2.203174 -3.223169,-2.203174 -0.01602,0 -0.03251,0 -0.04899,4.66e-4 -1.384049,0.01729 -2.578251,0.891829 -3.11576,2.282594 -0.01224,0.03364 -0.03062,0.071 -0.05512,0.116792 -0.08291,0.165845 -0.270404,0.291048 -0.456954,0.291048 z M 8.2265015,29.729063 c 1.2116337,0.69001 2.5024095,1.211372 3.8464165,1.554742 0.728769,-1.580904 2.216459,-2.592795 3.871854,-2.61335 1.811326,-0.0098 3.326337,0.944151 4.075365,2.596065 1.368032,-0.360655 2.649856,-0.88809 3.843587,-1.576232 -0.60393,-1.621548 -0.366032,-3.117428 0.697207,-4.347019 1.298784,-1.501018 3.00176,-1.926142 4.946404,-1.236132 0.705214,-1.196424 1.240368,-2.468061 1.594153,-3.791086 -1.729828,-0.777372 -2.624889,-2.07517 -2.662576,-3.862097 v 0 C 28.399342,14.58901 29.325965,13.186098 31.123629,12.375091 30.889029,11.360864 30.077348,9.4066914 29.546434,8.5737269 27.749242,9.2838256 26.10892,8.9782962 24.785639,7.6828334 23.460475,6.3850342 23.140607,4.750406 23.84865,2.9363843 22.637488,2.2393664 21.348127,1.7119316 20.006473,1.3648234 19.306912,3.0176715 18.047699,3.9529469 16.34331,4.077214 14.310104,4.2304456 12.793208,3.2961054 11.940542,1.3825767 10.576749,1.7497722 9.2911554,2.2837472 8.1077885,2.9742249 8.8243099,4.7592821 8.5242275,6.3826983 7.2278001,7.6898408 5.916297,9.0123997 4.270323,9.337083 2.4458081,8.6395979 1.7528401,9.8388236 1.2294637,11.117936 0.88510042,12.451707 2.6153986,13.207122 3.5481488,14.536688 3.591018,16.317541 3.635296,18.17314 2.7209219,19.57325 0.94068816,20.388929 c 0.36085224,1.322091 0.90212954,2.59186 1.61346934,3.78361 1.765159,-0.651702 3.3677928,-0.344303 4.6566827,0.898837 1.3190405,1.272104 1.6662314,2.875432 1.0156613,4.657687 z M 15.990467,19.513452 c -9.41e-4,0 -0.0014,0 -0.0023,0 -1.781648,-0.0088 -3.225055,-1.448695 -3.216576,-3.210393 0.0038,-0.853988 0.343422,-1.65425 0.954891,-2.252696 0.615709,-0.602181 1.411844,-0.935274 2.306908,-0.92126 0.869153,0.0084 1.680363,0.354583 2.283822,0.975919 0.604875,0.622739 0.924271,1.44309 0.899775,2.309223 -0.04993,1.728062 -1.466017,3.088929 -3.224111,3.099207 -4.72e-4,0 -0.0014,0 -0.0023,0 z m 0.01084,-5.450008 c -0.610527,0 -1.182895,0.230783 -1.613469,0.652171 -0.431986,0.422788 -0.671769,0.988064 -0.674594,1.592115 -0.0056,1.245475 1.015189,2.264373 2.276287,2.271381 1.246493,-0.0084 2.249904,-0.970312 2.285236,-2.191028 0.0179,-0.613395 -0.20822,-1.194087 -0.636437,-1.634628 -0.426332,-0.43914 -0.999644,-0.684405 -1.614411,-0.690011 -0.0071,0 -0.01461,0 -0.02261,0 z"
     id="path4"
     inkscape:connector-curvature="0"
     style="fill:#1f212b;stroke-width:0.47066149" />
  <path
     d="M 25.829094,13.838735 C 24.446457,8.4527299 18.922505,5.1979555 13.491357,6.5690995 8.0602081,7.9402441 4.7781536,13.418282 6.1607903,18.804288 c 1.3826367,5.386005 6.9065897,8.640779 12.3377377,7.269635 5.431149,-1.371145 8.713206,-6.849182 7.330566,-12.235188 z m -7.835098,10.27027 C 13.656709,25.204052 9.2454601,22.604716 8.1417061,18.303481 7.0374815,14.002245 9.6586032,9.6276632 13.99589,8.5330831 c 4.337288,-1.0950466 8.748534,1.5042879 9.85229,5.8055249 1.103752,4.301236 -1.516899,8.675817 -5.854184,9.770397 z"
     id="path6"
     inkscape:connector-curvature="0"
     style="fill:#7777ab;stroke-width:0.47066149" />
  <path
     d="m 16.03098,24.690632 c -3.678237,0 -7.0384926,-2.463389 -7.9863177,-6.156837 -1.1211835,-4.366639 1.5494016,-8.8239105 5.9526407,-9.9353081 4.398999,-1.1123319 8.89787,1.5360551 10.018582,5.9031621 1.121184,4.366641 -1.549401,8.823911 -5.95264,9.935309 v 0 c -0.679306,0.171919 -1.360967,0.253674 -2.032265,0.253674 z M 16.02918,8.8087135 c -0.633139,0 -1.276172,0.077551 -1.916848,0.2391911 -4.1530948,1.0483294 -6.6719888,5.2528624 -5.6148725,9.3723694 1.0575879,4.119039 5.2978315,6.615597 9.4509235,5.568201 v 0 c 4.153092,-1.04833 6.671989,-5.252862 5.614872,-9.372369 -0.894588,-3.483221 -4.064996,-5.8073925 -7.534071,-5.8073925 z m 1.976204,15.4040035 h 0.0047 z M 6.3949203,13.179091 c -0.026386,0 -0.05276,-0.0047 -0.079146,-0.01355 -0.121542,-0.04345 -0.184667,-0.176122 -0.1408558,-0.296653 1.1758303,-3.2463653 3.8878725,-5.6920007 7.2542515,-6.541316 0.127664,-0.031305 0.252502,0.043449 0.284065,0.1672461 0.03156,0.1242672 -0.04381,0.2499361 -0.16865,0.281704 -3.215632,0.8114748 -5.8061328,3.1477931 -6.9296723,6.2493359 -0.034394,0.09436 -0.1243663,0.153232 -0.2199972,0.153232 z"
     id="path8"
     inkscape:connector-curvature="0"
     style="fill:#1f212b;stroke-width:0.47066149" />
  <path
     d="m 16.245325,26.571459 c -1.050051,0 -2.119416,-0.152765 -3.179358,-0.465302 C 9.4508547,25.041476 6.7675489,22.353379 5.8870897,18.915474 5.85553,18.791207 5.9309037,18.665538 6.055738,18.63377 c 0.1276645,-0.03224 0.2525029,0.04391 0.2840654,0.167247 0.8394744,3.278133 3.4040663,5.842431 6.8594816,6.860395 3.481324,1.026373 7.070526,0.256943 9.60167,-2.056016 0.09422,-0.08689 0.242609,-0.08081 0.330232,0.01355 0.08761,0.0939 0.0815,0.240592 -0.01367,0.327486 -1.881046,1.71872 -4.316559,2.625029 -6.872199,2.625029 z"
     id="path10"
     inkscape:connector-curvature="0"
     style="fill:#1f212b;stroke-width:0.47066149" />
  <path
     d="m 24.961827,21.21582 c -0.210577,0.382612 -0.445178,0.752145 -0.702862,1.105325"
     id="path12"
     inkscape:connector-curvature="0"
     style="fill:#a3a3cd;stroke-width:0.47066149" />
  <path
     d="m 24.259436,22.552862 c -0.04805,0 -0.09562,-0.01402 -0.137086,-0.04391 -0.104583,-0.07522 -0.127665,-0.220038 -0.05229,-0.323748 0.249675,-0.341503 0.480979,-0.705429 0.687314,-1.080098 0.06219,-0.112589 0.205864,-0.152299 0.317042,-0.0925 0.113531,0.06167 0.154986,0.202283 0.09328,0.314404 -0.215758,0.392424 -0.457896,0.772233 -0.718407,1.130553 -0.04663,0.06213 -0.117771,0.0953 -0.189848,0.0953 z"
     id="path14"
     inkscape:connector-curvature="0"
     style="fill:#1f212b;stroke-width:0.47066149" />
  <path
     d="m 25.960055,18.606674 c -0.139912,0.607321 -0.336353,1.201562 -0.58603,1.773379"
     id="path16"
     inkscape:connector-curvature="0"
     style="fill:#a3a3cd;stroke-width:0.47066149" />
  <path
     d="m 25.374025,20.611769 c -0.03109,0 -0.06265,-0.0061 -0.0928,-0.01915 -0.118242,-0.05046 -0.172889,-0.187336 -0.12154,-0.304595 0.243552,-0.557334 0.436225,-1.140363 0.572841,-1.732734 0.02873,-0.125201 0.153102,-0.203686 0.279823,-0.174254 0.126253,0.0285 0.204923,0.152764 0.175717,0.277498 -0.14274,0.619935 -0.344364,1.230527 -0.599223,1.814022 -0.03863,0.08737 -0.124836,0.139217 -0.214815,0.139217 z m 0.522435,-6.515623 c -0.104583,0 -0.199741,-0.06961 -0.226121,-0.174722 C 24.84264,10.697015 22.454235,8.1159001 19.281002,7.0185173 19.15899,6.9760053 19.094452,6.8442623 19.13685,6.7232652 c 0.04241,-0.1214636 0.177129,-0.1849984 0.297726,-0.1429536 3.322097,1.1492388 5.821678,3.8508844 6.688005,7.2271234 0.03156,0.124267 -0.04381,0.249936 -0.168648,0.281704 -0.01931,0.0047 -0.03864,0.007 -0.05747,0.007 z"
     id="path18"
     inkscape:connector-curvature="0"
     style="fill:#1f212b;stroke-width:0.47066149" />
  <path
     d="M 19.634316,9.1763764 22.346828,8.5251411"
     id="path20"
     inkscape:connector-curvature="0"
     style="fill:#a3a3cd;stroke-width:0.47066149" />
  <path
     d="m 19.633845,9.4080929 c -0.105995,0 -0.201155,-0.07101 -0.227064,-0.1775248 -0.03014,-0.1242672 0.04712,-0.2494689 0.172418,-0.2798349 L 22.292182,8.299498 c 0.126251,-0.028498 0.251088,0.046717 0.282181,0.1709842 0.03014,0.1242674 -0.04712,0.249469 -0.172418,0.279835 l -2.712984,0.6512352 c -0.01883,0.00421 -0.03722,0.00654 -0.05513,0.00654 z"
     id="path22"
     inkscape:connector-curvature="0"
     style="fill:#1f212b;stroke-width:0.47066149" />
  <path
     d="M 21.999168,10.722243 24.03991,10.387749"
     id="path24"
     inkscape:connector-curvature="0"
     style="fill:#a3a3cd;stroke-width:0.47066149" />
  <path
     d="m 21.998695,10.953959 c -0.112117,0 -0.211046,-0.08036 -0.22989,-0.193875 -0.0212,-0.126603 0.06501,-0.245265 0.192203,-0.266287 l 2.040744,-0.334495 c 0.123426,-0.02383 0.24732,0.06401 0.26852,0.190606 0.0212,0.126603 -0.06501,0.245264 -0.192204,0.266287 l -2.040742,0.334494 c -0.01319,0.0023 -0.02591,0.0032 -0.03864,0.0032 z"
     id="path26"
     inkscape:connector-curvature="0"
     style="fill:#1f212b;stroke-width:0.47066149" />
  <path
     d="m 23.321976,12.798347 2.069951,-0.220972"
     id="path28"
     inkscape:connector-curvature="0"
     style="fill:#a3a3cd;stroke-width:0.47066149" />
  <path
     d="m 23.321504,13.030064 c -0.117771,0 -0.219054,-0.08782 -0.231774,-0.206957 -0.01367,-0.126603 0.07915,-0.241526 0.207278,-0.255075 l 2.069951,-0.221439 c 0.119656,-0.01496 0.243551,0.07756 0.257213,0.205556 0.01367,0.126603 -0.07915,0.241526 -0.207278,0.255074 l -2.069951,0.221439 c -0.0085,9.35e-4 -0.01649,0.0014 -0.02544,0.0014 z"
     id="path30"
     inkscape:connector-curvature="0"
     style="fill:#1f212b;stroke-width:0.47066149" />
  <path
     d="m 12.118613,7.1278347 0.20398,1.8794262"
     id="path32"
     inkscape:connector-curvature="0"
     style="fill:#a3a3cd;stroke-width:0.47066149" />
  <path
     d="m 12.322593,9.23851 c -0.117772,0 -0.219055,-0.087829 -0.231774,-0.2069563 L 11.886368,7.1530624 c -0.01366,-0.1266031 0.07915,-0.2415275 0.207277,-0.2550746 0.118714,-0.01308 0.243552,0.078014 0.257214,0.2055543 l 0.20445,1.8784915 c 0.01367,0.1266031 -0.07915,0.2415271 -0.207278,0.255075 -0.0085,9.344e-4 -0.01695,0.00141 -0.02544,0.00141 z"
     id="path34"
     inkscape:connector-curvature="0"
     style="fill:#1f212b;stroke-width:0.47066149" />
  <path
     d="m 10.105664,8.1808368 0.62466,2.0770382"
     id="path36"
     inkscape:connector-curvature="0"
     style="fill:#a3a3cd;stroke-width:0.47066149" />
  <path
     d="m 10.730324,10.489592 c -0.100815,0 -0.193615,-0.06493 -0.224237,-0.165379 L 9.8814263,8.2476422 C 9.8446825,8.1247763 9.9148751,7.9958374 10.03877,7.9593981 c 0.123895,-0.035038 0.253914,0.032702 0.290659,0.1560349 l 0.62466,2.076572 c 0.03674,0.122864 -0.03345,0.251804 -0.157342,0.288244 -0.02168,0.0061 -0.04428,0.0093 -0.06643,0.0093 z"
     id="path38"
     inkscape:connector-curvature="0"
     style="fill:#1f212b;stroke-width:0.47066149" />
  <path
     d="m 8.0851763,10.016348 1.230947,1.807949"
     id="path40"
     inkscape:connector-curvature="0"
     style="fill:#a3a3cd;stroke-width:0.47066149" />
  <path
     d="m 9.3161233,12.056014 c -0.074899,0 -0.1483921,-0.0355 -0.1936163,-0.102313 L 7.8920305,10.145754 c -0.072076,-0.106047 -0.044278,-0.2499356 0.06313,-0.3214127 0.106933,-0.071942 0.2520318,-0.044375 0.3241073,0.0626 L 9.509744,11.69489 c 0.072077,0.106048 0.044279,0.249936 -0.063125,0.321414 -0.040047,0.0271 -0.085271,0.03971 -0.1304912,0.03971 z"
     id="path42"
     inkscape:connector-curvature="0"
     style="fill:#1f212b;stroke-width:0.47066149" />
  <path
     d="M 6.6153883,20.149737 8.7145471,20.041354"
     id="path44"
     inkscape:connector-curvature="0"
     style="fill:#a3a3cd;stroke-width:0.47066149" />
  <path
     d="m 6.6153883,20.381453 c -0.1238952,0 -0.2265925,-0.09577 -0.2331879,-0.220036 -0.00711,-0.127537 0.091864,-0.236855 0.2214104,-0.243396 l 2.0986877,-0.107916 c 0.1432106,-0.007 0.2388402,0.09156 0.2454355,0.21957 0.00711,0.127537 -0.091864,0.236855 -0.2214103,0.243396 L 6.627637,20.380987 c -0.0042,4.66e-4 -0.00852,4.66e-4 -0.012244,4.66e-4 z"
     id="path46"
     inkscape:connector-curvature="0"
     style="fill:#1f212b;stroke-width:0.47066149" />
  <path
     d="M 7.879783,22.408972 9.9167582,21.80679"
     id="path48"
     inkscape:connector-curvature="0"
     style="fill:#a3a3cd;stroke-width:0.47066149" />
  <path
     d="m 7.879783,22.641157 c -0.1008108,0 -0.1936168,-0.06493 -0.2242373,-0.165379 -0.036744,-0.122866 0.033446,-0.251805 0.157343,-0.288244 l 2.0369749,-0.602649 c 0.1229528,-0.0355 0.2539164,0.03317 0.2906604,0.156034 0.03674,0.122866 -0.03345,0.251805 -0.1573424,0.288244 l -2.0369763,0.60265 c -0.021676,0.0061 -0.044278,0.0093 -0.066417,0.0093 z"
     id="path50"
     inkscape:connector-curvature="0"
     style="fill:#1f212b;stroke-width:0.47066149" />
  <path
     d="m 10.070803,24.298676 1.719464,-0.875944"
     id="path52"
     inkscape:connector-curvature="0"
     style="fill:#a3a3cd;stroke-width:0.47066149" />
  <path
     d="m 10.070332,24.53086 c -0.08479,0 -0.1667646,-0.04625 -0.2077489,-0.126136 -0.05888,-0.113522 -0.013669,-0.253674 0.1012851,-0.312069 L 11.683332,23.21671 c 0.11306,-0.05747 0.255329,-0.01355 0.314685,0.100434 0.05888,0.113522 0.01366,0.253673 -0.101285,0.31207 l -1.719463,0.875944 c -0.03392,0.01729 -0.07019,0.02569 -0.106934,0.02569 z"
     id="path54"
     inkscape:connector-curvature="0"
     style="fill:#1f212b;stroke-width:0.47066149" />
  <path
     d="m 12.875648,25.599278 1.270518,-1.204365"
     id="path56"
     inkscape:connector-curvature="0"
     style="fill:#a3a3cd;stroke-width:0.47066149" />
  <path
     d="m 12.875648,25.831461 c -0.0617,0 -0.122954,-0.02429 -0.168648,-0.07148 -0.08903,-0.0925 -0.08622,-0.239191 0.0075,-0.327486 l 1.270519,-1.204828 c 0.09281,-0.08829 0.241196,-0.08503 0.330231,0.0075 0.08904,0.0925 0.08621,0.239191 -0.0075,0.327486 l -1.270518,1.204832 c -0.04523,0.04251 -0.103636,0.06401 -0.161583,0.06401 z"
     id="path58"
     inkscape:connector-curvature="0"
     style="fill:#1f212b;stroke-width:0.47066149" />
  <path
     d="M 15.902375,26.32853 16.888828,24.5061"
     id="path60"
     inkscape:connector-curvature="0"
     style="fill:#a3a3cd;stroke-width:0.47066149" />
  <path
     d="m 15.901903,26.560247 c -0.03768,0 -0.07538,-0.0088 -0.110234,-0.02757 -0.113532,-0.06074 -0.1564,-0.201352 -0.09562,-0.313939 l 0.986925,-1.822431 c 0.0617,-0.113523 0.204451,-0.1551 0.316569,-0.09484 0.113533,0.06074 0.156401,0.201351 0.09562,0.313939 l -0.986926,1.82243 c -0.0424,0.07848 -0.122953,0.122399 -0.206335,0.122399 z"
     id="path62"
     inkscape:connector-curvature="0"
     style="fill:#1f212b;stroke-width:0.47066149" />
  <g
     id="g68"
     transform="matrix(0.47108579,0,0,0.4671702,-7.5595828,-7.0372324)"
     style="stroke-width:1.00327754">
    <path
       d="m 56.737,70.305 0.329,-4.101"
       id="path64"
       inkscape:connector-curvature="0"
       style="fill:#a3a3cd;stroke-width:1.00327754" />
    <path
       d="m 56.738,70.801 c -0.014,0 -0.027,-0.001 -0.041,-0.002 -0.272,-0.021 -0.477,-0.261 -0.454,-0.534 l 0.329,-4.102 c 0.021,-0.272 0.267,-0.473 0.534,-0.454 0.272,0.021 0.477,0.261 0.454,0.534 l -0.329,4.102 c -0.02,0.259 -0.237,0.456 -0.493,0.456 z"
       id="path66"
       inkscape:connector-curvature="0"
       style="fill:#1f212b;stroke-width:1.00327754" />
  </g>
  <g
     id="g74"
     transform="matrix(0.47108579,0,0,0.4671702,-7.5595828,-7.0372324)"
     style="stroke-width:1.00327754">
    <path
       d="m 46.887,28.598 c 1.321,-0.181 2.659,-0.239 3.991,-0.174"
       id="path70"
       inkscape:connector-curvature="0"
       style="fill:#a3a3cd;stroke-width:1.00327754" />
    <path
       d="m 46.886,29.094 c -0.244,0 -0.456,-0.181 -0.49,-0.429 -0.037,-0.271 0.152,-0.521 0.424,-0.559 1.346,-0.185 2.718,-0.245 4.082,-0.178 0.273,0.013 0.484,0.245 0.471,0.52 -0.013,0.272 -0.208,0.506 -0.52,0.471 -1.3,-0.063 -2.613,-0.005 -3.898,0.17 -0.024,0.003 -0.046,0.005 -0.069,0.005 z"
       id="path72"
       inkscape:connector-curvature="0"
       style="fill:#1f212b;stroke-width:1.00327754" />
  </g>
</svg>
