<?xml version="1.0" encoding="UTF-8" standalone="no"?>
<!-- Creator: CorelDRAW X6 -->

<svg
   xmlns:dc="http://purl.org/dc/elements/1.1/"
   xmlns:cc="http://creativecommons.org/ns#"
   xmlns:rdf="http://www.w3.org/1999/02/22-rdf-syntax-ns#"
   xmlns:svg="http://www.w3.org/2000/svg"
   xmlns="http://www.w3.org/2000/svg"
   xmlns:sodipodi="http://sodipodi.sourceforge.net/DTD/sodipodi-0.dtd"
   xmlns:inkscape="http://www.inkscape.org/namespaces/inkscape"
   xml:space="preserve"
   width="32"
   height="32"
   version="1.1"
   viewBox="0 0 846.66667 846.66667"
   id="svg13"
   sodipodi:docname="target.svg"
   inkscape:version="0.92.4 (unknown)"
   style="clip-rule:evenodd;fill-rule:evenodd;image-rendering:optimizeQuality;shape-rendering:geometricPrecision;text-rendering:geometricPrecision"><metadata
   id="metadata19"><rdf:RDF><cc:Work
       rdf:about=""><dc:format>image/svg+xml</dc:format><dc:type
         rdf:resource="http://purl.org/dc/dcmitype/StillImage" /><dc:title></dc:title></cc:Work></rdf:RDF></metadata><defs
   id="defs17" /><sodipodi:namedview
   pagecolor="#ffffff"
   bordercolor="#666666"
   borderopacity="1"
   objecttolerance="10"
   gridtolerance="10"
   guidetolerance="10"
   inkscape:pageopacity="0"
   inkscape:pageshadow="2"
   inkscape:window-width="1366"
   inkscape:window-height="716"
   id="namedview15"
   showgrid="false"
   inkscape:zoom="3.4689815"
   inkscape:cx="23.926332"
   inkscape:cy="34.015748"
   inkscape:window-x="0"
   inkscape:window-y="0"
   inkscape:window-maximized="1"
   inkscape:current-layer="layer1"
   units="px" />
 <g
   id="Layer_x0020_1"
   transform="matrix(0.47457627,0,0,0.47881356,0,-15.197753)">
  <metadata
   id="CorelCorpID_0Corel-Layer" />
  <rect
   width="1800"
   height="1800"
   id="rect3"
   mask="none"
   x="0"
   y="0"
   style="fill:none" />
  
 </g>
<g
   transform="matrix(105.08552,0,0,83.282928,-1327.4642,-24720.53)"
   id="layer1"
   inkscape:label="Calque 1"><rect
     ry="0.59974509"
     rx="0.19664605"
     y="298.06284"
     x="14.713485"
     height="7.7145147"
     width="0.7445997"
     id="rect815"
     style="opacity:1;fill:#ffff00;fill-opacity:0.93846154;stroke:#1a1a1a;stroke-width:0.29204971" /><path
     inkscape:connector-curvature="0"
     id="path821"
     d="m 14.713485,298.06284 4.630208,2.26786"
     style="opacity:1;fill:#4d4d4d;fill-opacity:0.93846154;stroke:#000000;stroke-width:0.26458332px;stroke-linecap:butt;stroke-linejoin:miter;stroke-opacity:1" /><path
     sodipodi:nodetypes="cc"
     inkscape:connector-curvature="0"
     id="path823"
     d="m 15.374943,302.31507 3.96875,-1.98437"
     style="opacity:1;fill:#4d4d4d;fill-opacity:0.93846154;stroke:#000000;stroke-width:0.26458332px;stroke-linecap:butt;stroke-linejoin:miter;stroke-opacity:1" /><path
     inkscape:connector-curvature="0"
     id="path9916"
     d="m 15.63385,300.35871 c 0,-0.88333 0.01952,-1.60605 0.04338,-1.60605 0.02386,0 0.75998,0.35537 1.635821,0.78972 l 1.592439,0.78973 -1.63582,0.81632 -1.635821,0.81633 z"
     style="opacity:1;fill:#4d4d4d;fill-opacity:0.93846154;stroke:#1a1a1a;stroke-width:0.09449405" /><path
     inkscape:connector-curvature="0"
     id="path9918"
     d="m 15.728344,300.31122 v -1.46525 l 1.441034,0.71997 c 0.792569,0.39598 1.45621,0.73388 1.474757,0.75089 0.03335,0.0306 -2.773924,1.45964 -2.867363,1.45964 -0.02664,0 -0.04843,-0.65936 -0.04843,-1.46525 z"
     style="opacity:1;fill:#ff0000;fill-opacity:0.93846154;stroke:#1a1a1a;stroke-width:0.09449405" /><path
     inkscape:connector-curvature="0"
     id="path9968"
     d="m 15.851186,300.36557 c 0,-0.73119 0.03189,-1.32721 0.07087,-1.32449 0.03898,0.003 0.637131,0.29146 1.329228,0.64167 l 1.258359,0.63674 -1.329229,0.68776 -1.329229,0.68775 z"
     style="opacity:0.03999999;fill:#000000;fill-opacity:0.93846154;stroke:#1a1a1a;stroke-width:0.09449405" /><path
     inkscape:connector-curvature="0"
     id="path9970"
     d="m 15.851186,300.3662 c 0,-0.73153 0.03189,-1.32784 0.07087,-1.32512 0.03898,0.003 0.635364,0.29058 1.325301,0.6397 l 1.254431,0.63477 -1.325302,0.69035 -1.325301,0.69036 z"
     style="opacity:0.03999999;fill:#008000;fill-opacity:0.93846154;stroke:#1a1a1a;stroke-width:0.09449405" /><path
     inkscape:connector-curvature="0"
     id="path9972"
     d="m 15.851186,300.36557 c 0,-0.73119 0.03189,-1.32721 0.07087,-1.32449 0.03898,0.003 0.637131,0.29146 1.329228,0.64167 l 1.258359,0.63674 -1.329229,0.68776 -1.329229,0.68775 z"
     style="opacity:0.03999999;fill:#008000;fill-opacity:0.93846154;stroke:#1a1a1a;stroke-width:0.09449405" /><path
     inkscape:connector-curvature="0"
     id="path9974"
     d="m 15.832598,300.36342 c -0.01821,-0.84348 0.0058,-1.32573 0.06583,-1.3225 0.05197,0.003 0.658988,0.29074 1.348925,0.63986 l 1.254431,0.63477 -1.320267,0.68773 -1.320266,0.68773 z"
     style="opacity:0.03999999;fill:#008000;fill-opacity:0.93846154;stroke:#1a1a1a;stroke-width:0.09449405" /><path
     inkscape:connector-curvature="0"
     id="path9976"
     d="m 15.832676,300.31165 c -0.01581,-0.7017 0.0038,-1.27576 0.04348,-1.27567 0.20226,4.5e-4 2.53916,1.25328 2.467635,1.32293 -0.131189,0.12774 -2.261898,1.22857 -2.377951,1.22857 -0.06967,0 -0.113995,-0.42469 -0.133167,-1.27583 z"
     style="opacity:0.03999999;fill:#008000;fill-opacity:0.93846154;stroke:#1a1a1a;stroke-width:0.09449405" /><path
     inkscape:connector-curvature="0"
     id="path9978"
     d="m 15.832597,300.33988 c -0.01576,-0.74304 -0.02866,-1.35716 -0.02866,-1.36472 0,-0.008 0.60558,0.29021 1.345733,0.66169 l 1.345733,0.67541 -1.317076,0.68931 -1.317075,0.6893 z"
     style="opacity:0.03999999;fill:#09ef00;fill-opacity:0.93846154;stroke:#1a1a1a;stroke-width:0.09449405" /><path
     inkscape:connector-curvature="0"
     id="path9994"
     d="m 15.851186,300.31181 c 0,-0.70162 0.02187,-1.27567 0.0486,-1.27567 0.08114,0 2.502743,1.22695 2.502743,1.26805 0,0.0566 -2.350218,1.28329 -2.458657,1.28329 -0.056,0 -0.09268,-0.50483 -0.09268,-1.27567 z"
     style="opacity:1;fill:#09800e;fill-opacity:0.94871796;stroke:#008000;stroke-width:0.09449405" /><path
     inkscape:connector-curvature="0"
     id="path10000"
     d="m 9.6478421,302.77592 v -1.27333 l 0.2126118,0.082 c 0.1169363,0.0451 0.6977051,0.33806 1.2905981,0.65097 l 1.077987,0.56893 -1.242002,0.62236 c -0.683101,0.34231 -1.2638704,0.62237 -1.2905983,0.62237 -0.026728,0 -0.048597,-0.573 -0.048597,-1.27333 z"
     style="opacity:0.03999999;fill:#0ef510;fill-opacity:0.93846154;stroke:#008000;stroke-width:0.09449405" /><path
     style="opacity:0.36300001;fill:#00ff00;fill-opacity:1;stroke:#008000;stroke-width:0.28826904"
     d="m 12.834471,11.128736 c -0.06399,-3.0195127 -1.23e-4,-3.7785156 0.328557,-3.9046423 0.352005,-0.135077 6.045774,1.8849834 7.599608,2.6962221 0.297246,0.1551892 0.929611,0.4394482 1.405255,0.6316862 l 0.864807,0.349525 -1.297211,0.621842 c -1.245966,0.597278 -3.255726,1.455506 -4.46817,1.908045 -0.906719,0.338428 -2.258978,0.912134 -2.806712,1.190768 -0.275308,0.14005 -0.735942,0.254636 -1.023631,0.254636 -0.474357,0 -0.53047,-0.349067 -0.602503,-3.748082 z"
     id="path1017"
     inkscape:connector-curvature="0"
     transform="matrix(0.25177906,0,0,0.31769216,12.632228,296.8259)" /><path
     style="opacity:0.36300001;fill:#00ff00;fill-opacity:1;stroke:#008000;stroke-width:0.28826904"
     d="m 13.087415,10.985186 c 0,-1.9818497 0.107001,-3.6033631 0.237778,-3.6033631 0.469742,0 4.280174,1.3805795 6.800501,2.4639286 l 2.570109,1.1047475 -1.272898,0.55281 c -4.231268,1.83761 -7.39245,3.082437 -7.831019,3.083741 -0.453623,0.0013 -0.504471,-0.361698 -0.504471,-3.601864 z"
     id="path1019"
     inkscape:connector-curvature="0"
     transform="matrix(0.25177906,0,0,0.31769216,12.632228,296.8259)" /></g></svg>