/* XPM */
static char *Bullet_yellow_xpm[] = {
/* columns rows colors chars-per-pixel */
"10 10 66 1",
"g c #E8E766",
"2 c #A4A041",
"8 c #DED959",
"V c #E4E2BD",
"1 c #CFCA53",
"f c #FFFB6A",
". c #FFFFFB",
"n c #C3BF4E",
"u c #C8C351",
"9 c #B9B44B",
"- c #FDFCFB",
"x c #E4DE5C",
"7 c #FBF866",
", c #FBF867",
"o c #FCFABC",
"d c #FBF566",
"0 c #9E9A40",
"D c #CFCDAB",
"F c #7B7837",
"v c #AAA87D",
"i c #A19E40",
"S c #999663",
"H c #F7F6F2",
"A c #797530",
"B c #D2D1BB",
"c c #868435",
"G c #9C9A69",
"O c #F6F4C3",
"  c None",
"k c #DFD959",
"= c #CFCC92",
"M c #ADA844",
"C c #A8A444",
"b c #C6C25E",
"l c #E2DD5A",
"N c #8A8637",
"& c #EFE960",
"j c #9E9C6C",
"m c #BDB84C",
"e c #FFFF69",
"w c #DCDBCA",
"$ c #FFFF6C",
"r c #FFFF6D",
"> c #FFFF6F",
"5 c #FFFF70",
": c #FFFF71",
"t c #FFFF72",
"+ c #FAF9EC",
"6 c #FFFF73",
"h c #868335",
"y c #F5F468",
"% c #FFF967",
"# c #FFFF7B",
"q c #777430",
"4 c #FFFF82",
"* c #CDC854",
"p c #848035",
"s c #F8F263",
"a c #AEAC84",
"z c #E9E35D",
"< c #E4DF5C",
"Z c #8F8C3A",
"3 c #AFAD7A",
"X c #FFFFD3",
"@ c #FFFFD5",
"; c #FFFFD8",
/* pixels */
"  .XoO+   ",
" @#$%&*=- ",
";::>,<123 ",
"45657890qw",
"er:tyuipqa",
"sdfrghqqqj",
"klzxcqqqqv",
"bnmMNqqqqB",
"VCZqAqqqS ",
" DFqqqqGH "
};
