/* XPM */
static char * nBullet_green_xpm[] = {
"16 16 63 1",
" 	c None",
".	c #FBFFFB",
"+	c #D3FFD3",
"@	c #BCFCBC",
"#	c #C3F6C3",
"$	c #ECFAEC",
"%	c #D5FFD5",
"&	c #7BFF7B",
"*	c #6CFF6C",
"=	c #67FF67",
"-	c #60EF60",
";	c #54CD54",
">	c #92CF92",
",	c #FBFDFB",
"'	c #D8FFD8",
")	c #71FF71",
"!	c #6FFF6F",
"~	c #67FB67",
"{	c #5CE45C",
"]	c #53CF53",
"^	c #41A441",
"/	c #7AAF7A",
"(	c #82FF82",
"_	c #70FF70",
":	c #73FF73",
"<	c #66FB66",
"[	c #59DE59",
"}	c #4BB94B",
"|	c #409E40",
"1	c #307730",
"2	c #CADCCA",
"3	c #69FF69",
"4	c #6DFF6D",
"5	c #72FF72",
"6	c #68F568",
"7	c #51C851",
"8	c #40A140",
"9	c #358435",
"0	c #84AE84",
"a	c #63F863",
"b	c #6AFF6A",
"c	c #66E866",
"d	c #358635",
"e	c #6C9E6C",
"f	c #59DF59",
"g	c #5AE25A",
"h	c #5DE95D",
"i	c #7DAA7D",
"j	c #5EC65E",
"k	c #4EC34E",
"l	c #4CBD4C",
"m	c #44AD44",
"n	c #378A37",
"o	c #BBD2BB",
"p	c #BDE4BD",
"q	c #44A844",
"r	c #3A8F3A",
"s	c #307930",
"t	c #639963",
"u	c #ABCFAB",
"v	c #377B37",
"w	c #699C69",
"x	c #F2F7F2",
"                ",
"                ",
"                ",
"     .+@#$      ",
"    %&*=-;>,    ",
"   '))!~{]^/    ",
"   (_:_<[}|12   ",
"   34)5678910   ",
"   a<b4cd111e   ",
"   fgh{d1111i   ",
"   jklmn1111o   ",
"   pqr1s111t    ",
"    uv1111wx    ",
"                ",
"                ",
"                "};
