/* XPM */
static char *polar_xpm[] = {
/* columns rows colors chars-per-pixel */
"32 32 32 1",
"5 c #DFEDDA",
"w c #D4D5F0",
"& c #FFFFFF",
"2 c #F2BEF2",
"# c #CBCBC9",
"; c #B2B1B1",
"q c #C0D6BF",
"3 c #B630B7",
". c #F8F8F7",
"$ c #FBFCFB",
"O c #727578",
"- c #D1D3CD",
"= c #DBDBDC",
"1 c #FBF0FB",
"> c #D7E1D5",
"* c #32363A",
"4 c #FDDBFD",
"8 c #C7D0AF",
"  c None",
"o c #F3F3F3",
": c #C1BFC2",
"< c #E68CE2",
"e c #F9FEE7",
", c #E5EEE3",
"% c #A4A5A2",
"0 c #9191EA",
"@ c #E5E5E6",
"9 c #463DB8",
"+ c #8F9090",
"X c #EEEEED",
"7 c #F1F5EC",
"6 c #92B192",
/* pixels */
"               .X               ",
"           o.oXoO + @           ",
"         #X.$$$.%o @X +         ",
"       .Xo+ &. X@ .. *o =  .+-  ",
" %*@  = $ ;= . o: &&=# :$  o:   ",
"    + $$&$$+ o X% = =:o  X*     ",
"    #*@ X$ + X @@= o*  @&* -    ",
"   & &O& . >: o % $+&$> +.=$    ",
"   =$  +,&<1O .$%X ;234+>&  :   ",
"  @. $& +3:23; o= ,34 O3  @o o  ",
"  #+%.  3+5 &O X= O  *5 35&@OO  ",
" $  @O634 ++ -o$; ;&*  7<<6;.   ",
" @o$   36X =% +;oO O  ++>3o  $% ",
"   $.,< &:O.X+X#=o;o:OX .$<&=@  ",
" -.  41    :+%%+++%O. &@  <1  = ",
"$$.o,3#:-:=o:#O**O:X-:= X-@<>+X.",
"oO:-@35899@@%-%**O=X X;998:2,$+X",
"     <=9@  X;.+O+++=:   0O4  =  ",
" ;=@7$9  X+: OX$o$:-$+:.&09&. @ ",
"      3-*;  * :; * Oo oOq30 .@X ",
" o-.>O9<   *&q7X<3@ +% $-3*- &  ",
"   ;%9$21,O &3<3o43<4=O 3 w+*@  ",
"  :;$0X 23323; e- +-<433o 0 X:  ",
"     @0 *;& O 7w9 7+q. q;$0=    ",
"   @@.9O & ;- 9w+09%eX $ *0$o   ",
"      *9oo +99 8=7 99@$$w0OX    ",
" X== *& 9099 , :$o &O9009 ;+  X=",
" =+X  =o. #- o =o X -;. Xo   &:;",
"        =.O o&$.- = .O=..       ",
"         .+ X @ ; = .--&        ",
"            : @=+ o@            ",
"               .X               "
};
