/* XPM */
static char *Bullet_green_xpm[] = {
/* columns rows colors chars-per-pixel */
"10 10 63 1",
"x c #5EC65E",
"t c #72FF72",
"p c #358435",
"5 c #70FF70",
"j c #59DF59",
"A c #377B37",
"@ c #D5FFD5",
"m c #BBD2BB",
"u c #51C851",
"q c #307730",
"X c #D3FFD3",
", c #67FB67",
"$ c #6CFF6C",
". c #FBFFFB",
"f c #66E866",
"3 c #7AAF7A",
"b c #44AD44",
"d c #6AFF6A",
"o c #BCFCBC",
"a c #84AE84",
"s c #63F863",
"# c #7BFF7B",
"z c #7DAA7D",
"h c #6C9E6C",
"g c #358635",
"i c #40A140",
"0 c #409E40",
"9 c #4BB94B",
"c c #4EC34E",
"8 c #59DE59",
"V c #307930",
"  c None",
"6 c #73FF73",
"v c #4CBD4C",
"k c #5AE25A",
"; c #D8FFD8",
"Z c #ABCFAB",
": c #71FF71",
"l c #5DE95D",
"S c #699C69",
"> c #6FFF6F",
"O c #C3F6C3",
"D c #F2F7F2",
"4 c #82FF82",
"r c #6DFF6D",
"= c #92CF92",
"B c #3A8F3A",
"7 c #66FB66",
"y c #68F568",
"1 c #53CF53",
"e c #69FF69",
"+ c #ECFAEC",
"C c #639963",
"< c #5CE45C",
"% c #67FF67",
"2 c #41A441",
"w c #CADCCA",
"* c #54CD54",
"- c #FBFDFB",
"N c #44A844",
"M c #BDE4BD",
"& c #60EF60",
"n c #378A37",
/* pixels */
"  .XoO+   ",
" @#$%&*=- ",
";::>,<123 ",
"45657890qw",
"er:tyuipqa",
"s7drfgqqqh",
"jkl<gqqqqz",
"xcvbnqqqqm",
"MNBqVqqqC ",
" ZAqqqqSD "
};
