<svg id="svg" version="1.1" xmlns="http://www.w3.org/2000/svg" xmlns:xlink="http://www.w3.org/1999/xlink" width="400" height="400" viewBox="0, 0, 400,400"><g id="svgg"><path id="path0" d="M50.000 3.214 C 50.000 6.519,49.685 7.434,47.826 9.533 L 47.000 10.465 48.000 10.241 C 48.550 10.118,50.685 9.634,52.745 9.165 L 56.491 8.312 58.133 9.466 C 59.036 10.101,60.365 11.395,61.087 12.341 L 62.400 14.062 62.400 7.031 L 62.400 0.000 56.200 0.000 L 50.000 0.000 50.000 3.214 M300.000 6.200 L 300.000 12.400 303.340 12.400 C 309.122 12.400,312.400 9.122,312.400 3.340 L 312.400 0.000 306.200 0.000 L 300.000 0.000 300.000 6.200 M362.400 3.138 C 362.400 7.458,360.996 8.520,353.612 9.783 C 346.031 11.079,342.319 12.705,339.600 15.921 C 337.862 17.977,330.594 25.252,328.151 27.381 C 327.153 28.251,326.076 29.466,325.758 30.081 L 325.179 31.200 326.637 31.200 C 328.454 31.200,330.669 29.137,331.932 26.268 C 333.309 23.142,334.989 21.354,337.892 19.925 C 339.348 19.208,341.453 17.737,342.569 16.656 C 353.994 5.596,370.405 9.363,366.176 22.075 C 365.568 23.904,364.558 26.642,363.933 28.160 L 362.796 30.919 366.432 27.560 C 368.432 25.712,371.133 23.172,372.434 21.915 L 374.800 19.629 374.800 9.815 L 374.800 0.000 368.600 0.000 L 362.400 0.000 362.400 3.138 M293.369 13.350 C 293.496 13.982,293.600 15.468,293.600 16.650 L 293.600 18.800 296.817 18.800 L 300.034 18.800 299.917 15.700 L 299.800 12.600 296.469 12.400 L 293.138 12.200 293.369 13.350 M60.911 25.363 C 60.228 26.333,58.845 27.608,57.839 28.198 C 56.130 29.200,54.800 31.614,54.800 33.715 C 54.800 36.891,50.294 41.141,45.593 42.399 C 43.234 43.030,42.949 43.308,42.632 45.291 C 42.034 49.032,39.965 52.171,37.142 53.623 C 35.988 54.217,30.214 56.000,29.445 56.000 C 29.352 56.000,28.805 56.804,28.229 57.786 C 27.653 58.769,26.511 60.064,25.691 60.664 C 24.871 61.265,24.029 61.901,23.820 62.078 C 23.611 62.255,25.373 62.400,27.735 62.400 L 32.029 62.400 34.315 60.064 C 35.572 58.780,38.286 55.990,40.347 53.864 L 44.094 50.000 46.418 50.000 C 49.504 50.000,50.000 49.480,50.000 46.244 L 50.000 43.745 53.700 40.268 C 55.735 38.356,58.525 35.728,59.900 34.430 L 62.400 32.068 62.400 27.834 C 62.400 25.505,62.345 23.600,62.277 23.600 C 62.209 23.600,61.595 24.393,60.911 25.363 M379.248 38.811 C 378.329 39.477,377.087 40.750,376.488 41.641 C 375.890 42.532,374.889 43.874,374.264 44.624 L 373.128 45.988 375.464 44.964 C 376.749 44.401,378.527 43.234,379.415 42.370 L 381.030 40.800 390.515 40.800 L 400.000 40.800 400.000 39.200 L 400.000 37.600 390.460 37.600 L 380.920 37.600 379.248 38.811 M349.220 47.641 C 348.941 49.204,348.302 51.814,347.800 53.441 L 346.887 56.400 348.443 56.400 L 350.000 56.400 350.000 50.600 C 350.000 43.990,349.924 43.702,349.220 47.641 M9.806 47.590 C 8.879 49.090,6.388 50.000,3.208 50.000 L 0.000 50.000 0.000 56.200 L 0.000 62.400 7.031 62.400 L 14.062 62.400 12.341 61.087 C 11.395 60.365,10.105 59.042,9.476 58.147 L 8.332 56.518 9.352 51.979 C 10.318 47.684,10.432 46.577,9.806 47.590 M50.629 50.629 C 50.188 51.070,50.000 52.024,50.000 53.829 L 50.000 56.400 51.389 56.400 C 52.504 56.400,53.137 56.042,54.589 54.589 C 56.042 53.137,56.400 52.504,56.400 51.389 L 56.400 50.000 53.829 50.000 C 52.024 50.000,51.070 50.188,50.629 50.629 M393.431 51.018 C 393.291 51.577,393.009 53.349,392.806 54.955 C 392.134 60.254,389.797 64.983,386.766 67.179 C 383.968 69.206,381.366 71.832,380.798 73.205 C 380.501 73.921,379.802 75.049,379.243 75.713 C 378.281 76.856,378.275 76.895,379.118 76.444 C 381.652 75.088,385.258 72.197,386.051 70.886 C 386.546 70.069,388.479 67.825,390.347 65.900 L 393.745 62.400 396.872 62.400 L 400.000 62.400 400.000 56.200 L 400.000 50.000 396.843 50.000 C 393.795 50.000,393.678 50.035,393.431 51.018 M391.701 88.773 C 389.962 90.033,388.503 91.792,387.413 93.946 C 386.523 95.704,383.741 98.707,382.321 99.441 C 381.375 99.930,381.200 100.272,381.200 101.628 L 381.200 103.236 382.700 102.973 C 386.683 102.275,389.647 101.573,391.244 100.950 C 392.233 100.565,394.529 100.195,396.500 100.104 L 400.000 99.943 400.000 93.772 L 400.000 87.600 396.660 87.600 C 393.601 87.600,393.184 87.699,391.701 88.773 M393.600 110.800 L 393.600 112.400 396.800 112.400 L 400.000 112.400 400.000 110.800 L 400.000 109.200 396.800 109.200 L 393.600 109.200 393.600 110.800 M79.308 115.953 C 78.016 116.974,76.942 118.306,76.172 119.844 C 74.687 122.807,72.807 124.687,69.844 126.172 C 68.284 126.953,66.974 128.016,65.908 129.364 L 64.311 131.385 64.436 156.592 L 64.562 181.800 63.639 183.695 C 62.499 186.038,60.662 187.686,57.466 189.234 C 56.115 189.888,54.332 191.085,53.505 191.893 L 52.000 193.362 52.000 199.880 L 52.000 206.398 53.402 207.949 C 54.172 208.802,55.949 210.048,57.350 210.717 C 60.622 212.280,62.486 213.936,63.639 216.305 L 64.562 218.200 64.443 243.400 L 64.323 268.600 65.526 270.247 C 66.834 272.039,68.174 273.101,70.497 274.188 C 72.603 275.173,74.833 277.534,76.187 280.210 C 76.932 281.682,78.042 283.047,79.308 284.047 L 81.272 285.600 87.637 285.600 L 94.003 285.600 96.001 283.674 C 97.101 282.614,98.000 281.530,98.000 281.265 C 98.000 280.348,94.625 277.125,92.616 276.123 C 90.146 274.891,87.794 272.708,86.744 270.673 C 85.462 268.188,85.331 259.461,85.574 192.800 L 85.800 131.000 86.666 129.400 C 87.820 127.269,90.147 125.109,92.616 123.877 C 94.625 122.875,98.000 119.652,98.000 118.735 C 98.000 118.470,97.101 117.386,96.001 116.326 L 94.003 114.400 87.637 114.400 L 81.272 114.400 79.308 115.953 M303.999 116.326 C 302.899 117.386,302.000 118.470,302.000 118.735 C 302.000 119.693,305.420 122.900,307.635 124.018 C 310.285 125.355,312.083 127.042,313.315 129.346 L 314.200 131.000 314.200 200.000 L 314.200 269.000 313.334 270.600 C 312.180 272.731,309.853 274.891,307.384 276.123 C 305.375 277.125,302.000 280.348,302.000 281.265 C 302.000 281.530,302.899 282.614,303.999 283.674 L 305.997 285.600 312.339 285.600 L 318.680 285.600 320.287 284.436 C 322.056 283.154,323.103 281.821,324.230 279.413 C 325.255 277.224,327.386 275.217,330.156 273.828 C 331.713 273.048,333.026 271.984,334.086 270.644 L 335.677 268.631 335.569 243.416 C 335.449 215.539,335.336 216.895,338.037 213.819 C 338.822 212.925,340.580 211.715,342.292 210.892 C 343.963 210.087,345.805 208.828,346.604 207.943 L 348.000 206.398 348.000 200.000 L 348.000 193.602 346.598 192.051 C 345.828 191.198,344.051 189.952,342.650 189.283 C 339.375 187.719,337.512 186.062,336.365 183.695 L 335.447 181.800 335.566 156.694 C 335.676 133.431,335.634 131.508,334.991 130.494 C 333.705 128.467,332.212 127.131,329.951 125.982 C 327.104 124.536,325.464 122.896,324.018 120.049 C 323.390 118.812,322.364 117.333,321.738 116.761 C 319.177 114.424,319.082 114.400,312.310 114.400 L 305.997 114.400 303.999 116.326 M239.118 127.200 L 230.437 127.400 228.780 129.000 C 227.869 129.880,226.716 131.500,226.217 132.600 C 225.007 135.269,222.844 137.391,219.859 138.837 C 216.927 140.257,214.280 142.721,212.997 145.225 C 211.935 147.298,209.567 149.592,207.291 150.754 C 205.744 151.543,203.258 153.997,202.421 155.562 C 202.086 156.186,202.133 157.669,202.608 161.497 C 203.424 168.067,203.426 169.100,202.635 175.722 L 201.976 181.243 202.853 182.522 C 204.395 184.773,205.755 186.031,207.458 186.785 C 209.609 187.736,212.277 190.421,213.244 192.607 C 214.076 194.487,217.584 197.910,218.948 198.173 C 219.417 198.263,222.299 198.711,225.353 199.168 C 232.202 200.194,233.811 201.054,236.677 205.221 C 237.819 206.882,238.913 207.793,242.115 209.755 C 242.728 210.130,245.338 210.784,247.915 211.206 C 259.297 213.073,261.581 215.241,265.417 227.817 L 266.456 231.226 265.572 233.913 C 262.538 243.134,258.586 247.746,252.322 249.376 C 245.157 251.241,244.272 251.332,238.210 250.828 C 229.998 250.146,229.688 249.982,224.295 243.470 C 221.533 240.135,219.549 239.358,212.342 238.789 L 206.085 238.294 204.460 239.600 C 203.567 240.317,202.356 241.598,201.768 242.446 L 200.701 243.986 202.425 246.893 C 205.171 251.520,211.405 257.480,215.625 259.512 L 219.000 261.138 227.582 261.827 C 237.458 262.621,246.253 262.487,260.175 261.331 L 268.951 260.603 271.074 258.663 C 272.241 257.596,273.537 255.953,273.953 255.012 C 275.045 252.544,277.353 250.175,279.789 249.022 C 281.027 248.437,282.675 247.167,283.754 245.967 L 285.600 243.913 285.600 231.225 L 285.600 218.537 284.086 216.368 C 283.147 215.022,281.554 213.508,279.885 212.375 C 277.147 210.517,275.749 208.980,274.360 206.299 C 273.378 204.403,269.441 201.282,267.600 200.939 C 262.926 200.069,257.379 197.393,254.276 194.510 C 251.878 192.282,245.954 189.462,241.486 188.420 C 230.835 185.937,226.036 181.566,223.641 172.166 C 221.557 163.988,226.401 151.668,232.099 150.659 C 241.020 149.079,244.488 149.003,251.800 150.231 C 256.924 151.091,256.668 150.955,260.428 154.806 C 262.808 157.243,264.625 158.704,266.370 159.585 L 268.884 160.854 275.268 160.727 L 281.652 160.600 283.626 158.530 L 285.600 156.459 285.600 149.973 L 285.600 143.486 283.700 141.596 L 281.800 139.706 274.938 139.513 C 266.008 139.262,263.721 138.057,260.913 132.125 C 260.298 130.827,259.161 129.339,258.120 128.468 L 256.363 127.000 252.082 127.000 C 249.727 127.000,243.893 127.090,239.118 127.200 M154.760 140.261 C 151.728 143.501,152.000 138.807,152.000 187.902 C 152.000 236.590,152.159 233.540,149.480 236.336 C 146.573 239.369,146.068 239.467,132.000 239.711 C 118.346 239.947,118.361 239.945,110.518 242.868 L 108.435 243.644 109.668 244.922 C 111.618 246.944,112.729 248.948,113.984 252.705 C 115.733 257.941,116.562 258.551,124.846 260.699 C 133.877 263.041,140.843 263.195,150.351 261.263 C 153.734 260.576,156.794 259.790,157.151 259.517 C 159.277 257.889,160.690 256.511,161.340 255.430 C 162.611 253.317,164.515 251.571,166.835 250.391 C 169.294 249.140,171.140 247.269,172.451 244.700 C 173.298 243.040,173.306 242.797,173.194 222.211 C 173.132 210.765,173.116 190.870,173.158 178.000 C 173.261 146.923,173.120 144.135,171.330 141.790 C 169.459 139.340,169.374 139.313,162.400 139.000 L 156.200 138.722 154.760 140.261 M393.114 289.706 C 392.868 293.128,391.949 293.574,385.100 293.590 L 381.200 293.600 381.200 296.800 L 381.200 300.000 390.600 300.000 L 400.000 300.000 400.000 293.829 L 400.000 287.659 396.640 287.529 L 393.280 287.400 393.114 289.706 M12.582 296.500 C 12.928 300.018,12.653 299.743,16.021 299.933 L 18.800 300.090 18.800 298.656 C 18.800 296.577,15.819 293.600,13.738 293.600 L 12.297 293.600 12.582 296.500 M0.000 306.200 L 0.000 312.400 3.340 312.400 C 8.936 312.400,12.400 309.095,12.400 303.754 C 12.400 300.019,12.365 300.000,5.426 300.000 L 0.000 300.000 0.000 306.200 M19.337 336.500 C 18.426 337.435,16.913 338.830,15.973 339.600 C 12.728 342.261,11.089 345.969,9.783 353.612 C 8.520 360.996,7.458 362.400,3.138 362.400 L 0.000 362.400 0.000 368.600 L 0.000 374.800 9.815 374.800 L 19.629 374.800 21.915 372.434 C 23.172 371.133,25.712 368.432,27.560 366.432 L 30.919 362.796 28.160 363.933 C 26.642 364.558,23.904 365.568,22.075 366.176 C 9.353 370.409,5.597 353.994,16.670 342.555 C 17.804 341.383,18.965 339.676,19.389 338.555 C 19.796 337.480,20.391 336.195,20.711 335.700 C 21.565 334.377,21.195 334.592,19.337 336.500 M392.400 338.296 C 390.639 339.447,389.199 340.931,388.217 342.608 C 386.841 344.954,384.141 346.293,378.885 347.232 C 370.643 348.705,367.037 350.283,364.364 353.588 C 363.614 354.515,361.129 357.103,358.843 359.337 C 356.557 361.572,353.767 364.361,352.643 365.535 C 348.343 370.029,342.415 375.857,340.779 377.200 C 337.596 379.811,337.603 379.780,337.601 390.500 L 337.600 400.000 343.800 400.000 L 350.000 400.000 350.000 396.870 C 350.000 394.000,349.912 393.659,348.946 392.770 C 347.441 391.386,346.516 389.075,345.795 384.893 L 345.166 381.248 346.558 378.484 C 348.220 375.183,351.047 372.472,354.180 371.173 C 356.535 370.197,356.447 370.333,357.985 365.250 C 359.220 361.172,361.172 359.220,365.250 357.985 C 370.180 356.493,370.129 356.525,371.356 354.182 C 373.332 350.407,376.671 348.368,382.511 347.369 C 387.535 346.510,388.834 345.883,391.181 343.185 L 393.255 340.800 396.627 340.800 L 400.000 340.800 400.000 339.200 L 400.000 337.600 396.700 337.621 C 394.349 337.636,393.112 337.830,392.400 338.296 M43.229 348.500 C 42.956 349.435,42.384 350.830,41.960 351.600 L 41.188 353.000 42.537 351.500 L 43.885 350.000 50.142 350.000 L 56.400 350.000 56.400 348.400 L 56.400 346.800 50.063 346.800 L 43.727 346.800 43.229 348.500 M60.800 357.564 L 59.000 359.126 62.345 358.163 C 64.185 357.633,66.106 357.200,66.613 357.200 C 67.882 357.200,68.840 356.789,68.574 356.358 C 67.848 355.183,62.608 355.996,60.800 357.564 M393.480 359.700 C 393.366 359.975,392.792 361.280,392.204 362.600 L 391.134 365.000 392.486 363.700 C 393.773 362.463,393.987 362.400,396.919 362.400 L 400.000 362.400 400.000 360.800 L 400.000 359.200 396.843 359.200 C 394.694 359.200,393.620 359.360,393.480 359.700 M44.534 374.312 C 43.838 374.910,42.538 375.890,41.645 376.488 C 40.752 377.087,39.477 378.329,38.811 379.248 L 37.600 380.920 37.640 386.560 L 37.680 392.200 38.239 389.649 C 39.559 383.614,40.407 381.465,42.205 379.600 C 43.497 378.261,46.449 373.126,45.878 373.212 C 45.835 373.218,45.230 373.713,44.534 374.312 M75.850 379.145 C 75.480 379.554,74.430 380.226,73.518 380.637 C 71.826 381.400,69.570 383.576,67.130 386.800 C 65.002 389.611,62.141 391.131,55.500 392.982 L 53.200 393.622 53.200 396.811 L 53.200 400.000 57.800 400.000 L 62.400 400.000 62.400 396.872 L 62.400 393.745 65.900 390.347 C 67.825 388.479,70.069 386.546,70.886 386.051 C 71.703 385.557,73.181 383.995,74.169 382.580 C 76.746 378.894,77.534 377.284,75.850 379.145 M293.600 384.175 C 293.600 386.888,293.740 387.408,295.194 390.075 C 296.707 392.850,296.789 393.180,296.794 396.500 L 296.800 400.000 298.400 400.000 L 300.000 400.000 300.000 390.600 L 300.000 381.200 296.800 381.200 L 293.600 381.200 293.600 384.175 M104.332 388.716 C 101.023 391.159,100.000 393.108,100.000 396.974 L 100.000 400.000 101.600 400.000 L 103.200 400.000 103.200 396.647 L 103.200 393.293 104.800 391.848 C 107.529 389.382,107.121 386.658,104.332 388.716 M109.200 396.800 L 109.200 400.000 110.800 400.000 L 112.400 400.000 112.400 396.800 L 112.400 393.600 110.800 393.600 L 109.200 393.600 109.200 396.800 M287.600 396.800 L 287.600 400.000 289.200 400.000 L 290.800 400.000 290.800 396.800 L 290.800 393.600 289.200 393.600 L 287.600 393.600 287.600 396.800 " stroke="none" fill="#fcfafa" fill-rule="evenodd"></path><path id="path1" d="M112.275 7.217 C 108.337 7.879,107.290 9.487,107.018 15.297 L 106.845 19.000 107.175 15.899 C 107.869 9.357,109.353 7.865,115.800 7.226 C 118.844 6.924,118.883 6.909,116.600 6.902 C 115.280 6.897,113.334 7.040,112.275 7.217 M51.200 9.479 C 48.891 10.016,46.731 10.683,46.400 10.960 C 46.070 11.238,44.900 11.969,43.800 12.585 C 41.350 13.958,39.881 15.279,38.347 17.491 C 37.109 19.276,33.780 21.145,29.223 22.614 C 26.280 23.562,23.571 26.266,22.601 29.223 C 21.284 33.242,18.933 37.452,17.517 38.330 C 15.688 39.465,13.905 41.442,12.584 43.800 C 11.969 44.900,11.240 46.070,10.964 46.400 C 10.689 46.730,9.985 49.142,9.398 51.760 L 8.333 56.520 9.477 58.148 C 13.869 64.397,24.169 64.286,28.110 57.947 C 28.775 56.876,29.386 56.000,29.467 56.000 C 30.218 56.000,36.006 54.208,37.142 53.623 C 39.965 52.171,42.034 49.032,42.632 45.291 C 42.949 43.308,43.234 43.030,45.593 42.399 C 50.294 41.141,54.800 36.891,54.800 33.715 C 54.800 31.595,56.118 29.246,57.944 28.111 C 64.192 24.227,64.410 14.000,58.339 9.601 C 56.412 8.206,56.648 8.210,51.200 9.479 M112.533 8.982 C 110.499 9.867,107.759 13.493,108.537 14.270 C 108.638 14.371,108.922 13.841,109.169 13.093 C 109.707 11.465,111.283 9.890,113.200 9.067 C 113.970 8.736,114.420 8.458,114.200 8.448 C 113.980 8.439,113.230 8.679,112.533 8.982 M353.400 10.573 C 348.922 11.830,346.898 12.850,344.079 15.270 C 342.495 16.629,341.200 17.877,341.200 18.043 C 341.200 18.209,339.866 18.986,338.235 19.770 C 334.990 21.331,333.372 22.999,331.932 26.268 C 330.505 29.510,328.496 31.200,326.071 31.200 C 324.958 31.200,323.936 31.380,323.800 31.600 C 323.647 31.848,324.376 32.000,325.717 32.000 C 328.174 32.000,330.237 32.598,330.544 33.399 C 330.704 33.816,330.410 33.896,329.276 33.743 C 328.012 33.572,327.892 33.619,328.439 34.072 C 329.341 34.818,330.401 36.992,330.394 38.080 C 330.389 38.843,330.314 38.897,329.956 38.400 C 329.608 37.916,329.578 37.955,329.799 38.600 C 329.951 39.040,330.173 40.440,330.294 41.711 C 330.567 44.588,330.467 44.535,335.670 44.602 C 340.403 44.663,341.129 44.971,342.276 47.400 L 342.842 48.600 342.616 47.200 C 342.491 46.430,342.026 45.304,341.581 44.698 C 340.520 43.251,340.941 42.480,343.842 40.555 C 348.186 37.671,353.200 32.334,353.200 30.593 C 353.200 28.492,354.210 26.757,356.725 24.535 L 359.335 22.229 357.507 25.614 C 356.502 27.477,355.548 29.626,355.388 30.392 C 354.561 34.338,349.494 39.859,344.492 42.265 C 341.967 43.480,341.590 43.779,342.269 44.030 C 343.350 44.430,343.600 45.863,343.600 51.673 L 343.600 56.446 345.286 56.323 C 347.218 56.182,347.644 55.250,349.204 47.745 L 349.963 44.090 353.572 40.545 C 355.556 38.595,358.177 36.126,359.395 35.058 C 363.160 31.758,367.658 20.802,366.820 16.976 C 365.666 11.706,359.627 8.825,353.400 10.573 M292.214 11.643 C 292.370 12.135,292.731 14.081,293.017 15.968 L 293.537 19.400 293.469 15.535 C 293.411 12.262,293.287 11.599,292.665 11.209 C 292.015 10.802,291.963 10.852,292.214 11.643 M357.200 15.632 C 357.673 15.964,357.615 16.000,356.923 15.806 C 356.394 15.658,355.401 15.889,354.423 16.388 C 353.530 16.844,352.800 17.127,352.800 17.018 C 352.800 16.163,356.357 15.042,357.200 15.632 M56.968 17.807 C 57.760 19.016,57.035 20.324,55.095 21.182 C 53.494 21.891,52.500 24.169,51.962 28.364 C 51.418 32.607,49.824 35.355,46.734 37.381 C 45.780 38.006,44.228 39.033,43.284 39.662 C 40.616 41.441,41.726 39.772,46.283 35.154 L 50.078 31.307 49.093 29.748 C 48.188 28.314,46.176 26.219,46.969 27.536 C 47.146 27.830,46.516 27.509,45.568 26.823 C 44.532 26.072,43.596 25.676,43.222 25.829 C 40.277 27.035,36.202 27.836,32.361 27.965 C 30.458 28.029,28.563 30.484,25.140 37.320 L 21.909 43.773 22.545 45.787 C 23.316 48.229,25.164 50.557,27.137 51.571 L 28.600 52.323 27.000 52.587 C 24.144 53.058,21.931 54.055,21.300 55.155 C 20.204 57.064,18.949 57.750,17.897 57.013 C 16.386 55.954,16.774 44.341,18.378 42.600 C 20.138 40.690,21.734 38.124,24.107 33.389 C 26.798 28.019,28.510 26.295,33.010 24.422 C 36.842 22.828,40.033 20.867,42.203 18.772 L 43.805 17.225 49.203 17.100 C 52.171 17.031,54.984 16.935,55.454 16.887 C 55.989 16.833,56.555 17.176,56.968 17.807 M104.500 19.076 C 104.885 19.176,105.515 19.176,105.900 19.076 C 106.285 18.975,105.970 18.893,105.200 18.893 C 104.430 18.893,104.115 18.975,104.500 19.076 M296.532 19.066 C 296.817 19.350,301.664 19.270,301.958 18.976 C 302.054 18.879,300.813 18.800,299.200 18.800 C 297.587 18.800,296.386 18.920,296.532 19.066 M348.495 20.381 C 347.998 20.796,346.667 21.334,345.538 21.576 C 342.205 22.291,337.110 26.681,334.556 31.038 C 333.331 33.130,333.131 33.235,333.619 31.535 C 335.073 26.463,340.093 21.981,345.600 20.836 C 346.810 20.585,348.070 20.206,348.400 19.996 C 349.401 19.356,349.456 19.580,348.495 20.381 M84.943 21.509 C 84.026 22.249,82.794 24.425,82.809 25.280 C 82.814 25.566,83.151 25.066,83.559 24.169 C 83.966 23.271,84.796 22.146,85.404 21.669 C 86.011 21.191,86.349 20.804,86.154 20.809 C 85.959 20.814,85.414 21.129,84.943 21.509 M347.204 29.896 C 348.305 31.295,348.255 31.460,346.057 33.657 C 343.730 35.984,343.719 35.985,341.875 34.142 C 339.635 31.902,339.628 31.405,341.804 29.196 L 343.691 27.280 345.049 28.082 C 345.796 28.523,346.766 29.339,347.204 29.896 M342.288 29.510 C 340.461 31.381,340.458 31.512,342.208 33.208 L 343.616 34.572 345.302 32.886 L 346.988 31.200 345.382 29.593 L 343.775 27.987 342.288 29.510 M44.246 31.424 C 44.006 32.050,40.648 32.173,38.800 31.622 C 37.882 31.349,37.948 31.286,39.600 30.856 C 40.590 30.598,41.940 30.243,42.600 30.067 C 43.900 29.720,44.659 30.347,44.246 31.424 M32.641 36.236 C 32.948 36.972,33.199 38.165,33.199 38.887 L 33.197 40.200 32.404 38.900 C 31.968 38.185,31.521 37.600,31.410 37.600 C 30.878 37.600,28.077 43.923,28.422 44.345 C 28.628 44.597,28.521 44.564,28.184 44.272 C 27.638 43.800,27.697 43.458,28.721 41.171 C 29.355 39.757,30.186 37.654,30.570 36.497 C 31.329 34.206,31.769 34.151,32.641 36.236 M379.451 42.347 C 378.620 43.198,376.838 44.370,375.492 44.951 L 373.043 46.008 374.021 44.902 C 374.560 44.294,373.560 45.239,371.800 47.002 C 370.040 48.765,367.754 50.780,366.721 51.481 C 365.687 52.181,364.339 53.529,363.725 54.477 C 363.110 55.425,362.336 56.357,362.004 56.549 C 361.672 56.740,360.185 58.142,358.700 59.663 L 356.000 62.429 356.000 65.596 L 356.000 68.764 357.435 69.033 C 359.484 69.417,363.315 68.895,363.717 68.176 C 364.702 66.416,368.122 62.800,368.801 62.800 C 370.029 62.800,372.285 65.073,373.053 67.083 L 373.758 68.930 371.979 70.467 C 371.001 71.312,369.902 72.100,369.537 72.217 C 368.708 72.484,368.471 73.093,368.266 75.495 C 368.176 76.543,368.183 76.950,368.282 76.400 C 368.489 75.247,368.947 74.684,369.775 74.562 C 373.105 74.074,377.790 69.937,378.413 66.937 C 378.853 64.817,379.105 64.481,383.284 60.441 L 387.691 56.181 386.334 54.402 C 385.587 53.424,384.188 52.022,383.225 51.286 L 381.472 49.950 378.906 52.475 C 377.495 53.864,376.076 55.501,375.753 56.113 C 375.430 56.725,375.014 57.132,374.828 57.017 C 374.424 56.767,373.507 57.774,373.838 58.104 C 374.237 58.504,372.618 59.144,370.494 59.425 C 367.979 59.759,362.941 63.561,360.767 66.764 C 359.566 68.534,357.200 69.745,357.200 68.589 C 357.200 66.705,362.549 59.562,365.458 57.560 C 366.484 56.854,367.635 55.965,368.015 55.585 C 369.225 54.375,373.341 51.728,377.309 49.608 L 381.152 47.554 382.476 48.221 C 384.642 49.312,386.697 51.575,387.647 53.916 L 388.539 56.113 387.589 57.956 C 387.067 58.970,385.237 61.185,383.523 62.879 C 381.142 65.230,380.069 66.667,378.979 68.963 C 377.233 72.642,374.671 75.102,371.256 76.379 C 368.929 77.249,368.410 77.837,368.412 79.600 C 368.412 80.049,368.492 80.074,368.729 79.701 C 368.904 79.426,370.116 79.010,371.423 78.777 C 375.014 78.137,378.400 77.140,378.400 76.724 C 378.400 76.520,378.608 76.481,378.862 76.638 C 379.130 76.804,379.216 76.749,379.066 76.507 C 378.925 76.278,379.049 75.891,379.343 75.648 C 379.636 75.404,380.216 74.452,380.631 73.532 C 381.406 71.812,383.820 69.313,386.766 67.179 C 389.797 64.983,392.134 60.254,392.806 54.955 C 393.474 49.683,393.216 50.000,396.843 50.000 L 400.000 50.000 400.000 45.400 L 400.000 40.800 390.481 40.800 L 380.962 40.800 379.451 42.347 M56.656 48.084 C 56.521 48.588,56.431 49.630,56.455 50.400 C 56.489 51.469,56.575 51.280,56.818 49.602 C 57.153 47.292,57.072 46.533,56.656 48.084 M49.284 49.439 C 48.860 49.901,48.877 50.000,49.384 50.000 C 49.723 50.000,50.000 50.277,50.000 50.616 C 50.000 51.123,50.099 51.140,50.561 50.716 C 51.021 50.292,51.026 50.178,50.585 50.075 C 50.290 50.007,49.993 49.710,49.925 49.415 C 49.822 48.974,49.708 48.979,49.284 49.439 M54.600 54.600 L 53.000 56.200 54.540 56.327 C 56.439 56.483,56.483 56.439,56.327 54.540 L 56.200 53.000 54.600 54.600 M47.800 56.796 C 47.302 57.008,47.831 57.051,49.200 56.912 C 50.410 56.789,51.475 56.623,51.567 56.544 C 51.911 56.247,48.567 56.470,47.800 56.796 M349.105 56.683 C 349.602 56.779,350.322 56.775,350.705 56.675 C 351.087 56.575,350.680 56.496,349.800 56.501 C 348.920 56.505,348.607 56.587,349.105 56.683 M367.249 67.749 C 366.460 68.563,365.278 69.258,364.271 69.501 L 362.600 69.904 364.238 69.952 C 366.185 70.009,367.069 70.830,367.305 72.800 L 367.472 74.200 367.536 72.719 C 367.591 71.440,367.850 71.066,369.434 69.977 L 371.268 68.715 370.159 67.557 C 368.782 66.120,368.832 66.116,367.249 67.749 M23.154 83.599 C 22.322 84.039,21.431 84.948,21.054 85.742 C 20.098 87.756,20.267 88.061,21.308 86.200 C 21.898 85.146,22.812 84.293,23.986 83.700 C 24.967 83.205,25.506 82.808,25.185 82.818 C 24.863 82.827,23.949 83.179,23.154 83.599 M18.901 98.200 C 18.905 99.080,18.987 99.393,19.083 98.895 C 19.179 98.398,19.175 97.678,19.075 97.295 C 18.975 96.913,18.896 97.320,18.901 98.200 M380.901 99.800 C 380.905 100.680,380.987 100.993,381.083 100.495 C 381.179 99.998,381.175 99.278,381.075 98.895 C 380.975 98.513,380.896 98.920,380.901 99.800 M16.974 101.118 C 15.310 102.326,12.800 105.205,12.800 105.906 C 12.800 106.122,12.115 106.407,11.277 106.541 C 8.302 107.017,7.280 109.030,7.023 114.925 C 6.858 118.701,6.869 118.780,7.173 116.000 C 7.977 108.648,9.313 107.285,16.416 106.570 L 19.032 106.307 18.894 103.653 C 18.688 99.681,18.782 99.806,16.974 101.118 M392.800 100.400 C 391.917 100.971,388.658 101.862,384.828 102.579 C 380.855 103.323,381.290 103.033,381.198 105.000 C 381.079 107.524,381.116 107.600,382.474 107.600 C 386.372 107.600,390.100 109.751,391.140 112.600 L 391.578 113.800 391.516 112.200 C 391.396 109.112,390.291 107.941,386.800 107.202 C 385.049 106.831,385.064 106.826,387.342 107.019 C 391.770 107.393,392.462 108.355,392.753 114.539 C 392.986 119.501,393.494 117.976,393.565 112.100 L 393.600 109.200 396.800 109.200 L 400.000 109.200 400.000 104.600 L 400.000 100.000 396.700 100.006 C 394.885 100.009,393.130 100.187,392.800 100.400 M14.919 107.379 C 13.994 107.668,13.167 107.834,13.081 107.747 C 12.074 106.740,7.941 113.110,8.022 115.546 C 8.033 115.906,8.380 115.146,8.791 113.858 C 9.970 110.168,11.964 108.554,16.500 107.618 C 17.765 107.357,18.800 107.066,18.800 106.972 C 18.800 106.630,16.563 106.865,14.919 107.379 M78.508 109.416 C 74.286 110.553,72.260 112.498,70.923 116.698 C 70.118 119.226,69.237 120.092,66.600 120.951 C 58.879 123.464,58.704 124.285,59.033 156.400 L 59.289 181.400 57.745 182.853 C 56.760 183.779,55.628 184.407,54.622 184.586 C 47.894 185.779,45.816 189.865,46.063 201.415 C 46.270 211.082,49.286 215.600,55.533 215.600 C 55.920 215.600,56.921 216.300,57.757 217.156 L 59.276 218.711 59.138 244.656 L 59.000 270.600 59.906 272.839 C 61.274 276.221,65.492 279.600,68.345 279.600 C 68.985 279.600,70.316 281.447,70.795 283.000 C 72.812 289.537,76.264 291.200,87.820 291.200 C 96.817 291.200,99.703 290.336,101.898 286.987 C 106.032 280.681,102.936 273.062,95.314 270.786 C 90.760 269.425,90.848 270.883,91.051 199.800 C 91.258 127.085,91.014 130.574,96.000 129.024 C 106.052 125.900,106.445 112.343,96.569 109.371 C 93.983 108.592,81.450 108.624,78.508 109.416 M303.349 109.535 C 293.241 113.029,294.013 126.606,304.467 129.213 C 308.969 130.335,308.806 127.703,308.803 199.587 C 308.799 272.896,309.022 269.525,304.089 270.924 C 294.629 273.608,293.319 286.097,302.083 290.039 C 304.015 290.908,304.837 291.003,311.468 291.127 C 323.548 291.352,327.444 289.570,329.235 283.000 C 329.784 280.987,330.943 279.719,332.550 279.371 C 334.682 278.911,337.504 277.273,338.567 275.878 C 341.030 272.650,340.965 273.541,340.839 244.800 L 340.724 218.600 342.082 217.299 C 342.980 216.439,344.239 215.790,345.797 215.384 C 352.204 213.715,353.991 210.362,353.991 200.000 C 353.991 189.520,351.775 185.655,345.134 184.552 C 344.200 184.397,343.184 183.809,342.334 182.932 L 341.000 181.555 341.000 155.678 C 341.000 131.499,340.951 129.656,340.256 127.600 C 339.246 124.616,336.566 121.961,333.600 121.007 C 330.958 120.158,329.734 119.128,329.372 117.450 C 328.401 112.948,325.559 110.327,320.480 109.250 C 316.966 108.504,305.793 108.690,303.349 109.535 M96.001 116.326 C 97.101 117.386,98.000 118.470,98.000 118.735 C 98.000 119.652,94.625 122.875,92.616 123.877 C 90.147 125.109,87.820 127.269,86.666 129.400 L 85.800 131.000 85.574 192.800 C 85.331 259.461,85.462 268.188,86.744 270.673 C 87.794 272.708,90.146 274.891,92.616 276.123 C 94.625 277.125,98.000 280.348,98.000 281.265 C 98.000 281.530,97.101 282.614,96.001 283.674 L 94.003 285.600 87.637 285.600 L 81.272 285.600 79.308 284.047 C 78.042 283.047,76.932 281.682,76.187 280.210 C 74.833 277.534,72.603 275.173,70.497 274.188 C 68.174 273.101,66.834 272.039,65.526 270.247 L 64.323 268.600 64.443 243.400 L 64.562 218.200 63.639 216.305 C 62.486 213.936,60.622 212.280,57.350 210.717 C 55.949 210.048,54.172 208.802,53.402 207.949 L 52.000 206.398 52.000 199.880 L 52.000 193.362 53.505 191.893 C 54.332 191.085,56.115 189.888,57.466 189.234 C 60.662 187.686,62.499 186.038,63.639 183.695 L 64.562 181.800 64.436 156.592 L 64.311 131.385 65.908 129.364 C 66.974 128.016,68.284 126.953,69.844 126.172 C 72.807 124.687,74.687 122.807,76.172 119.844 C 76.942 118.306,78.016 116.974,79.308 115.953 L 81.272 114.400 87.637 114.400 L 94.003 114.400 96.001 116.326 M319.611 115.061 C 321.623 116.407,322.905 117.858,324.018 120.049 C 325.464 122.896,327.104 124.536,329.951 125.982 C 332.212 127.131,333.705 128.467,334.991 130.494 C 335.634 131.508,335.676 133.431,335.566 156.694 L 335.447 181.800 336.365 183.695 C 337.512 186.062,339.375 187.719,342.650 189.283 C 344.051 189.952,345.828 191.198,346.598 192.051 L 348.000 193.602 348.000 200.000 L 348.000 206.398 346.604 207.943 C 345.805 208.828,343.963 210.087,342.292 210.892 C 340.580 211.715,338.822 212.925,338.037 213.819 C 335.336 216.895,335.449 215.539,335.569 243.416 L 335.677 268.631 334.086 270.644 C 333.026 271.984,331.713 273.048,330.156 273.828 C 327.386 275.217,325.255 277.224,324.230 279.413 C 323.103 281.821,322.056 283.154,320.287 284.436 L 318.680 285.600 312.339 285.600 L 305.997 285.600 303.999 283.674 C 302.899 282.614,302.000 281.530,302.000 281.265 C 302.000 280.348,305.375 277.125,307.384 276.123 C 309.853 274.891,312.180 272.731,313.334 270.600 L 314.200 269.000 314.200 200.000 L 314.200 131.000 313.315 129.346 C 312.083 127.042,310.285 125.355,307.635 124.018 C 305.420 122.900,302.000 119.693,302.000 118.735 C 302.000 118.470,302.899 117.386,303.999 116.326 L 305.997 114.400 312.310 114.400 C 317.515 114.400,318.795 114.516,319.611 115.061 M229.044 121.915 C 224.662 123.029,222.248 125.411,221.187 129.667 C 220.596 132.037,219.596 132.939,216.612 133.791 C 211.335 135.299,207.259 139.221,207.209 142.838 C 207.196 143.742,206.087 144.567,204.000 145.225 C 201.468 146.023,198.742 148.804,197.552 151.800 C 196.610 154.176,196.600 154.349,196.600 169.000 L 196.600 183.800 197.766 186.325 C 199.157 189.338,201.285 191.306,204.156 192.234 C 206.695 193.054,206.946 193.306,207.775 195.871 C 209.161 200.155,211.899 202.455,217.200 203.786 C 223.005 205.243,224.953 206.064,226.299 207.622 C 229.413 211.226,235.844 214.717,241.600 215.929 C 246.319 216.923,249.879 218.236,250.742 219.302 C 252.849 221.903,253.690 222.723,254.955 223.404 C 256.398 224.181,259.200 229.297,259.200 231.156 C 259.200 233.583,256.507 236.609,253.500 237.561 C 250.003 238.668,247.627 239.990,245.335 242.102 L 243.620 243.683 240.190 242.442 C 238.303 241.759,235.521 240.919,234.009 240.575 C 231.973 240.112,231.097 239.702,230.636 238.998 C 228.843 236.263,225.570 234.897,216.220 232.983 C 210.714 231.856,209.079 231.364,207.733 230.425 L 206.067 229.263 205.333 230.088 C 204.930 230.542,203.790 231.294,202.800 231.759 C 198.301 233.871,195.915 236.236,194.556 239.928 C 194.177 240.958,193.537 242.172,193.133 242.626 C 192.244 243.627,192.211 244.145,192.997 244.797 C 193.325 245.070,193.970 246.577,194.430 248.146 C 197.889 259.944,204.552 264.936,220.690 267.820 C 223.740 268.365,224.749 268.743,226.499 269.996 C 233.263 274.840,248.848 274.576,256.288 269.492 C 257.460 268.691,259.445 268.137,265.120 267.027 C 273.017 265.483,274.809 264.806,276.697 262.656 C 277.731 261.479,279.600 257.486,279.600 256.455 C 279.600 255.751,281.515 254.488,283.319 254.002 C 287.300 252.930,289.737 250.050,290.768 245.200 C 291.266 242.857,291.444 220.041,290.986 217.303 C 290.140 212.252,287.854 208.358,284.830 206.815 C 283.190 205.979,280.400 203.106,280.400 202.255 C 280.400 200.267,275.440 196.546,270.738 195.007 C 268.810 194.377,267.594 193.729,267.200 193.123 C 264.135 188.408,258.575 185.665,247.000 183.159 C 242.192 182.119,241.352 181.740,240.388 180.181 C 239.132 178.149,236.921 176.410,233.765 174.971 C 228.502 172.573,227.577 169.779,230.131 163.994 L 231.057 161.895 234.368 160.939 C 237.388 160.067,240.875 158.567,243.045 157.206 C 243.789 156.740,244.054 156.799,245.245 157.693 C 247.027 159.031,250.071 160.521,252.800 161.390 C 254.010 161.776,256.620 162.866,258.600 163.813 C 264.100 166.442,267.177 166.968,275.088 166.626 C 289.050 166.023,291.200 163.778,291.200 149.800 C 291.200 136.234,289.028 133.999,275.538 133.687 C 267.314 133.497,267.066 133.378,265.876 129.046 C 264.742 124.919,262.861 123.017,258.741 121.829 C 255.945 121.023,232.280 121.092,229.044 121.915 M258.120 128.468 C 259.161 129.339,260.298 130.827,260.913 132.125 C 263.721 138.057,266.008 139.262,274.938 139.513 L 281.800 139.706 283.700 141.596 L 285.600 143.486 285.600 149.973 L 285.600 156.459 283.626 158.530 L 281.652 160.600 275.268 160.727 L 268.884 160.854 266.370 159.585 C 264.625 158.704,262.808 157.243,260.428 154.806 C 256.668 150.955,256.924 151.091,251.800 150.231 C 244.488 149.003,241.020 149.079,232.099 150.659 C 226.401 151.668,221.557 163.988,223.641 172.166 C 226.036 181.566,230.835 185.937,241.486 188.420 C 245.954 189.462,251.878 192.282,254.276 194.510 C 257.379 197.393,262.926 200.069,267.600 200.939 C 269.441 201.282,273.378 204.403,274.360 206.299 C 275.749 208.980,277.147 210.517,279.885 212.375 C 281.554 213.508,283.147 215.022,284.086 216.368 L 285.600 218.537 285.600 231.225 L 285.600 243.913 283.754 245.967 C 282.675 247.167,281.027 248.437,279.789 249.022 C 277.353 250.175,275.045 252.544,273.953 255.012 C 273.537 255.953,272.241 257.596,271.074 258.663 L 268.951 260.603 260.175 261.331 C 246.253 262.487,237.458 262.621,227.582 261.827 L 219.000 261.138 215.625 259.512 C 211.405 257.480,205.171 251.520,202.425 246.893 L 200.701 243.986 201.768 242.446 C 202.356 241.598,203.567 240.317,204.460 239.600 L 206.085 238.294 212.342 238.789 C 219.549 239.358,221.533 240.135,224.295 243.470 C 229.688 249.982,229.998 250.146,238.210 250.828 C 244.272 251.332,245.157 251.241,252.322 249.376 C 258.586 247.746,262.538 243.134,265.572 233.913 L 266.456 231.226 265.417 227.817 C 261.581 215.241,259.297 213.073,247.915 211.206 C 245.338 210.784,242.728 210.130,242.115 209.755 C 238.913 207.793,237.819 206.882,236.677 205.221 C 233.811 201.054,232.202 200.194,225.353 199.168 C 222.299 198.711,219.417 198.263,218.948 198.173 C 217.584 197.910,214.076 194.487,213.244 192.607 C 212.277 190.421,209.609 187.736,207.458 186.785 C 205.755 186.031,204.395 184.773,202.853 182.522 L 201.976 181.243 202.635 175.722 C 203.426 169.100,203.424 168.067,202.608 161.497 C 202.133 157.669,202.086 156.186,202.421 155.562 C 203.258 153.997,205.744 151.543,207.291 150.754 C 209.567 149.592,211.935 147.298,212.997 145.225 C 214.280 142.721,216.927 140.257,219.859 138.837 C 222.844 137.391,225.007 135.269,226.217 132.600 C 226.716 131.500,227.869 129.880,228.780 129.000 L 230.437 127.400 239.118 127.200 C 243.893 127.090,249.727 127.000,252.082 127.000 L 256.363 127.000 258.120 128.468 M161.862 131.864 C 152.023 132.588,149.588 133.883,147.316 139.600 C 146.645 141.288,146.595 144.223,146.521 186.600 L 146.443 231.800 145.215 232.900 L 143.987 234.000 137.409 234.000 C 133.152 234.000,128.609 233.715,124.536 233.192 C 117.849 232.333,116.386 232.394,108.654 233.854 C 97.528 235.955,95.604 245.959,104.336 256.311 C 105.686 257.912,107.054 259.730,107.375 260.352 C 108.896 263.293,111.949 265.017,119.242 267.054 C 123.626 268.278,124.958 268.832,126.572 270.104 C 132.507 274.779,143.736 274.771,149.944 270.086 C 151.615 268.825,152.896 268.270,155.744 267.574 C 162.110 266.018,165.814 263.935,167.644 260.885 C 168.776 259.000,171.102 256.526,172.408 255.820 C 179.420 252.028,179.988 246.840,179.995 186.471 L 180.000 143.141 178.970 140.071 C 176.515 132.751,172.962 131.047,161.862 131.864 M169.287 139.646 C 173.100 141.687,173.273 143.400,173.158 178.000 C 173.116 190.870,173.132 210.765,173.194 222.211 C 173.306 242.797,173.298 243.040,172.451 244.700 C 171.140 247.269,169.294 249.140,166.835 250.391 C 164.515 251.571,162.611 253.317,161.340 255.430 C 160.690 256.511,159.277 257.889,157.151 259.517 C 156.794 259.790,153.734 260.576,150.351 261.263 C 140.843 263.195,133.877 263.041,124.846 260.699 C 116.562 258.551,115.733 257.941,113.984 252.705 C 112.729 248.948,111.618 246.944,109.668 244.922 L 108.435 243.644 110.518 242.868 C 118.361 239.945,118.346 239.947,132.000 239.711 C 146.068 239.467,146.573 239.369,149.480 236.336 C 152.159 233.540,152.000 236.590,152.000 187.902 C 152.000 138.807,151.728 143.501,154.760 140.261 L 156.200 138.722 162.400 139.000 C 165.809 139.153,168.909 139.444,169.287 139.646 M392.240 288.038 C 391.867 290.372,389.930 292.252,387.576 292.563 C 381.148 293.412,380.891 293.558,386.000 293.455 C 392.730 293.320,392.998 293.136,393.275 288.430 C 393.411 286.137,392.594 285.827,392.240 288.038 M11.381 292.779 C 11.903 293.356,12.618 293.600,13.787 293.600 C 15.167 293.600,15.599 293.802,16.327 294.787 C 17.973 297.013,18.800 297.109,18.800 295.073 L 18.800 293.317 15.851 293.068 C 14.229 292.931,12.392 292.625,11.770 292.389 C 10.647 291.962,10.644 291.965,11.381 292.779 M12.552 298.197 C 12.589 299.413,12.768 299.808,13.308 299.856 C 13.760 299.896,13.804 299.852,13.430 299.734 C 13.103 299.631,12.770 298.900,12.675 298.075 L 12.505 296.600 12.552 298.197 M380.940 300.000 C 380.940 301.870,381.009 302.635,381.093 301.700 C 381.177 300.765,381.177 299.235,381.093 298.300 C 381.009 297.365,380.940 298.130,380.940 300.000 M18.909 300.400 C 18.909 301.390,18.987 301.795,19.082 301.300 C 19.178 300.805,19.178 299.995,19.082 299.500 C 18.987 299.005,18.909 299.410,18.909 300.400 M380.122 308.202 C 379.298 315.133,377.499 317.062,371.531 317.414 C 368.375 317.600,368.308 317.646,373.400 316.130 C 376.916 315.083,379.694 310.906,379.567 306.858 C 379.547 306.223,379.311 306.717,378.977 308.096 C 377.769 313.081,376.240 314.731,371.488 316.182 C 366.048 317.843,368.878 318.820,375.464 317.555 C 379.253 316.827,380.126 315.259,380.619 308.300 C 380.971 303.328,380.708 303.276,380.122 308.202 M368.109 323.600 C 368.109 324.590,368.187 324.995,368.282 324.500 C 368.378 324.005,368.378 323.195,368.282 322.700 C 368.187 322.205,368.109 322.610,368.109 323.600 M31.250 324.460 C 31.223 324.824,30.615 325.468,29.900 325.893 C 29.185 326.318,27.970 327.429,27.200 328.363 C 26.430 329.297,24.792 331.083,23.560 332.331 C 21.033 334.890,20.443 335.771,19.389 338.555 C 18.965 339.676,17.804 341.383,16.670 342.555 C 7.800 351.717,7.966 364.846,16.976 366.820 C 20.817 367.661,31.772 363.154,35.058 359.380 C 36.126 358.154,38.097 356.031,39.439 354.662 C 41.626 352.430,43.600 348.883,43.600 347.185 C 43.600 346.954,46.166 346.800,50.000 346.800 L 56.400 346.800 56.400 345.258 L 56.400 343.716 51.500 343.496 C 46.380 343.266,44.668 342.876,44.274 341.848 C 44.087 341.361,44.301 341.395,45.319 342.016 C 46.024 342.446,47.140 342.794,47.800 342.790 C 48.990 342.782,48.986 342.776,47.400 342.055 C 45.853 341.351,45.145 340.445,44.582 338.450 C 44.388 337.760,44.447 337.582,44.800 337.800 C 45.154 338.019,45.207 337.852,44.995 337.184 C 44.835 336.680,44.663 335.110,44.613 333.695 C 44.514 330.929,44.162 330.417,42.350 330.406 C 41.773 330.403,40.710 330.282,39.988 330.138 C 38.957 329.931,38.746 329.989,39.003 330.406 C 39.245 330.796,39.147 330.865,38.633 330.668 C 38.249 330.521,37.614 330.400,37.223 330.400 C 36.832 330.400,35.857 329.955,35.056 329.412 C 34.255 328.869,33.600 328.465,33.600 328.515 C 33.600 328.565,33.778 329.224,33.995 329.981 C 34.511 331.783,33.885 332.737,30.961 334.608 C 26.131 337.697,22.298 342.169,21.570 345.564 C 21.323 346.715,20.684 348.125,20.138 348.722 C 19.154 349.798,19.153 349.798,19.645 348.800 C 19.916 348.250,20.376 346.665,20.667 345.279 C 22.005 338.909,26.264 333.802,31.726 332.019 C 33.139 331.558,33.206 331.469,32.626 330.829 C 32.282 330.448,31.987 329.521,31.970 328.769 C 31.935 327.159,31.323 323.497,31.250 324.460 M367.646 326.811 C 367.531 329.319,365.377 330.637,360.725 331.048 C 357.606 331.323,356.404 331.966,356.394 333.362 C 356.389 334.066,356.319 334.104,355.956 333.600 C 355.597 333.101,355.565 333.123,355.762 333.733 C 355.893 334.136,356.000 335.261,356.000 336.233 C 356.000 337.878,356.048 337.959,356.700 337.399 C 357.085 337.069,358.161 336.151,359.091 335.361 C 360.021 334.570,361.161 333.310,361.624 332.561 C 362.103 331.786,362.792 331.200,363.225 331.200 C 365.985 331.200,368.452 328.709,367.876 326.503 C 367.752 326.028,367.678 326.127,367.646 326.811 M32.673 339.084 C 36.324 341.477,36.602 343.636,33.671 346.823 L 31.342 349.355 30.035 348.425 C 28.638 347.430,26.400 344.588,26.400 343.808 C 26.400 343.224,30.724 338.400,31.248 338.400 C 31.457 338.400,32.098 338.708,32.673 339.084 M355.646 339.520 C 355.529 341.857,353.560 343.600,351.040 343.600 C 350.502 343.600,349.694 344.280,348.799 345.483 C 348.030 346.519,346.593 347.981,345.607 348.731 C 344.226 349.781,343.711 350.497,343.369 351.848 C 342.789 354.130,341.877 355.088,339.850 355.543 C 338.637 355.816,338.475 355.926,339.240 355.957 C 341.008 356.030,342.792 355.177,343.422 353.957 C 343.751 353.320,344.293 352.800,344.626 352.800 C 347.468 352.800,352.800 347.466,352.800 344.624 C 352.800 344.292,353.325 343.749,353.967 343.417 C 355.191 342.784,356.211 340.586,355.876 339.303 C 355.740 338.781,355.681 338.837,355.646 339.520 M391.181 343.185 C 388.834 345.883,387.535 346.510,382.511 347.369 C 376.671 348.368,373.332 350.407,371.356 354.182 C 370.129 356.525,370.180 356.493,365.250 357.985 C 361.172 359.220,359.220 361.172,357.985 365.250 C 356.447 370.333,356.535 370.197,354.180 371.173 C 351.047 372.472,348.220 375.183,346.558 378.484 L 345.166 381.248 345.795 384.893 C 346.516 389.075,347.441 391.386,348.946 392.770 C 349.912 393.659,350.000 394.000,350.000 396.870 L 350.000 400.000 362.400 400.000 L 374.800 400.000 374.800 390.857 L 374.800 381.714 378.500 378.107 C 388.549 368.310,390.784 365.737,392.416 362.089 L 393.707 359.200 396.854 359.200 L 400.000 359.200 400.000 350.000 L 400.000 340.800 396.627 340.800 L 393.255 340.800 391.181 343.185 M29.873 342.724 L 28.797 343.847 30.007 345.007 L 31.218 346.167 32.490 344.895 L 33.761 343.623 32.811 342.612 C 31.603 341.326,31.197 341.342,29.873 342.724 M41.236 344.593 C 39.223 350.321,35.265 354.196,29.998 355.594 C 29.009 355.856,26.851 356.812,25.201 357.718 L 22.203 359.365 24.522 356.740 C 26.757 354.210,28.488 353.200,30.593 353.200 C 32.305 353.200,37.812 348.054,40.441 343.997 C 42.055 341.506,42.266 341.664,41.236 344.593 M50.305 343.083 C 50.802 343.179,51.522 343.175,51.905 343.075 C 52.287 342.975,51.880 342.896,51.000 342.901 C 50.120 342.905,49.807 342.987,50.305 343.083 M343.452 343.587 C 343.404 343.704,343.462 344.493,343.582 345.340 L 343.800 346.880 344.903 346.009 C 346.944 344.396,347.017 343.705,345.162 343.528 C 344.270 343.443,343.501 343.469,343.452 343.587 M56.501 349.800 C 56.505 350.680,56.587 350.993,56.683 350.495 C 56.779 349.998,56.775 349.278,56.675 348.895 C 56.575 348.513,56.496 348.920,56.501 349.800 M16.388 354.423 C 15.916 355.349,15.656 356.422,15.782 356.923 C 16.003 357.797,16.003 357.797,15.566 356.955 C 15.160 356.173,16.337 352.800,17.016 352.800 C 17.126 352.800,16.844 353.530,16.388 354.423 M382.800 353.218 C 383.238 353.515,383.076 353.552,382.200 353.356 C 380.729 353.027,380.410 352.798,381.433 352.806 C 381.855 352.809,382.470 352.995,382.800 353.218 M60.446 355.637 C 60.965 355.965,64.329 356.172,63.967 355.853 C 63.875 355.772,62.921 355.612,61.846 355.496 C 60.651 355.368,60.107 355.422,60.446 355.637 M331.559 355.847 C 331.134 355.972,330.978 356.349,331.096 356.966 C 331.898 361.165,329.931 366.692,327.357 367.468 C 326.423 367.750,326.136 367.951,326.640 367.969 C 329.129 368.060,331.200 365.929,331.200 363.278 C 331.200 362.890,331.710 362.271,332.334 361.903 C 333.356 361.299,335.422 359.202,337.296 356.867 C 337.986 356.008,337.978 356.000,336.496 355.996 C 335.673 355.993,334.370 355.916,333.600 355.824 C 332.830 355.733,331.912 355.743,331.559 355.847 M68.644 356.471 C 68.748 356.639,68.420 356.853,67.916 356.947 C 60.887 358.251,58.760 359.083,57.333 361.089 C 56.729 361.937,55.464 363.111,54.522 363.697 C 53.580 364.284,52.224 365.627,51.508 366.682 C 50.793 367.737,48.765 370.040,47.002 371.800 C 45.239 373.560,44.301 374.553,44.917 374.007 L 46.038 373.013 44.990 375.407 C 44.413 376.723,43.160 378.610,42.205 379.600 C 39.653 382.247,37.600 389.747,37.600 396.426 L 37.600 400.000 45.400 400.000 L 53.200 400.000 53.200 396.811 L 53.200 393.622 55.500 392.982 C 62.141 391.131,65.002 389.611,67.130 386.800 C 69.575 383.569,71.827 381.399,73.532 380.631 C 74.452 380.216,75.404 379.636,75.648 379.343 C 75.891 379.049,76.278 378.925,76.507 379.066 C 76.749 379.216,76.804 379.130,76.638 378.862 C 76.481 378.608,76.520 378.400,76.724 378.400 C 77.140 378.400,78.137 375.014,78.777 371.423 C 79.010 370.116,79.426 368.904,79.701 368.729 C 80.074 368.492,80.049 368.412,79.600 368.412 C 77.837 368.410,77.249 368.929,76.379 371.256 C 75.077 374.738,72.668 377.207,68.689 379.138 C 66.137 380.377,64.957 381.248,63.424 383.025 C 58.322 388.939,53.278 389.736,49.485 385.228 C 47.278 382.605,47.292 381.643,49.598 377.328 C 55.223 366.799,60.657 361.411,67.200 359.875 C 68.155 359.650,68.146 359.679,67.000 360.511 C 65.194 361.822,61.600 365.265,61.600 365.685 C 61.600 365.887,61.172 366.626,60.648 367.327 C 60.124 368.028,59.567 369.498,59.409 370.600 C 59.088 372.833,58.530 374.128,58.025 373.816 C 57.621 373.566,56.709 374.576,57.041 374.907 C 57.169 375.036,56.763 375.411,56.137 375.741 C 55.512 376.070,53.864 377.495,52.475 378.906 L 49.950 381.472 51.286 383.225 C 52.022 384.188,53.424 385.587,54.402 386.334 L 56.181 387.691 60.441 383.284 C 64.481 379.105,64.817 378.853,66.937 378.413 C 69.937 377.790,74.074 373.105,74.562 369.775 C 74.684 368.947,75.247 368.489,76.400 368.282 C 76.950 368.183,76.543 368.176,75.495 368.266 C 73.093 368.471,72.484 368.708,72.217 369.537 C 72.100 369.902,71.312 371.001,70.467 371.979 L 68.930 373.758 67.083 373.053 C 65.228 372.344,62.800 370.055,62.800 369.013 C 62.800 368.368,65.590 366.009,67.500 365.040 C 68.215 364.676,68.800 364.204,68.800 363.990 C 68.800 363.775,68.999 363.600,69.243 363.600 C 69.505 363.600,69.571 363.885,69.404 364.300 C 69.249 364.685,69.084 365.226,69.038 365.502 C 68.991 365.779,68.340 366.637,67.591 367.409 L 66.229 368.814 67.460 370.045 L 68.691 371.276 69.608 369.938 C 70.874 368.088,71.557 367.607,72.976 367.559 L 74.200 367.518 72.856 367.201 C 70.451 366.632,70.214 366.092,70.067 360.814 C 69.946 356.475,69.869 356.060,69.195 356.110 C 68.788 356.141,68.540 356.303,68.644 356.471 M386.822 357.742 C 386.625 358.260,386.075 361.005,385.600 363.842 L 384.737 369.000 378.720 374.780 C 374.262 379.062,372.503 381.031,371.929 382.380 C 371.503 383.381,370.691 384.875,370.123 385.700 L 369.091 387.200 363.089 387.200 L 357.087 387.200 359.005 385.512 C 360.059 384.584,361.545 382.851,362.307 381.660 C 363.151 380.340,364.141 379.326,364.846 379.060 C 365.480 378.821,366.000 378.484,366.000 378.312 C 366.000 378.141,366.618 378.000,367.374 378.000 C 370.252 378.000,378.000 370.252,378.000 367.373 C 378.000 366.618,378.180 366.000,378.400 366.000 C 378.620 366.000,378.800 365.721,378.800 365.381 C 378.800 364.919,386.571 356.888,387.090 356.813 C 387.140 356.806,387.019 357.224,386.822 357.742 M330.493 358.800 C 330.493 359.570,330.575 359.885,330.676 359.500 C 330.776 359.115,330.776 358.485,330.676 358.100 C 330.575 357.715,330.493 358.030,330.493 358.800 M69.487 362.295 C 69.395 362.903,69.317 362.500,69.314 361.400 C 69.311 360.300,69.387 359.803,69.482 360.295 C 69.577 360.786,69.579 361.686,69.487 362.295 M373.200 368.698 C 373.200 369.078,369.102 373.200,368.724 373.200 C 368.557 373.200,368.138 372.653,367.793 371.986 C 367.178 370.797,367.182 370.782,367.980 371.281 C 369.216 372.052,372.052 369.216,371.281 367.980 C 370.782 367.182,370.797 367.178,371.986 367.793 C 372.653 368.138,373.200 368.545,373.200 368.698 M322.700 368.282 C 323.195 368.378,324.005 368.378,324.500 368.282 C 324.995 368.187,324.590 368.109,323.600 368.109 C 322.610 368.109,322.205 368.187,322.700 368.282 M316.790 369.426 C 316.576 369.990,316.398 370.755,316.396 371.126 C 316.377 374.354,313.092 377.646,308.758 378.781 C 307.131 379.207,306.276 379.566,306.858 379.578 C 308.972 379.622,312.977 378.070,314.252 376.712 C 315.652 375.221,315.828 374.832,316.780 371.100 C 317.484 368.342,317.489 367.588,316.790 369.426 M317.844 369.253 C 317.736 369.774,317.538 371.190,317.404 372.400 C 316.814 377.702,314.896 379.333,308.250 380.189 C 303.592 380.788,305.287 380.966,310.465 380.421 C 316.364 379.800,317.428 378.645,317.963 372.283 C 318.269 368.638,318.221 367.421,317.844 369.253 M297.062 380.894 C 296.808 381.056,298.130 381.166,300.000 381.139 C 303.517 381.089,303.379 380.916,299.662 380.716 C 298.485 380.652,297.315 380.732,297.062 380.894 M106.694 383.559 C 106.532 384.966,106.400 387.081,106.400 388.260 C 106.400 390.252,106.288 390.504,104.800 391.848 L 103.200 393.293 103.200 396.647 L 103.200 400.000 106.200 400.000 L 109.200 400.000 109.200 396.800 L 109.200 393.600 112.100 393.565 C 117.871 393.495,119.542 392.992,114.800 392.751 C 108.269 392.420,107.614 391.773,107.237 385.283 L 106.989 381.000 106.694 383.559 M292.970 385.311 C 292.432 390.702,291.900 391.565,288.628 392.354 C 286.044 392.977,286.275 393.584,289.100 393.594 L 290.800 393.600 290.800 396.800 L 290.800 400.000 293.800 400.000 L 296.800 400.000 296.791 396.500 C 296.782 393.218,296.691 392.838,295.316 390.400 C 294.045 388.146,293.820 387.348,293.625 384.400 L 293.400 381.000 292.970 385.311 M108.981 388.400 C 109.124 388.950,109.291 389.655,109.353 389.967 C 109.416 390.278,109.722 390.584,110.033 390.647 C 110.345 390.709,111.050 390.876,111.600 391.019 C 112.570 391.270,112.566 391.254,111.457 390.482 C 110.828 390.045,109.955 389.172,109.518 388.543 C 108.746 387.434,108.730 387.430,108.981 388.400 " stroke="none" fill="#d46c6c" fill-rule="evenodd"></path><path id="path2" d="M131.600 3.173 L 131.600 6.345 120.100 6.485 C 105.509 6.663,106.770 5.984,106.495 13.808 L 106.313 19.016 98.256 18.870 C 89.229 18.707,83.454 19.174,82.482 20.146 C 82.010 20.618,81.781 22.057,81.569 25.888 C 81.231 31.958,82.232 31.026,75.713 31.339 C 68.725 31.674,69.075 31.329,68.867 38.100 C 68.673 44.429,69.145 43.986,62.580 43.994 C 57.048 44.000,56.400 44.198,56.400 45.880 C 56.400 47.353,52.711 46.747,50.949 44.985 L 50.000 44.036 50.000 47.018 L 50.000 50.000 47.018 50.000 L 44.036 50.000 44.985 50.949 C 46.747 52.711,47.353 56.400,45.880 56.400 C 44.198 56.400,44.000 57.048,43.994 62.580 C 43.986 69.145,44.429 68.673,38.100 68.867 C 31.348 69.074,31.686 68.737,31.346 75.608 C 31.033 81.931,31.337 81.575,26.200 81.634 C 19.326 81.713,19.325 81.714,18.942 90.146 C 18.710 95.237,18.589 96.000,18.009 96.000 C 13.753 96.000,9.970 99.370,8.750 104.246 C 8.481 105.321,8.013 106.385,7.709 106.611 C 6.675 107.379,6.419 110.189,6.410 120.900 L 6.400 131.600 3.200 131.600 L 0.000 131.600 0.000 200.000 L 0.000 268.400 3.168 268.400 L 6.337 268.400 6.468 280.159 C 6.608 292.601,6.771 293.600,8.662 293.600 C 9.798 293.600,8.859 297.588,7.323 299.285 C 6.707 299.965,6.815 300.000,9.538 300.000 L 12.400 300.000 12.400 303.075 L 12.400 306.150 13.500 305.129 C 14.600 304.109,16.719 303.200,17.998 303.200 C 18.594 303.200,18.710 303.927,18.946 309.162 C 19.359 318.317,19.426 318.394,27.100 318.398 L 31.200 318.400 31.200 319.585 C 31.200 320.643,31.020 320.815,29.500 321.203 C 24.413 322.502,22.445 324.427,21.264 329.256 C 20.486 332.440,19.031 334.209,16.400 335.168 C 11.028 337.127,8.640 342.362,7.610 354.437 C 7.374 357.207,7.013 360.058,6.808 360.771 C 6.502 361.839,6.531 361.989,6.974 361.621 C 7.966 360.798,9.126 357.434,9.810 353.400 C 11.080 345.908,12.529 342.617,15.872 339.633 C 18.785 337.032,25.617 330.220,27.200 328.337 C 27.970 327.421,29.136 326.345,29.792 325.945 C 30.447 325.544,31.099 324.898,31.241 324.509 C 31.382 324.119,31.632 325.240,31.795 327.000 C 31.965 328.829,32.341 330.483,32.673 330.860 C 33.195 331.455,33.100 331.570,31.726 332.019 C 26.264 333.802,22.005 338.909,20.667 345.279 C 20.376 346.665,19.916 348.250,19.645 348.800 C 19.153 349.798,19.154 349.798,20.138 348.722 C 20.684 348.125,21.323 346.715,21.570 345.564 C 22.298 342.169,26.131 337.697,30.961 334.608 C 33.885 332.737,34.511 331.783,33.995 329.981 C 33.778 329.224,33.600 328.565,33.600 328.515 C 33.600 328.465,34.255 328.869,35.056 329.412 C 35.857 329.955,36.832 330.400,37.223 330.400 C 37.614 330.400,38.249 330.521,38.633 330.668 C 39.147 330.865,39.245 330.796,39.003 330.406 C 38.746 329.989,38.957 329.931,39.988 330.138 C 40.710 330.282,41.772 330.403,42.350 330.406 C 44.162 330.417,44.514 330.929,44.613 333.695 C 44.663 335.110,44.835 336.680,44.995 337.184 C 45.207 337.852,45.154 338.019,44.800 337.800 C 44.447 337.582,44.388 337.760,44.582 338.450 C 45.145 340.445,45.853 341.351,47.400 342.055 C 48.986 342.776,48.990 342.782,47.800 342.790 C 47.140 342.794,46.024 342.446,45.319 342.016 C 44.301 341.395,44.087 341.361,44.274 341.848 C 44.668 342.876,46.380 343.266,51.500 343.496 L 56.400 343.716 56.403 345.358 C 56.405 346.261,56.490 347.990,56.591 349.200 C 56.692 350.410,56.677 351.085,56.558 350.700 C 56.364 350.073,55.701 350.000,50.221 350.000 L 44.101 350.000 40.350 353.851 C 36.314 357.996,33.929 360.336,28.481 365.497 L 25.000 368.794 28.600 367.649 C 30.580 367.019,33.280 366.189,34.600 365.806 C 38.004 364.818,40.026 362.661,41.022 358.955 C 41.430 357.440,42.222 355.532,42.782 354.715 L 43.800 353.230 50.100 353.215 L 56.400 353.200 56.400 354.120 C 56.400 355.439,57.140 356.000,58.880 356.000 C 62.097 356.000,59.940 357.025,54.660 358.004 C 49.012 359.052,45.616 362.391,45.596 366.915 C 45.586 369.269,43.811 371.768,41.604 372.536 C 35.563 374.639,34.103 378.496,33.346 394.351 L 33.077 400.000 35.338 400.000 L 37.600 400.000 37.600 390.580 C 37.600 383.215,37.724 380.920,38.169 380.059 C 38.750 378.936,42.132 375.601,42.691 375.599 C 43.278 375.598,50.211 368.595,51.481 366.721 C 52.181 365.687,53.529 364.339,54.477 363.725 C 55.425 363.110,56.357 362.336,56.549 362.004 C 56.740 361.672,58.121 360.205,59.617 358.744 L 62.338 356.088 61.105 355.841 C 59.012 355.422,60.066 355.274,62.600 355.631 C 63.920 355.816,66.111 356.001,67.468 356.041 L 69.936 356.114 70.068 360.844 C 70.214 366.089,70.453 366.633,72.856 367.201 L 74.200 367.518 72.976 367.559 C 71.557 367.607,70.874 368.088,69.608 369.938 L 68.691 371.276 67.460 370.045 L 66.229 368.814 67.591 367.409 C 68.340 366.637,68.991 365.779,69.038 365.502 C 69.084 365.226,69.249 364.685,69.404 364.300 C 69.571 363.885,69.505 363.600,69.243 363.600 C 68.999 363.600,68.800 363.775,68.800 363.990 C 68.800 364.204,68.215 364.676,67.500 365.040 C 65.590 366.009,62.800 368.368,62.800 369.013 C 62.800 370.055,65.228 372.344,67.083 373.053 L 68.930 373.758 70.467 371.979 C 71.312 371.001,72.100 369.902,72.217 369.537 C 72.484 368.708,73.093 368.471,75.495 368.266 C 76.543 368.176,76.950 368.183,76.400 368.282 C 75.247 368.489,74.684 368.947,74.562 369.775 C 74.074 373.105,69.937 377.790,66.937 378.413 C 64.817 378.853,64.481 379.105,60.441 383.284 L 56.181 387.691 54.402 386.334 C 53.424 385.587,52.022 384.188,51.286 383.225 L 49.950 381.472 52.475 378.906 C 53.864 377.495,55.501 376.076,56.113 375.753 C 56.725 375.430,57.132 375.014,57.017 374.828 C 56.767 374.424,57.774 373.507,58.104 373.838 C 58.493 374.227,59.106 372.705,59.409 370.600 C 59.567 369.498,60.124 368.028,60.648 367.327 C 61.172 366.626,61.600 365.887,61.600 365.685 C 61.600 365.265,65.194 361.822,67.000 360.511 C 68.146 359.679,68.155 359.650,67.200 359.875 C 60.657 361.411,55.223 366.799,49.598 377.328 C 47.292 381.643,47.278 382.605,49.485 385.228 C 53.278 389.736,58.322 388.939,63.424 383.025 C 64.957 381.248,66.137 380.377,68.689 379.138 C 72.668 377.207,75.077 374.738,76.379 371.256 C 77.249 368.929,77.837 368.410,79.600 368.412 C 80.042 368.412,80.070 368.495,79.707 368.725 C 79.436 368.898,78.935 370.509,78.594 372.305 C 77.481 378.171,74.406 383.757,71.091 385.935 C 69.398 387.047,62.704 393.238,62.940 393.473 C 63.216 393.749,66.586 392.354,67.773 391.472 C 68.448 390.971,69.720 390.330,70.600 390.048 C 73.423 389.145,75.297 387.558,76.597 384.969 C 79.412 379.359,80.023 377.676,80.229 374.950 C 80.799 367.423,81.600 366.408,81.600 373.213 C 81.600 381.131,80.915 380.749,95.700 381.072 L 106.400 381.306 106.400 382.759 C 106.400 384.134,106.296 384.249,104.473 384.897 C 99.372 386.708,97.093 390.122,96.861 396.300 L 96.723 400.000 98.361 400.000 L 100.000 400.000 100.000 396.772 C 100.000 392.921,101.127 390.849,104.398 388.684 L 106.334 387.403 106.653 384.201 L 106.972 381.000 107.225 385.213 C 107.619 391.760,108.236 392.382,114.717 392.771 L 119.000 393.028 115.700 393.356 L 112.400 393.683 112.400 396.842 L 112.400 400.000 114.000 400.000 L 115.600 400.000 115.600 396.800 L 115.600 393.600 123.600 393.600 L 131.600 393.600 131.600 396.800 L 131.600 400.000 200.000 400.000 L 268.400 400.000 268.400 396.800 L 268.400 393.600 276.400 393.600 L 284.400 393.600 284.400 396.800 L 284.400 400.000 286.000 400.000 L 287.600 400.000 287.600 396.820 C 287.600 394.304,287.465 393.564,286.952 393.277 C 286.460 393.002,286.861 392.780,288.616 392.357 C 291.890 391.568,292.437 390.694,292.942 385.445 L 293.344 381.268 295.172 381.108 C 296.177 381.020,297.180 380.881,297.400 380.800 C 297.620 380.719,300.180 380.795,303.088 380.970 C 316.871 381.798,318.067 381.267,318.452 374.146 C 318.605 371.316,318.746 368.983,318.765 368.962 C 318.784 368.941,321.365 368.810,324.500 368.671 C 329.966 368.427,330.233 368.375,331.015 367.408 C 331.463 366.854,332.132 366.400,332.500 366.400 C 336.115 366.400,339.908 363.090,341.026 358.960 C 341.845 355.932,342.590 355.426,346.796 355.034 C 352.248 354.526,354.558 352.164,355.071 346.570 C 355.406 342.924,355.931 342.165,358.344 341.845 C 363.094 341.215,365.509 338.981,366.667 334.145 C 367.029 332.635,367.576 331.106,367.882 330.746 C 368.273 330.289,368.512 328.401,368.681 324.446 C 368.968 317.741,368.040 318.769,374.112 318.431 C 377.934 318.219,379.382 317.989,379.851 317.520 C 380.797 316.574,381.304 310.985,381.025 304.576 C 380.890 301.482,380.899 297.673,381.044 296.111 L 381.308 293.270 384.154 293.003 C 389.799 292.474,391.723 291.274,392.255 287.947 C 392.433 286.831,392.672 286.419,393.055 286.566 C 393.505 286.739,393.600 285.181,393.600 277.587 L 393.600 268.400 396.800 268.400 L 400.000 268.400 400.000 200.000 L 400.000 131.600 396.800 131.600 L 393.600 131.600 393.600 123.600 L 393.600 115.600 396.800 115.600 L 400.000 115.600 400.000 114.000 L 400.000 112.400 396.842 112.400 L 393.683 112.400 393.355 115.700 L 393.026 119.000 392.775 114.524 C 392.427 108.329,391.748 107.391,387.342 107.019 C 385.064 106.826,385.049 106.831,386.800 107.202 C 390.291 107.941,391.396 109.112,391.516 112.200 L 391.578 113.800 391.140 112.600 C 390.100 109.751,386.372 107.600,382.474 107.600 C 381.773 107.600,381.200 107.450,381.200 107.266 C 381.200 107.082,381.134 104.967,381.054 102.566 C 380.974 100.165,381.020 98.618,381.155 99.128 L 381.402 100.056 383.034 98.874 C 384.630 97.718,387.200 94.910,387.200 94.321 C 387.200 94.158,385.985 94.648,384.500 95.410 C 383.015 96.173,381.693 96.797,381.562 96.798 C 381.430 96.799,381.202 94.117,381.054 90.838 C 380.641 81.683,380.574 81.606,372.900 81.602 C 366.377 81.599,367.590 80.787,374.950 80.229 C 377.676 80.023,379.359 79.412,384.969 76.597 C 387.558 75.297,389.145 73.423,390.048 70.600 C 390.330 69.720,390.971 68.448,391.472 67.773 C 392.354 66.586,393.749 63.216,393.473 62.940 C 393.238 62.704,387.047 69.398,385.935 71.091 C 383.757 74.406,378.171 77.481,372.305 78.594 C 370.509 78.935,368.898 79.436,368.725 79.707 C 368.495 80.070,368.412 80.042,368.412 79.600 C 368.410 77.837,368.929 77.249,371.256 76.379 C 374.671 75.102,377.233 72.642,378.979 68.963 C 380.069 66.667,381.142 65.230,383.523 62.879 C 385.237 61.185,387.067 58.970,387.589 57.956 L 388.539 56.113 387.647 53.916 C 386.697 51.575,384.642 49.312,382.476 48.221 L 381.152 47.554 377.309 49.608 C 373.341 51.728,369.225 54.375,368.015 55.585 C 367.635 55.965,366.484 56.854,365.458 57.560 C 362.549 59.562,357.200 66.705,357.200 68.589 C 357.200 69.745,359.566 68.534,360.767 66.764 C 362.941 63.561,367.979 59.759,370.494 59.425 C 372.748 59.126,374.135 58.542,373.816 58.025 C 373.566 57.621,374.576 56.709,374.907 57.041 C 375.036 57.169,375.411 56.763,375.741 56.137 C 376.070 55.512,377.495 53.864,378.906 52.475 L 381.472 49.950 383.225 51.286 C 384.188 52.022,385.587 53.424,386.334 54.402 L 387.691 56.181 383.284 60.441 C 379.105 64.481,378.853 64.817,378.413 66.937 C 377.790 69.937,373.105 74.074,369.775 74.562 C 368.947 74.684,368.489 75.247,368.282 76.400 C 368.183 76.950,368.176 76.543,368.266 75.495 C 368.471 73.093,368.708 72.484,369.537 72.217 C 369.902 72.100,371.001 71.312,371.979 70.467 L 373.758 68.930 373.053 67.083 C 372.285 65.073,370.029 62.800,368.801 62.800 C 368.122 62.800,364.702 66.416,363.717 68.176 C 363.315 68.895,359.484 69.417,357.435 69.033 L 356.000 68.764 356.000 65.596 L 356.000 62.429 358.700 59.663 C 360.185 58.142,361.672 56.740,362.004 56.549 C 362.336 56.357,363.110 55.425,363.725 54.477 C 364.339 53.529,365.687 52.181,366.721 51.481 C 368.595 50.211,375.598 43.278,375.599 42.691 C 375.601 42.132,378.936 38.750,380.059 38.169 C 380.920 37.724,383.215 37.600,390.580 37.600 L 400.000 37.600 400.000 36.000 L 400.000 34.400 390.471 34.400 C 377.677 34.400,374.616 35.630,372.536 41.604 C 371.768 43.811,369.269 45.586,366.915 45.596 C 362.356 45.616,358.051 50.235,357.987 55.173 C 357.979 55.738,357.636 56.605,357.223 57.100 C 356.359 58.135,356.000 58.236,356.000 57.443 C 356.000 56.821,355.156 56.400,353.912 56.400 C 353.156 56.400,353.110 56.232,353.337 54.300 C 353.472 53.145,353.707 50.311,353.858 48.003 C 354.194 42.872,354.714 42.160,358.955 41.021 C 362.661 40.026,364.818 38.005,365.806 34.600 C 366.189 33.280,367.019 30.580,367.649 28.600 L 368.794 25.000 365.497 28.481 C 359.969 34.317,357.875 36.446,353.858 40.318 L 350.000 44.035 350.000 50.188 C 350.000 55.699,350.073 56.364,350.700 56.558 C 351.085 56.677,350.410 56.692,349.200 56.591 C 347.990 56.490,346.235 56.405,345.300 56.403 L 343.600 56.400 343.600 51.650 C 343.600 45.864,343.350 44.430,342.269 44.030 C 341.590 43.779,341.967 43.480,344.492 42.265 C 349.494 39.859,354.561 34.338,355.388 30.392 C 355.548 29.626,356.502 27.477,357.507 25.614 L 359.335 22.229 356.725 24.535 C 354.210 26.757,353.200 28.492,353.200 30.593 C 353.200 32.334,348.186 37.671,343.842 40.555 C 340.941 42.480,340.520 43.251,341.581 44.698 C 342.026 45.304,342.491 46.430,342.616 47.200 L 342.842 48.600 342.276 47.400 C 341.129 44.971,340.403 44.663,335.670 44.602 C 330.467 44.535,330.567 44.588,330.294 41.711 C 330.173 40.440,329.951 39.040,329.799 38.600 C 329.578 37.955,329.608 37.916,329.956 38.400 C 330.314 38.897,330.389 38.843,330.394 38.080 C 330.401 36.992,329.341 34.818,328.439 34.072 C 327.892 33.619,328.012 33.572,329.276 33.743 C 330.406 33.895,330.704 33.815,330.545 33.402 C 330.244 32.616,329.340 32.324,326.200 32.000 C 324.302 31.803,323.667 31.619,324.231 31.427 C 324.687 31.271,325.366 30.628,325.737 29.998 C 326.109 29.369,327.317 28.076,328.421 27.127 C 330.640 25.218,336.958 18.876,339.636 15.872 C 342.613 12.530,345.906 11.080,353.400 9.810 C 357.434 9.126,360.798 7.966,361.621 6.974 C 361.989 6.531,361.839 6.502,360.771 6.808 C 360.058 7.013,357.207 7.374,354.437 7.610 C 342.464 8.631,337.174 11.016,335.205 16.279 C 334.169 19.047,331.671 21.583,329.000 22.577 C 326.295 23.584,323.508 26.406,322.555 29.100 C 321.816 31.189,321.803 31.200,320.106 31.200 L 318.400 31.200 318.400 26.787 C 318.400 20.863,317.947 19.765,315.333 19.356 C 313.533 19.075,304.910 18.917,299.400 19.064 C 298.080 19.100,296.168 19.100,295.152 19.064 L 293.304 19.000 292.882 15.600 C 292.650 13.730,292.330 11.840,292.171 11.400 C 291.934 10.743,291.978 10.689,292.421 11.100 C 293.399 12.007,293.707 11.626,293.497 9.765 C 293.134 6.546,292.596 6.422,278.900 6.410 L 268.400 6.400 268.400 3.200 L 268.400 0.000 200.000 0.000 L 131.600 0.000 131.600 3.173 M48.766 6.567 C 48.675 6.659,46.373 7.194,43.652 7.757 C 35.998 9.340,34.305 10.755,33.144 16.539 C 32.621 19.140,32.311 19.395,29.200 19.781 C 22.178 20.652,20.655 22.148,19.814 29.000 C 19.406 32.318,19.172 32.615,16.539 33.144 C 10.844 34.287,9.340 36.033,7.832 43.250 C 7.309 45.752,6.746 48.322,6.582 48.959 L 6.284 50.119 8.042 48.902 C 10.234 47.384,11.166 46.338,12.586 43.800 C 13.904 41.443,15.687 39.465,17.517 38.330 C 18.933 37.452,21.284 33.242,22.601 29.223 C 23.571 26.266,26.280 23.562,29.223 22.614 C 33.780 21.145,37.109 19.276,38.347 17.491 C 39.882 15.279,41.350 13.958,43.800 12.587 C 46.920 10.840,51.001 6.400,49.486 6.400 C 49.182 6.400,48.858 6.475,48.766 6.567 M62.400 18.861 L 62.400 31.350 63.599 30.201 C 67.422 26.538,68.126 15.024,64.890 9.072 C 62.482 4.641,62.400 4.962,62.400 18.861 M115.800 7.226 C 109.353 7.865,107.869 9.357,107.175 15.899 L 106.845 19.000 107.018 15.297 C 107.344 8.331,109.002 6.878,116.600 6.902 C 118.883 6.909,118.844 6.924,115.800 7.226 M113.200 9.067 C 111.283 9.890,109.707 11.465,109.169 13.093 C 108.922 13.841,108.638 14.371,108.537 14.270 C 107.413 13.146,112.071 8.358,114.200 8.448 C 114.420 8.458,113.970 8.736,113.200 9.067 M354.300 16.027 C 353.475 16.463,352.800 16.908,352.800 17.018 C 352.800 17.127,353.530 16.844,354.423 16.388 C 355.401 15.889,356.394 15.658,356.923 15.806 C 357.615 16.000,357.673 15.964,357.200 15.632 C 356.385 15.062,356.040 15.109,354.300 16.027 M49.203 17.100 L 43.805 17.225 42.203 18.772 C 40.033 20.867,36.842 22.828,33.010 24.422 C 28.510 26.295,26.798 28.019,24.107 33.389 C 21.734 38.124,20.138 40.690,18.378 42.600 C 16.774 44.341,16.386 55.954,17.897 57.013 C 18.949 57.750,20.204 57.064,21.300 55.155 C 21.931 54.055,24.144 53.058,27.000 52.587 L 28.600 52.323 27.137 51.571 C 25.164 50.557,23.316 48.229,22.545 45.787 L 21.909 43.773 25.140 37.320 C 28.563 30.484,30.458 28.029,32.361 27.965 C 36.202 27.836,40.277 27.035,43.222 25.829 C 43.596 25.676,44.532 26.072,45.568 26.823 C 46.516 27.509,47.146 27.830,46.969 27.536 C 46.176 26.219,48.188 28.314,49.093 29.748 L 50.078 31.307 46.283 35.154 C 41.726 39.772,40.616 41.441,43.284 39.662 C 44.228 39.033,45.780 38.006,46.734 37.381 C 49.824 35.355,51.418 32.607,51.962 28.364 C 52.500 24.169,53.494 21.891,55.095 21.182 C 57.740 20.012,58.023 16.625,55.454 16.887 C 54.984 16.935,52.171 17.031,49.203 17.100 M348.400 19.996 C 348.070 20.206,346.810 20.585,345.600 20.836 C 340.093 21.981,335.073 26.463,333.619 31.535 C 333.131 33.235,333.331 33.130,334.556 31.038 C 337.110 26.681,342.205 22.291,345.538 21.576 C 346.667 21.334,347.998 20.796,348.495 20.381 C 349.456 19.580,349.401 19.356,348.400 19.996 M85.404 21.669 C 84.796 22.146,83.966 23.271,83.559 24.169 C 83.151 25.066,82.814 25.566,82.809 25.280 C 82.785 23.899,85.077 20.836,86.154 20.809 C 86.349 20.804,86.011 21.191,85.404 21.669 M341.804 29.196 C 339.628 31.405,339.635 31.902,341.875 34.142 C 343.719 35.985,343.730 35.984,346.057 33.657 C 348.566 31.148,348.365 30.039,345.049 28.082 L 343.691 27.280 341.804 29.196 M345.302 32.886 L 343.616 34.572 342.208 33.208 C 340.458 31.512,340.461 31.381,342.288 29.510 L 343.775 27.987 345.382 29.593 L 346.988 31.200 345.302 32.886 M42.600 30.067 C 41.940 30.243,40.590 30.598,39.600 30.856 C 37.948 31.286,37.882 31.349,38.800 31.622 C 40.648 32.173,44.006 32.050,44.246 31.424 C 44.659 30.347,43.900 29.720,42.600 30.067 M30.570 36.497 C 30.186 37.654,29.355 39.757,28.721 41.171 C 27.697 43.458,27.638 43.800,28.184 44.272 C 28.521 44.564,28.628 44.597,28.422 44.345 C 28.077 43.923,30.878 37.600,31.410 37.600 C 31.521 37.600,31.968 38.185,32.404 38.900 L 33.197 40.200 33.199 38.887 C 33.200 37.467,32.332 35.053,31.674 34.646 C 31.442 34.502,30.967 35.298,30.570 36.497 M52.989 40.811 C 51.467 42.345,50.330 43.600,50.462 43.600 C 52.105 43.600,54.855 41.369,55.585 39.445 C 56.262 37.657,55.962 37.815,52.989 40.811 M56.790 50.015 C 56.584 51.437,56.412 53.428,56.408 54.441 L 56.400 56.282 52.700 56.547 C 50.665 56.693,48.640 56.869,48.200 56.939 C 47.760 57.009,47.985 56.885,48.700 56.663 L 50.000 56.259 50.000 53.129 L 50.000 50.000 53.155 50.000 L 56.311 50.000 56.581 48.559 C 57.032 46.157,57.189 47.253,56.790 50.015 M40.764 53.300 C 38.111 56.018,37.931 56.473,39.920 55.438 C 41.350 54.694,42.645 53.268,43.185 51.845 C 43.797 50.227,43.717 50.275,40.764 53.300 M6.758 63.121 C 9.288 67.848,25.808 68.185,30.201 63.599 L 31.350 62.400 18.861 62.400 C 6.951 62.400,6.390 62.433,6.758 63.121 M370.159 67.557 L 371.268 68.715 369.434 69.977 C 367.850 71.066,367.591 71.440,367.536 72.719 L 367.472 74.200 367.305 72.800 C 367.069 70.830,366.185 70.009,364.238 69.952 L 362.600 69.904 364.271 69.501 C 365.278 69.258,366.460 68.563,367.249 67.749 C 368.832 66.116,368.782 66.120,370.159 67.557 M23.986 83.700 C 22.812 84.293,21.898 85.146,21.308 86.200 C 20.267 88.061,20.098 87.756,21.054 85.742 C 21.679 84.425,23.894 82.857,25.185 82.818 C 25.506 82.808,24.967 83.205,23.986 83.700 M19.083 98.895 C 18.987 99.393,18.905 99.080,18.901 98.200 C 18.896 97.320,18.975 96.913,19.075 97.295 C 19.175 97.678,19.179 98.398,19.083 98.895 M18.894 103.653 L 19.032 106.307 16.416 106.570 C 9.313 107.285,7.977 108.648,7.173 116.000 C 6.869 118.780,6.858 118.701,7.023 114.925 C 7.280 109.030,8.302 107.017,11.277 106.541 C 12.115 106.407,12.800 106.122,12.800 105.906 C 12.800 105.205,15.310 102.326,16.974 101.118 C 18.782 99.806,18.688 99.681,18.894 103.653 M18.800 106.972 C 18.800 107.066,17.765 107.357,16.500 107.618 C 11.964 108.554,9.970 110.168,8.791 113.858 C 8.380 115.146,8.033 115.906,8.022 115.546 C 7.941 113.110,12.074 106.740,13.081 107.747 C 13.167 107.834,13.994 107.668,14.919 107.379 C 16.563 106.865,18.800 106.630,18.800 106.972 M96.569 109.371 C 106.445 112.343,106.052 125.900,96.000 129.024 C 91.014 130.574,91.258 127.085,91.051 199.800 C 90.848 270.883,90.760 269.425,95.314 270.786 C 102.936 273.062,106.032 280.681,101.898 286.987 C 99.703 290.336,96.817 291.200,87.820 291.200 C 76.264 291.200,72.812 289.537,70.795 283.000 C 70.316 281.447,68.985 279.600,68.345 279.600 C 65.492 279.600,61.274 276.221,59.906 272.839 L 59.000 270.600 59.138 244.656 L 59.276 218.711 57.757 217.156 C 56.921 216.300,55.920 215.600,55.533 215.600 C 49.286 215.600,46.270 211.082,46.063 201.415 C 45.816 189.865,47.894 185.779,54.622 184.586 C 55.628 184.407,56.760 183.779,57.745 182.853 L 59.289 181.400 59.033 156.400 C 58.704 124.285,58.879 123.464,66.600 120.951 C 69.237 120.092,70.118 119.226,70.923 116.698 C 72.260 112.498,74.286 110.553,78.508 109.416 C 81.450 108.624,93.983 108.592,96.569 109.371 M320.480 109.250 C 325.559 110.327,328.401 112.948,329.372 117.450 C 329.734 119.128,330.958 120.158,333.600 121.007 C 336.566 121.961,339.246 124.616,340.256 127.600 C 340.951 129.656,341.000 131.499,341.000 155.678 L 341.000 181.555 342.334 182.932 C 343.184 183.809,344.200 184.397,345.134 184.552 C 351.775 185.655,353.991 189.520,353.991 200.000 C 353.991 210.362,352.204 213.715,345.797 215.384 C 344.239 215.790,342.980 216.439,342.082 217.299 L 340.724 218.600 340.839 244.800 C 340.965 273.541,341.030 272.650,338.567 275.878 C 337.504 277.273,334.682 278.911,332.550 279.371 C 330.943 279.719,329.784 280.987,329.235 283.000 C 327.444 289.570,323.548 291.352,311.468 291.127 C 304.837 291.003,304.015 290.908,302.083 290.039 C 293.319 286.097,294.629 273.608,304.089 270.924 C 309.022 269.525,308.799 272.896,308.803 199.587 C 308.806 127.703,308.969 130.335,304.467 129.213 C 294.013 126.606,293.241 113.029,303.349 109.535 C 305.793 108.690,316.966 108.504,320.480 109.250 M258.741 121.829 C 262.861 123.017,264.742 124.919,265.876 129.046 C 267.066 133.378,267.314 133.497,275.538 133.687 C 289.028 133.999,291.200 136.234,291.200 149.800 C 291.200 163.778,289.050 166.023,275.088 166.626 C 267.177 166.968,264.100 166.442,258.600 163.813 C 256.620 162.866,254.010 161.776,252.800 161.390 C 250.071 160.521,247.027 159.031,245.245 157.693 C 244.054 156.799,243.789 156.740,243.045 157.206 C 240.875 158.567,237.388 160.067,234.368 160.939 L 231.057 161.895 230.131 163.994 C 227.577 169.779,228.502 172.573,233.765 174.971 C 236.921 176.410,239.132 178.149,240.388 180.181 C 241.352 181.740,242.192 182.119,247.000 183.159 C 258.575 185.665,264.135 188.408,267.200 193.123 C 267.594 193.729,268.810 194.377,270.738 195.007 C 275.440 196.546,280.400 200.267,280.400 202.255 C 280.400 203.106,283.190 205.979,284.830 206.815 C 287.854 208.358,290.140 212.252,290.986 217.303 C 291.444 220.041,291.266 242.857,290.768 245.200 C 289.737 250.050,287.300 252.930,283.319 254.002 C 281.515 254.488,279.600 255.751,279.600 256.455 C 279.600 257.486,277.731 261.479,276.697 262.656 C 274.809 264.806,273.017 265.483,265.120 267.027 C 259.445 268.137,257.460 268.691,256.288 269.492 C 248.848 274.576,233.263 274.840,226.499 269.996 C 224.749 268.743,223.740 268.365,220.690 267.820 C 204.552 264.936,197.889 259.944,194.430 248.146 C 193.970 246.577,193.325 245.070,192.997 244.797 C 192.211 244.145,192.244 243.627,193.133 242.626 C 193.537 242.172,194.177 240.958,194.556 239.928 C 195.915 236.236,198.301 233.871,202.800 231.759 C 203.790 231.294,204.930 230.542,205.333 230.088 L 206.067 229.263 207.733 230.425 C 209.079 231.364,210.714 231.856,216.220 232.983 C 225.570 234.897,228.843 236.263,230.636 238.998 C 231.097 239.702,231.973 240.112,234.009 240.575 C 235.521 240.919,238.303 241.759,240.190 242.442 L 243.620 243.683 245.335 242.102 C 247.627 239.990,250.003 238.668,253.500 237.561 C 256.507 236.609,259.200 233.583,259.200 231.156 C 259.200 229.297,256.398 224.181,254.955 223.404 C 253.690 222.723,252.849 221.903,250.742 219.302 C 249.879 218.236,246.319 216.923,241.600 215.929 C 235.844 214.717,229.413 211.226,226.299 207.622 C 224.953 206.064,223.005 205.243,217.200 203.786 C 211.899 202.455,209.161 200.155,207.775 195.871 C 206.946 193.306,206.695 193.054,204.156 192.234 C 201.285 191.306,199.157 189.338,197.766 186.325 L 196.600 183.800 196.600 169.000 C 196.600 154.349,196.610 154.176,197.552 151.800 C 198.742 148.804,201.468 146.023,204.000 145.225 C 206.087 144.567,207.196 143.742,207.209 142.838 C 207.259 139.221,211.335 135.299,216.612 133.791 C 219.596 132.939,220.596 132.037,221.187 129.667 C 222.248 125.411,224.662 123.029,229.044 121.915 C 232.280 121.092,255.945 121.023,258.741 121.829 M174.286 133.443 C 176.572 134.764,177.749 136.429,178.970 140.071 L 180.000 143.141 179.995 186.471 C 179.988 246.840,179.420 252.028,172.408 255.820 C 171.102 256.526,168.776 259.000,167.644 260.885 C 165.814 263.935,162.110 266.018,155.744 267.574 C 152.896 268.270,151.615 268.825,149.944 270.086 C 145.998 273.064,145.044 273.310,137.826 273.220 C 130.742 273.132,130.240 272.993,126.572 270.104 C 124.958 268.832,123.626 268.278,119.242 267.054 C 111.949 265.017,108.896 263.293,107.375 260.352 C 107.054 259.730,105.686 257.912,104.336 256.311 C 95.604 245.959,97.528 235.955,108.654 233.854 C 116.386 232.394,117.849 232.333,124.536 233.192 C 128.609 233.715,133.152 234.000,137.409 234.000 L 143.987 234.000 145.215 232.900 L 146.443 231.800 146.521 186.600 C 146.608 136.751,146.434 140.219,149.044 136.266 C 152.134 131.584,168.001 129.810,174.286 133.443 M15.851 293.068 L 18.800 293.317 18.800 295.200 C 18.800 296.235,18.869 298.144,18.953 299.441 C 19.038 300.739,19.026 301.402,18.928 300.916 C 18.766 300.110,18.482 300.023,15.675 299.916 L 12.600 299.800 12.481 296.805 C 12.384 294.379,12.195 293.634,11.487 292.879 L 10.612 291.948 11.757 292.384 C 12.386 292.623,14.229 292.931,15.851 293.068 M380.619 308.300 C 380.126 315.259,379.253 316.827,375.464 317.555 C 368.878 318.820,366.048 317.843,371.488 316.182 C 376.240 314.731,377.769 313.081,378.977 308.096 C 379.311 306.717,379.547 306.223,379.567 306.858 C 379.694 310.906,376.916 315.083,373.400 316.130 C 368.308 317.646,368.375 317.600,371.531 317.414 C 377.499 317.062,379.298 315.133,380.122 308.202 C 380.708 303.276,380.971 303.328,380.619 308.300 M368.282 324.500 C 368.187 324.995,368.109 324.590,368.109 323.600 C 368.109 322.610,368.187 322.205,368.282 322.700 C 368.378 323.195,368.378 324.005,368.282 324.500 M367.611 328.567 C 367.156 329.945,365.065 331.200,363.225 331.200 C 362.792 331.200,362.103 331.786,361.624 332.561 C 361.161 333.310,360.021 334.570,359.091 335.361 C 358.161 336.151,357.085 337.069,356.700 337.399 C 356.048 337.959,356.000 337.878,356.000 336.233 C 356.000 335.261,355.893 334.136,355.762 333.733 C 355.565 333.123,355.597 333.101,355.956 333.600 C 356.319 334.104,356.389 334.066,356.394 333.362 C 356.404 331.966,357.606 331.323,360.725 331.048 C 365.377 330.637,367.531 329.319,367.646 326.811 C 367.678 326.127,367.752 326.028,367.876 326.503 C 367.977 326.890,367.858 327.819,367.611 328.567 M390.600 335.548 C 387.465 337.046,384.425 340.932,384.404 343.468 C 384.399 344.094,381.183 345.074,378.109 345.385 C 373.530 345.849,370.249 347.240,369.226 349.151 C 368.898 349.764,369.153 349.740,371.536 348.941 C 373.008 348.448,376.266 347.674,378.774 347.222 C 384.329 346.222,386.582 345.059,388.477 342.213 C 390.866 338.626,392.679 337.600,396.631 337.600 L 400.000 337.600 400.000 336.000 L 400.000 334.400 396.500 334.400 C 393.472 334.401,392.676 334.555,390.600 335.548 M28.634 340.868 C 27.405 342.226,26.400 343.549,26.400 343.808 C 26.400 344.588,28.638 347.430,30.035 348.425 L 31.342 349.355 33.671 346.823 C 36.602 343.636,36.324 341.477,32.673 339.084 C 31.180 338.107,31.101 338.142,28.634 340.868 M355.597 341.410 C 355.310 342.279,354.689 343.044,353.967 343.417 C 353.325 343.749,352.800 344.292,352.800 344.624 C 352.800 347.466,347.468 352.800,344.626 352.800 C 344.293 352.800,343.751 353.320,343.422 353.957 C 342.792 355.177,341.008 356.030,339.240 355.957 C 338.475 355.926,338.637 355.816,339.850 355.543 C 341.877 355.088,342.789 354.130,343.369 351.848 C 343.711 350.497,344.226 349.781,345.607 348.731 C 346.593 347.981,348.030 346.519,348.799 345.483 C 349.694 344.280,350.502 343.600,351.040 343.600 C 353.560 343.600,355.529 341.857,355.646 339.520 C 355.681 338.837,355.740 338.781,355.876 339.303 C 355.977 339.690,355.851 340.638,355.597 341.410 M32.811 342.612 L 33.761 343.623 32.490 344.895 L 31.218 346.167 30.007 345.007 L 28.797 343.847 29.873 342.724 C 31.197 341.342,31.603 341.326,32.811 342.612 M40.441 343.997 C 37.812 348.054,32.305 353.200,30.593 353.200 C 28.488 353.200,26.757 354.210,24.522 356.740 L 22.203 359.365 25.201 357.718 C 26.851 356.812,29.009 355.856,29.998 355.594 C 35.265 354.196,39.223 350.321,41.236 344.593 C 42.266 341.664,42.055 341.506,40.441 343.997 M51.905 343.075 C 51.522 343.175,50.802 343.179,50.305 343.083 C 49.807 342.987,50.120 342.905,51.000 342.901 C 51.880 342.896,52.287 342.975,51.905 343.075 M346.395 344.410 C 346.180 344.810,345.509 345.530,344.903 346.009 L 343.800 346.880 343.582 345.340 C 343.297 343.327,343.279 343.348,345.162 343.528 C 346.587 343.664,346.737 343.771,346.395 344.410 M15.972 354.455 C 15.300 355.771,15.217 356.284,15.566 356.955 C 16.003 357.797,16.003 357.797,15.782 356.923 C 15.656 356.422,15.916 355.349,16.388 354.423 C 16.844 353.530,17.126 352.800,17.016 352.800 C 16.906 352.800,16.436 353.545,15.972 354.455 M380.833 352.944 C 380.925 353.023,381.540 353.208,382.200 353.356 C 383.076 353.552,383.238 353.515,382.800 353.218 C 382.260 352.853,380.432 352.598,380.833 352.944 M336.496 355.996 C 337.978 356.000,337.986 356.008,337.296 356.867 C 335.422 359.202,333.356 361.299,332.334 361.903 C 331.710 362.271,331.200 362.890,331.200 363.278 C 331.200 365.929,329.129 368.060,326.640 367.969 C 326.136 367.951,326.423 367.750,327.357 367.468 C 329.931 366.692,331.898 361.165,331.096 356.966 C 330.887 355.875,331.538 355.579,333.600 355.824 C 334.370 355.916,335.673 355.993,336.496 355.996 M360.200 356.965 C 358.720 357.623,357.394 359.029,356.815 360.555 C 356.197 362.189,356.293 362.131,359.262 359.110 C 362.062 356.259,362.128 356.108,360.200 356.965 M382.900 360.794 C 380.645 362.976,378.800 365.040,378.800 365.381 C 378.800 365.721,378.620 366.000,378.400 366.000 C 378.180 366.000,378.000 366.618,378.000 367.373 C 378.000 370.252,370.252 378.000,367.374 378.000 C 366.618 378.000,366.000 378.141,366.000 378.312 C 366.000 378.484,365.480 378.821,364.846 379.060 C 364.141 379.326,363.151 380.340,362.307 381.660 C 361.545 382.851,360.059 384.584,359.005 385.512 L 357.087 387.200 363.089 387.200 L 369.091 387.200 370.123 385.700 C 370.691 384.875,371.503 383.381,371.929 382.380 C 372.503 381.031,374.262 379.062,378.720 374.780 L 384.737 369.000 385.600 363.842 C 386.075 361.005,386.625 358.260,386.822 357.742 C 387.019 357.224,387.140 356.806,387.090 356.813 C 387.041 356.820,385.155 358.611,382.900 360.794 M330.676 359.500 C 330.575 359.885,330.493 359.570,330.493 358.800 C 330.493 358.030,330.575 357.715,330.676 358.100 C 330.776 358.485,330.776 359.115,330.676 359.500 M69.314 361.400 C 69.317 362.500,69.395 362.903,69.487 362.295 C 69.579 361.686,69.577 360.786,69.482 360.295 C 69.387 359.803,69.311 360.300,69.314 361.400 M390.372 365.983 C 385.265 371.409,382.885 373.842,378.659 377.957 L 374.800 381.714 374.800 390.857 L 374.800 400.000 387.400 400.000 L 400.000 400.000 400.000 392.200 L 400.000 384.400 390.580 384.400 L 381.159 384.400 380.550 382.941 C 379.720 380.955,380.443 380.328,384.552 379.472 C 389.774 378.385,391.172 376.799,392.229 370.762 C 393.121 365.666,393.180 365.600,396.864 365.600 L 400.000 365.600 400.000 364.000 L 400.000 362.400 396.872 362.400 L 393.745 362.400 390.372 365.983 M371.281 367.980 C 372.052 369.216,369.216 372.052,367.980 371.281 C 367.182 370.782,367.178 370.797,367.793 371.986 C 368.614 373.574,368.674 373.558,371.114 371.087 C 373.559 368.611,373.560 368.607,371.986 367.793 C 370.797 367.178,370.782 367.182,371.281 367.980 M324.500 368.282 C 324.005 368.378,323.195 368.378,322.700 368.282 C 322.205 368.187,322.610 368.109,323.600 368.109 C 324.590 368.109,324.995 368.187,324.500 368.282 M316.780 371.100 C 315.828 374.832,315.652 375.221,314.252 376.712 C 312.977 378.070,308.972 379.622,306.858 379.578 C 306.276 379.566,307.131 379.207,308.758 378.781 C 313.092 377.646,316.377 374.354,316.396 371.126 C 316.400 370.406,317.084 368.400,317.325 368.400 C 317.404 368.400,317.159 369.615,316.780 371.100 M317.963 372.283 C 317.428 378.645,316.364 379.800,310.465 380.421 C 305.287 380.966,303.592 380.788,308.250 380.189 C 314.896 379.333,316.814 377.702,317.404 372.400 C 317.987 367.160,318.401 367.073,317.963 372.283 M348.200 369.666 C 346.867 370.401,345.164 372.130,344.522 373.400 C 344.059 374.315,344.542 373.986,346.557 372.012 C 349.621 369.010,349.768 368.800,348.200 369.666 M300.012 390.700 L 300.000 400.000 301.659 400.000 L 303.318 400.000 303.087 395.300 C 302.866 390.822,301.475 383.892,300.438 382.110 C 300.144 381.606,300.021 384.101,300.012 390.700 M111.457 390.482 C 112.566 391.254,112.570 391.270,111.600 391.019 C 111.050 390.876,110.345 390.709,110.033 390.647 C 109.722 390.584,109.416 390.278,109.353 389.967 C 109.291 389.655,109.124 388.950,108.981 388.400 C 108.730 387.430,108.746 387.434,109.518 388.543 C 109.955 389.172,110.828 390.045,111.457 390.482 " stroke="none" fill="#d42624" fill-rule="evenodd"></path></g></svg>