<svg id="svg" version="1.1" xmlns="http://www.w3.org/2000/svg" xmlns:xlink="http://www.w3.org/1999/xlink" width="400" height="400" viewBox="0, 0, 400,400"><g id="svgg"><path id="path0" d="M79.717 113.118 C 77.825 114.128,75.278 116.678,74.355 118.488 C 73.321 120.514,70.526 123.315,68.513 124.342 C 66.578 125.330,64.189 127.717,63.170 129.684 C 62.434 131.102,62.400 132.294,62.390 156.484 L 62.380 181.800 61.006 183.673 C 60.084 184.929,58.670 186.100,56.715 187.225 C 50.239 190.954,49.600 192.112,49.600 200.120 C 49.600 207.698,50.385 209.227,55.800 212.196 C 58.837 213.861,59.961 214.754,61.236 216.513 L 62.400 218.120 62.400 243.476 C 62.400 273.581,61.939 271.392,69.294 276.177 C 71.616 277.688,73.374 279.589,74.518 281.828 C 76.824 286.338,79.686 287.600,87.604 287.600 C 95.280 287.600,97.548 286.581,99.978 282.042 C 100.888 280.340,98.481 277.291,93.768 274.175 C 87.157 269.806,87.619 275.302,87.618 201.000 C 87.617 124.782,87.172 130.176,93.814 125.802 C 101.490 120.747,101.847 117.492,95.211 113.060 C 93.737 112.076,81.585 112.121,79.717 113.118 M304.789 113.060 C 303.180 114.135,301.205 116.107,300.338 117.504 L 299.529 118.809 300.549 120.550 C 301.682 122.482,303.735 124.436,305.703 125.453 C 312.760 129.102,312.384 124.904,312.384 200.000 C 312.384 274.899,312.806 269.838,306.186 274.198 C 298.510 279.253,298.153 282.508,304.789 286.940 C 306.346 287.979,318.239 287.904,320.316 286.841 C 322.310 285.821,324.625 283.512,325.631 281.539 C 326.687 279.469,329.469 276.687,331.539 275.631 C 333.512 274.625,335.821 272.310,336.841 270.316 C 337.563 268.905,337.600 267.592,337.600 243.607 L 337.600 218.383 338.644 216.805 C 339.810 215.044,341.394 213.726,343.847 212.477 C 349.354 209.672,350.400 207.681,350.400 200.000 L 350.400 193.720 349.254 192.160 C 347.741 190.099,346.612 189.127,344.200 187.804 C 341.163 186.139,340.039 185.246,338.764 183.487 L 337.600 181.880 337.600 156.520 C 337.600 128.171,337.797 130.152,334.657 126.867 C 333.745 125.914,332.308 124.776,331.462 124.339 C 329.453 123.302,326.668 120.494,325.631 118.461 C 324.625 116.488,322.310 114.179,320.316 113.159 C 318.239 112.096,306.346 112.021,304.789 113.060 M228.995 126.100 C 227.557 127.037,226.357 128.372,224.697 130.882 C 222.288 134.524,221.181 135.567,217.690 137.484 C 215.042 138.939,213.187 140.678,211.222 143.551 C 209.487 146.088,208.227 147.326,205.546 149.129 C 200.635 152.430,199.748 154.689,200.261 162.583 C 200.533 166.764,200.533 170.833,200.262 175.007 C 199.733 183.151,200.473 184.867,206.232 188.848 C 208.364 190.322,209.673 191.626,211.133 193.730 C 214.615 198.747,216.481 199.994,222.270 201.174 C 230.071 202.763,230.961 203.172,234.364 206.728 C 238.072 210.602,240.466 211.887,247.016 213.518 C 256.973 215.999,257.903 216.716,261.166 224.423 C 264.044 231.220,264.039 231.135,261.849 235.633 C 258.902 241.685,256.788 243.983,252.741 245.536 C 245.426 248.342,244.662 248.454,237.646 247.733 L 231.400 247.092 227.800 243.391 C 223.065 238.522,220.884 237.399,214.548 236.568 C 212.005 236.235,209.086 235.801,208.062 235.604 C 205.252 235.064,201.703 237.650,198.620 242.485 C 196.788 245.356,203.372 255.131,210.000 259.383 C 214.366 262.184,217.093 263.165,222.893 264.024 C 225.812 264.456,229.190 264.983,230.400 265.194 C 234.384 265.888,246.158 265.836,251.600 265.100 C 254.350 264.728,259.390 264.046,262.800 263.585 C 270.884 262.491,272.358 261.671,275.716 256.400 C 277.417 253.729,278.645 252.537,282.015 250.286 C 283.677 249.176,285.156 247.755,286.155 246.307 L 287.711 244.055 287.736 231.327 L 287.761 218.600 286.669 216.444 C 285.245 213.633,283.992 212.179,281.207 210.110 C 279.953 209.178,278.195 207.373,277.301 206.098 C 274.146 201.600,271.818 199.826,266.200 197.640 C 263.046 196.412,261.990 195.805,257.349 192.555 C 253.847 190.103,251.421 188.991,244.873 186.837 C 233.089 182.960,228.734 179.475,226.003 171.738 L 224.904 168.626 225.820 165.213 C 227.402 159.321,229.462 155.356,231.400 154.473 C 234.171 153.210,243.341 151.888,245.993 152.368 C 254.515 153.911,255.481 154.283,258.669 157.238 C 260.588 159.017,262.718 160.516,264.716 161.493 L 267.800 163.000 274.600 162.883 C 282.491 162.747,283.771 162.283,286.264 158.656 L 287.600 156.713 287.600 150.017 C 287.600 142.292,287.239 141.309,283.402 138.581 L 281.459 137.200 275.102 137.200 L 268.744 137.200 266.934 135.955 C 265.862 135.217,264.499 133.708,263.591 132.255 C 261.546 128.978,260.117 127.290,258.240 125.930 L 256.680 124.800 243.835 124.800 L 230.991 124.800 228.995 126.100 M160.759 136.298 L 155.717 136.423 154.040 137.859 C 153.117 138.649,151.832 140.219,151.185 141.347 L 150.008 143.400 150.004 187.440 L 150.000 231.480 148.872 233.158 C 148.252 234.082,146.857 235.473,145.772 236.250 L 143.800 237.663 131.200 237.390 L 118.600 237.116 114.489 238.168 C 108.149 239.790,106.198 240.635,104.840 242.349 L 103.649 243.853 104.701 245.626 C 105.280 246.602,106.455 248.292,107.313 249.381 C 108.170 250.471,109.466 252.541,110.191 253.981 C 111.705 256.986,115.028 260.362,117.662 261.571 C 125.798 265.304,139.618 266.922,147.122 265.020 C 149.327 264.461,152.414 263.734,153.982 263.404 C 157.692 262.623,160.292 260.934,163.779 257.038 C 165.302 255.337,167.501 253.312,168.668 252.538 C 175.970 247.690,175.996 247.438,175.871 181.600 L 175.800 143.800 174.322 141.527 C 172.250 138.340,169.179 135.973,167.264 136.087 C 166.459 136.135,163.531 136.230,160.759 136.298 " stroke="none" fill="#faf4f4" fill-rule="evenodd"></path><path id="path1" d="M166.000 3.145 L 166.000 6.291 164.060 8.105 C 160.535 11.402,158.467 12.083,150.200 12.668 C 134.548 13.776,131.418 14.666,127.293 19.177 C 123.378 23.460,120.993 24.639,114.248 25.624 C 105.746 26.865,105.885 26.791,100.751 32.826 C 98.420 35.566,95.481 37.323,91.427 38.400 C 85.638 39.938,82.886 41.506,78.264 45.902 C 75.965 48.088,72.585 51.034,70.752 52.448 C 66.087 56.047,64.933 58.033,63.103 65.600 C 61.843 70.808,61.061 71.759,54.451 76.119 C 52.442 77.444,51.582 78.351,50.388 80.400 C 48.260 84.055,46.598 85.870,43.600 87.813 C 42.170 88.741,40.533 90.017,39.961 90.650 C 37.621 93.242,37.600 93.325,37.600 100.029 C 37.600 107.936,37.110 108.794,30.000 113.338 C 28.330 114.406,26.935 115.696,26.100 116.945 L 24.800 118.890 24.800 131.614 L 24.800 144.338 23.484 146.069 C 22.659 147.154,20.904 148.556,18.784 149.825 C 16.470 151.211,14.926 152.475,13.902 153.825 L 12.404 155.800 12.399 162.600 C 12.394 169.911,12.416 169.822,10.000 172.643 C 7.894 175.102,6.756 175.600,3.238 175.600 L 0.000 175.600 0.000 181.200 L 0.000 186.800 3.111 186.800 C 6.970 186.800,9.134 188.079,11.478 191.743 C 13.780 195.343,8.909 200.400,3.140 200.400 L 0.000 200.400 0.000 217.200 L 0.000 234.000 3.145 234.000 L 6.291 234.000 8.105 235.940 C 11.006 239.041,12.081 241.772,12.455 246.985 C 13.109 256.114,13.657 260.722,14.570 264.760 L 15.510 268.920 19.068 272.360 C 23.382 276.531,24.497 278.626,25.384 284.230 C 26.765 292.959,27.106 293.979,29.315 295.986 C 34.419 300.624,35.650 302.061,37.105 305.085 C 38.808 308.623,40.561 310.604,43.400 312.202 C 46.223 313.791,48.223 315.791,49.999 318.800 C 51.812 321.873,53.407 323.468,56.400 325.202 C 59.465 326.978,60.235 327.772,62.223 331.208 C 64.298 334.793,65.287 335.767,69.059 337.940 C 72.094 339.689,73.535 341.121,74.848 343.693 C 75.979 345.911,78.664 348.716,80.582 349.684 C 83.900 351.358,85.980 353.227,87.584 355.972 C 89.618 359.456,91.447 361.070,95.678 363.118 C 98.670 364.566,99.542 365.249,102.415 368.393 C 106.131 372.459,107.029 372.892,114.444 374.204 C 121.349 375.425,123.641 376.614,128.000 381.239 L 131.000 384.422 135.400 385.398 C 141.969 386.856,145.891 387.216,158.000 387.473 C 169.833 387.724,170.284 387.804,172.803 390.090 C 175.138 392.208,175.600 393.310,175.600 396.762 L 175.600 400.000 204.800 400.000 L 234.000 400.000 234.000 396.754 L 234.000 393.508 235.700 391.939 C 238.817 389.064,241.821 387.900,247.139 387.508 C 257.384 386.753,256.719 386.891,258.657 385.104 C 259.625 384.213,261.227 382.264,262.217 380.775 C 263.427 378.954,264.725 377.596,266.176 376.633 L 268.336 375.200 274.268 375.198 C 280.049 375.197,284.549 374.690,290.800 373.338 C 294.053 372.634,293.369 373.157,299.547 366.647 C 301.034 365.080,302.613 363.943,304.686 362.946 C 308.459 361.131,310.082 359.704,312.288 356.262 C 314.322 353.089,315.373 352.071,318.400 350.341 C 321.427 348.611,323.392 346.662,325.197 343.600 C 326.986 340.565,328.121 339.447,331.400 337.489 C 334.265 335.778,335.865 334.161,337.623 331.200 C 339.447 328.127,340.609 326.960,343.600 325.197 C 346.695 323.373,348.634 321.404,350.342 318.351 C 351.748 315.838,354.336 313.262,356.660 312.061 C 359.004 310.851,361.349 308.144,363.125 304.600 C 364.787 301.285,365.838 300.024,369.838 296.547 C 371.500 295.102,372.613 293.680,373.595 291.747 C 375.057 288.867,376.675 286.353,379.234 282.986 C 382.092 279.226,386.022 264.837,386.823 255.200 C 387.052 252.450,387.383 248.450,387.559 246.311 C 387.928 241.829,389.258 238.606,391.939 235.700 L 393.508 234.000 396.754 234.000 L 400.000 234.000 400.000 199.800 L 400.000 165.600 396.796 165.600 C 393.101 165.600,392.430 165.171,389.912 161.200 C 387.923 158.062,387.682 157.007,387.220 149.373 C 386.821 142.774,386.221 138.393,385.038 133.432 C 384.516 131.242,384.206 130.805,380.923 127.632 C 376.653 123.503,375.488 121.325,374.407 115.437 C 372.781 106.589,372.813 106.659,368.431 102.400 C 365.175 99.236,364.266 98.071,363.002 95.436 C 361.165 91.610,359.344 89.514,356.428 87.868 C 353.619 86.283,351.657 84.248,350.074 81.278 C 348.681 78.665,346.124 76.087,343.693 74.848 C 341.121 73.535,339.689 72.094,337.940 69.059 C 335.767 65.287,334.793 64.298,331.208 62.223 C 327.772 60.235,326.978 59.465,325.202 56.400 C 323.462 53.396,321.869 51.808,318.775 49.993 C 315.889 48.299,313.287 45.718,312.068 43.340 C 310.842 40.949,308.489 38.864,305.073 37.141 C 302.051 35.617,300.931 34.656,295.929 29.297 C 293.857 27.077,292.607 26.661,284.351 25.443 C 278.846 24.630,276.567 23.425,272.390 19.116 L 268.981 15.599 264.590 14.602 C 260.342 13.637,256.240 13.138,246.985 12.461 C 241.772 12.080,239.036 11.001,235.940 8.105 L 234.000 6.291 234.000 3.145 L 234.000 0.000 200.000 0.000 L 166.000 0.000 166.000 3.145 M95.211 113.060 C 101.847 117.492,101.490 120.747,93.814 125.802 C 87.172 130.176,87.617 124.782,87.618 201.000 C 87.619 275.302,87.157 269.806,93.768 274.175 C 98.481 277.291,100.888 280.340,99.978 282.042 C 97.548 286.581,95.280 287.600,87.604 287.600 C 79.686 287.600,76.824 286.338,74.518 281.828 C 73.374 279.589,71.616 277.688,69.294 276.177 C 61.939 271.392,62.400 273.581,62.400 243.476 L 62.400 218.120 61.236 216.513 C 59.961 214.754,58.837 213.861,55.800 212.196 C 50.385 209.227,49.600 207.698,49.600 200.120 C 49.600 192.112,50.239 190.954,56.715 187.225 C 58.670 186.100,60.084 184.929,61.006 183.673 L 62.380 181.800 62.390 156.484 C 62.400 132.294,62.434 131.102,63.170 129.684 C 64.189 127.717,66.578 125.330,68.513 124.342 C 70.526 123.315,73.321 120.514,74.355 118.488 C 75.278 116.678,77.825 114.128,79.717 113.118 C 81.585 112.121,93.737 112.076,95.211 113.060 M320.316 113.159 C 322.310 114.179,324.625 116.488,325.631 118.461 C 326.668 120.494,329.453 123.302,331.462 124.339 C 332.308 124.776,333.745 125.914,334.657 126.867 C 337.797 130.152,337.600 128.171,337.600 156.520 L 337.600 181.880 338.764 183.487 C 340.039 185.246,341.163 186.139,344.200 187.804 C 346.612 189.127,347.741 190.099,349.254 192.160 L 350.400 193.720 350.400 200.000 C 350.400 207.681,349.354 209.672,343.847 212.477 C 341.394 213.726,339.810 215.044,338.644 216.805 L 337.600 218.383 337.600 243.607 C 337.600 267.592,337.563 268.905,336.841 270.316 C 335.821 272.310,333.512 274.625,331.539 275.631 C 329.469 276.687,326.687 279.469,325.631 281.539 C 324.625 283.512,322.310 285.821,320.316 286.841 C 318.239 287.904,306.346 287.979,304.789 286.940 C 298.153 282.508,298.510 279.253,306.186 274.198 C 312.806 269.838,312.384 274.899,312.384 200.000 C 312.384 124.904,312.760 129.102,305.703 125.453 C 303.735 124.436,301.682 122.482,300.549 120.550 L 299.529 118.809 300.338 117.504 C 301.205 116.107,303.180 114.135,304.789 113.060 C 306.346 112.021,318.239 112.096,320.316 113.159 M258.240 125.930 C 260.117 127.290,261.546 128.978,263.591 132.255 C 264.499 133.708,265.862 135.217,266.934 135.955 L 268.744 137.200 275.102 137.200 L 281.459 137.200 283.402 138.581 C 287.239 141.309,287.600 142.292,287.600 150.017 L 287.600 156.713 286.264 158.656 C 283.771 162.283,282.491 162.747,274.600 162.883 L 267.800 163.000 264.716 161.493 C 262.718 160.516,260.588 159.017,258.669 157.238 C 255.481 154.283,254.515 153.911,245.993 152.368 C 243.341 151.888,234.171 153.210,231.400 154.473 C 229.462 155.356,227.402 159.321,225.820 165.213 L 224.904 168.626 226.003 171.738 C 228.734 179.475,233.089 182.960,244.873 186.837 C 251.421 188.991,253.847 190.103,257.349 192.555 C 261.990 195.805,263.046 196.412,266.200 197.640 C 271.818 199.826,274.146 201.600,277.301 206.098 C 278.195 207.373,279.953 209.178,281.207 210.110 C 283.992 212.179,285.245 213.633,286.669 216.444 L 287.761 218.600 287.736 231.327 L 287.711 244.055 286.155 246.307 C 285.156 247.755,283.677 249.176,282.015 250.286 C 278.645 252.537,277.417 253.729,275.716 256.400 C 272.358 261.671,270.884 262.491,262.800 263.585 C 259.390 264.046,254.350 264.728,251.600 265.100 C 246.158 265.836,234.384 265.888,230.400 265.194 C 229.190 264.983,225.812 264.456,222.893 264.024 C 217.093 263.165,214.366 262.184,210.000 259.383 C 203.372 255.131,196.788 245.356,198.620 242.485 C 201.703 237.650,205.252 235.064,208.062 235.604 C 209.086 235.801,212.005 236.235,214.548 236.568 C 220.884 237.399,223.065 238.522,227.800 243.391 L 231.400 247.092 237.646 247.733 C 250.067 249.008,257.031 245.526,261.849 235.633 C 264.039 231.135,264.044 231.220,261.166 224.423 C 257.903 216.716,256.973 215.999,247.016 213.518 C 240.466 211.887,238.072 210.602,234.364 206.728 C 230.961 203.172,230.071 202.763,222.270 201.174 C 216.481 199.994,214.615 198.747,211.133 193.730 C 209.673 191.626,208.364 190.322,206.232 188.848 C 200.473 184.867,199.733 183.151,200.262 175.007 C 200.533 170.833,200.533 166.764,200.261 162.583 C 199.748 154.689,200.635 152.430,205.546 149.129 C 208.227 147.326,209.487 146.088,211.222 143.551 C 213.187 140.678,215.042 138.939,217.690 137.484 C 221.181 135.567,222.288 134.524,224.697 130.882 C 226.357 128.372,227.557 127.037,228.995 126.100 L 230.991 124.800 243.835 124.800 L 256.680 124.800 258.240 125.930 M170.786 137.627 C 171.918 138.521,173.509 140.276,174.322 141.527 L 175.800 143.800 175.871 181.600 C 175.996 247.438,175.970 247.690,168.668 252.538 C 167.501 253.312,165.302 255.337,163.779 257.038 C 160.292 260.934,157.692 262.623,153.982 263.404 C 152.414 263.734,149.327 264.461,147.122 265.020 C 139.618 266.922,125.798 265.304,117.662 261.571 C 115.028 260.362,111.705 256.986,110.191 253.981 C 109.466 252.541,108.170 250.471,107.313 249.381 C 106.455 248.292,105.280 246.602,104.701 245.626 L 103.649 243.853 104.840 242.349 C 106.198 240.635,108.149 239.790,114.489 238.168 L 118.600 237.116 131.200 237.390 L 143.800 237.663 145.772 236.250 C 146.857 235.473,148.252 234.082,148.872 233.158 L 150.000 231.480 150.004 187.440 L 150.008 143.400 151.185 141.347 C 151.832 140.219,153.117 138.649,154.040 137.859 L 155.717 136.423 160.759 136.298 C 163.531 136.230,166.459 136.135,167.264 136.087 C 168.444 136.017,169.127 136.315,170.786 137.627 " stroke="none" fill="#ca1e1e" fill-rule="evenodd"></path><path id="path2" d="M0.000 87.800 L 0.000 175.600 3.238 175.600 C 6.756 175.600,7.894 175.102,10.000 172.643 C 12.416 169.822,12.394 169.911,12.399 162.600 L 12.404 155.800 13.902 153.825 C 14.926 152.475,16.470 151.211,18.784 149.825 C 20.904 148.556,22.659 147.154,23.484 146.069 L 24.800 144.338 24.800 131.614 L 24.800 118.890 26.100 116.945 C 26.935 115.696,28.330 114.406,30.000 113.338 C 37.110 108.794,37.600 107.936,37.600 100.029 C 37.600 93.325,37.621 93.242,39.961 90.650 C 40.533 90.017,42.170 88.741,43.600 87.813 C 46.598 85.870,48.260 84.055,50.388 80.400 C 51.582 78.351,52.442 77.444,54.451 76.119 C 61.061 71.759,61.843 70.808,63.103 65.600 C 64.933 58.033,66.087 56.047,70.752 52.448 C 72.585 51.034,75.965 48.088,78.264 45.902 C 82.886 41.506,85.638 39.938,91.427 38.400 C 95.481 37.323,98.420 35.566,100.751 32.826 C 105.885 26.791,105.746 26.865,114.248 25.624 C 120.993 24.639,123.378 23.460,127.293 19.177 C 131.418 14.666,134.548 13.776,150.200 12.668 C 158.467 12.083,160.535 11.402,164.060 8.105 L 166.000 6.291 166.000 3.145 L 166.000 0.000 83.000 0.000 L 0.000 0.000 0.000 87.800 M234.000 3.145 L 234.000 6.291 235.940 8.105 C 239.036 11.001,241.772 12.080,246.985 12.461 C 256.240 13.138,260.342 13.637,264.590 14.602 L 268.981 15.599 272.390 19.116 C 276.567 23.425,278.846 24.630,284.351 25.443 C 292.607 26.661,293.857 27.077,295.929 29.297 C 300.931 34.656,302.051 35.617,305.073 37.141 C 308.489 38.864,310.842 40.949,312.068 43.340 C 313.287 45.718,315.889 48.299,318.775 49.993 C 321.869 51.808,323.462 53.396,325.202 56.400 C 326.957 59.428,327.771 60.227,331.000 62.091 C 334.723 64.239,335.711 65.220,337.799 68.841 C 339.657 72.062,341.085 73.517,343.693 74.848 C 346.124 76.087,348.681 78.665,350.074 81.278 C 351.657 84.248,353.619 86.283,356.428 87.868 C 359.344 89.514,361.165 91.610,363.002 95.436 C 364.266 98.071,365.175 99.236,368.431 102.400 C 372.813 106.659,372.781 106.589,374.407 115.437 C 375.488 121.325,376.653 123.503,380.923 127.632 C 384.206 130.805,384.516 131.242,385.038 133.432 C 386.221 138.393,386.821 142.774,387.220 149.373 C 387.682 157.007,387.923 158.062,389.912 161.200 C 392.430 165.171,393.101 165.600,396.796 165.600 L 400.000 165.600 400.000 82.800 L 400.000 0.000 317.000 0.000 L 234.000 0.000 234.000 3.145 M0.000 193.600 L 0.000 200.400 3.140 200.400 C 8.909 200.400,13.780 195.343,11.478 191.743 C 9.134 188.079,6.970 186.800,3.111 186.800 L 0.000 186.800 0.000 193.600 M0.000 317.000 L 0.000 400.000 87.800 400.000 L 175.600 400.000 175.600 396.762 C 175.600 393.310,175.138 392.208,172.803 390.090 C 170.284 387.804,169.833 387.724,158.000 387.473 C 145.891 387.216,141.969 386.856,135.400 385.398 L 131.000 384.422 128.000 381.239 C 123.641 376.614,121.349 375.425,114.444 374.204 C 107.029 372.892,106.131 372.459,102.415 368.393 C 99.542 365.249,98.670 364.566,95.678 363.118 C 91.447 361.070,89.618 359.456,87.584 355.972 C 85.980 353.227,83.900 351.358,80.582 349.684 C 78.664 348.716,75.979 345.911,74.848 343.693 C 73.517 341.085,72.062 339.657,68.841 337.799 C 65.220 335.711,64.239 334.723,62.091 331.000 C 60.227 327.771,59.428 326.957,56.400 325.202 C 53.407 323.468,51.812 321.873,49.999 318.800 C 48.223 315.791,46.223 313.791,43.400 312.202 C 40.561 310.604,38.808 308.623,37.105 305.085 C 35.650 302.061,34.419 300.624,29.315 295.986 C 27.106 293.979,26.765 292.959,25.384 284.230 C 24.497 278.626,23.382 276.531,19.068 272.360 L 15.510 268.920 14.570 264.760 C 13.657 260.722,13.109 256.114,12.455 246.985 C 12.081 241.772,11.006 239.041,8.105 235.940 L 6.291 234.000 3.145 234.000 L 0.000 234.000 0.000 317.000 M391.939 235.700 C 389.258 238.606,387.928 241.829,387.559 246.311 C 387.383 248.450,387.052 252.450,386.823 255.200 C 386.022 264.837,382.092 279.226,379.234 282.986 C 376.675 286.353,375.057 288.867,373.595 291.747 C 372.613 293.680,371.500 295.102,369.838 296.547 C 365.838 300.024,364.787 301.285,363.125 304.600 C 361.349 308.144,359.004 310.851,356.660 312.061 C 354.336 313.262,351.748 315.838,350.342 318.351 C 348.634 321.404,346.695 323.373,343.600 325.197 C 340.565 326.986,339.447 328.121,337.489 331.400 C 335.778 334.265,334.161 335.865,331.200 337.623 C 328.127 339.447,326.960 340.609,325.197 343.600 C 323.392 346.662,321.427 348.611,318.400 350.341 C 315.373 352.071,314.322 353.089,312.288 356.262 C 310.082 359.704,308.459 361.131,304.686 362.946 C 302.613 363.943,301.034 365.080,299.547 366.647 C 293.369 373.157,294.053 372.634,290.800 373.338 C 284.549 374.690,280.049 375.197,274.268 375.198 L 268.336 375.200 266.176 376.633 C 264.725 377.596,263.427 378.954,262.217 380.775 C 261.227 382.264,259.625 384.213,258.657 385.104 C 256.719 386.891,257.384 386.753,247.139 387.508 C 241.821 387.900,238.817 389.064,235.700 391.939 L 234.000 393.508 234.000 396.754 L 234.000 400.000 317.000 400.000 L 400.000 400.000 400.000 317.000 L 400.000 234.000 396.754 234.000 L 393.508 234.000 391.939 235.700 " stroke="none" fill="#040404" fill-rule="evenodd"></path></g></svg>