/* XPM */
static char *Bullet_red_xpm[] = {
/* columns rows colors chars-per-pixel */
"10 10 54 1",
"3 c #DE0000",
"w c #AE6868",
"% c #EF0000",
"2 c #FF2525",
"O c #F6A0A0",
". c #FFF9F9",
"b c #7B0909",
"# c #FF1919",
"0 c #A10000",
"s c #C61919",
"@ c #FFB5B5",
"p c #E90000",
"+ c #FAE3E3",
"x c #790000",
"d c #C30000",
"; c #FF0404",
"h c #8A0000",
"6 c #770000",
"e c #F80000",
"t c #860000",
"m c #F7F0F0",
"f c #BD0000",
"q c #840000",
"l c #A80000",
"  c None",
"u c #DF0000",
"4 c #B90000",
"k c #E4A3A3",
"X c #FFB4B4",
"< c #A40000",
"7 c #DCBEBE",
"9 c #C80000",
"$ c #FF0000",
"y c #9E4A4A",
"z c #8F0000",
"c c #994040",
"v c #CF9494",
"n c #9C4747",
": c #FB0000",
"5 c #9E0000",
"r c #E80000",
"- c #FFBCBC",
"g c #AD0000",
"a c #AA6060",
"= c #FDFAFA",
"> c #E40000",
"8 c #F50000",
"i c #E20000",
", c #CF0000",
"1 c #AF5858",
"* c #CF6A6A",
"& c #CD0303",
"j c #D2ACAC",
"o c #FC9191",
/* pixels */
"  .XoO+   ",
" @#$$%&*= ",
"-;$$:>,<1 ",
"2$$$:34567",
"$$$$890q6w",
"e:$$rt666y",
"uip>t6666a",
"sdfgh6666j",
"klz6x666c ",
" vb6666nm "
};
