/* XPM */
static char *back[] = {
/* columns rows colors chars-per-pixel */
"24 24 173 2",
"   c #075195",
".  c #0A5396",
"X  c #0B5397",
"o  c #0E5598",
"O  c #10589A",
"+  c #12599B",
"@  c #165B9B",
"#  c #13599C",
"$  c #155B9C",
"%  c #165B9C",
"&  c #155C9D",
"*  c #175C9C",
"=  c #165C9D",
"-  c #175D9D",
";  c #155C9E",
":  c #185C9C",
">  c #185C9D",
",  c #185D9D",
"<  c #195D9D",
"1  c #1A5E9D",
"2  c #1A5E9E",
"3  c #1A5F9E",
"4  c #1B5F9E",
"5  c #185EA0",
"6  c #1C60A0",
"7  c #1D60A0",
"8  c #1D61A0",
"9  c #1E61A0",
"0  c #1F62A1",
"q  c #1E62A3",
"w  c #2163A0",
"e  c #2263A1",
"r  c #2364A1",
"t  c #2265A3",
"y  c #2465A2",
"u  c #2B67A7",
"i  c #2C67A7",
"p  c #2B68A8",
"a  c #2C68A8",
"s  c #2D69AB",
"d  c #2D6AAB",
"f  c #2E6AAC",
"g  c #2F6BAE",
"h  c #2F6CAF",
"j  c #356EAB",
"k  c #3770AC",
"l  c #3A72AD",
"z  c #3D74AE",
"x  c #3E75AF",
"c  c #306EB3",
"v  c #316FB4",
"b  c #3371B7",
"n  c #3472B6",
"m  c #3472B9",
"M  c #3473B9",
"N  c #3575BC",
"B  c #3675BC",
"V  c #3777BD",
"C  c #3676BE",
"Z  c #3777BE",
"A  c #3777BF",
"S  c #3876BB",
"D  c #4076B0",
"F  c #4177B1",
"G  c #4378B1",
"H  c #4279B3",
"J  c #467AB2",
"K  c #447AB6",
"L  c #467CB5",
"P  c #457CB6",
"I  c #497DB4",
"U  c #4A7DB5",
"Y  c #4C7EB5",
"T  c #4C7FB5",
"R  c #417BB9",
"E  c #457DB8",
"W  c #467CB9",
"Q  c #467EBD",
"!  c #3878C0",
"~  c #3879C1",
"^  c #397AC3",
"/  c #397BC3",
"(  c #397BC4",
")  c #3B7CC5",
"_  c #3B7DC6",
"`  c #3C7EC8",
"'  c #3D7EC9",
"]  c #4C81B4",
"[  c #4E80B6",
"{  c #4780BA",
"}  c #4E81B8",
"|  c #4E81B9",
" . c #5082B7",
".. c #5283B8",
"X. c #5384B8",
"o. c #5686B9",
"O. c #5385BC",
"+. c #5385BD",
"@. c #5888BA",
"#. c #5B8ABC",
"$. c #5F8DBF",
"%. c #5F8EBF",
"&. c #6492BF",
"*. c #3E80CB",
"=. c #4C85C1",
"-. c #4E87C4",
";. c #4181CC",
":. c #4082CD",
">. c #4183CE",
",. c #4284CF",
"<. c #588AC2",
"1. c #598BC2",
"2. c #5F8FC0",
"3. c #5E8FC3",
"4. c #528BC9",
"5. c #5E8FC8",
"6. c #5E90C8",
"7. c #4687D3",
"8. c #498AD5",
"9. c #4A8AD5",
"0. c #5E95D3",
"q. c #5090DA",
"w. c #5593DD",
"e. c #6090C2",
"r. c #6491C2",
"t. c #6895C7",
"y. c #6A96C6",
"u. c #6594C9",
"i. c #6394CD",
"p. c #6495CC",
"a. c #6595CC",
"s. c #6495CD",
"d. c #6496CE",
"f. c #6797CE",
"g. c #6C99CB",
"h. c #6E9BCA",
"j. c #6798D0",
"k. c #689AD1",
"l. c #6B9AD0",
"z. c #699BD2",
"x. c #699BD3",
"c. c #6C9CD2",
"v. c #6D9ED4",
"b. c #6E9FD6",
"n. c #6F9FD7",
"m. c #679DD8",
"M. c #6FA0D8",
"N. c #76A2D1",
"B. c #77A4D3",
"V. c #71A0D6",
"C. c #7CA8D7",
"Z. c #73A2D8",
"A. c #74A3DA",
"S. c #75A4DB",
"D. c #70A5DE",
"F. c #75A5DC",
"G. c #79A7DC",
"H. c #7BA9DE",
"J. c #5B98E1",
"K. c #619DE5",
"L. c #6BA5EA",
"P. c #7DABE1",
"I. c #7FACE1",
"U. c #8AB3DF",
"Y. c #83B0E3",
"T. c #87B3E6",
"R. c #8FB7E1",
"E. c #8AB5E8",
"W. c #96BCE4",
"Q. c #92BBEC",
"!. c #95BEEE",
"~. c #9FC5F2",
"^. c None",
/* pixels */
"^.^.^.^.^.^.^.^.^.^.^.^.^.^.^.^.^.^.^.^.^.^.^.^.",
"^.^.^.^.^.^.^.^.^.^.^.^.^.^.^.^.^.^.^.^.^.^.^.^.",
"^.^.^.^.^.^.^.^.^.. ^.^.^.^.^.^.^.^.^.^.^.^.^.^.",
"^.^.^.^.^.^.^.^.2 &.^.^.^.^.^.^.^.^.^.^.^.^.^.^.",
"^.^.^.^.^.^.^.0 y.%.^.^.^.^.^.^.^.^.^.^.^.^.^.^.",
"^.^.^.^.^.^.7 h.u.2.^.^.^.^.^.^.^.^.^.^.^.^.^.^.",
"^.^.^.^.^.9 N.l.a.e.^.^.^.^.^.^.^.^.^.^.^.^.^.^.",
"^.^.^.^.t B.V.c.f.3., 6 4 2 1 < < , > : * * : X ",
"^.^.^.- C.G.Z.v.j.p.g.t.r.$.#.@.o.X. .[ Y I ..y ",
"^.^., U.Y.H.A.b.k.i.5.<.O.} I J G D z l k j x e ",
"^.8 R.Q.T.P.S.n.z.s.6.1.+.| U J G D z l k j x e ",
"3 W.~.!.E.I.F.M.x.d.6.1.+.| U J G D z l k j x e ",
"& D.L.K.w.8.>.' ( Z M v h f a a a i a a u a k w ",
"^.q m.J.q.7.:.` ^ C m v h d a a a u a a u a k w ",
"^.^.5 0.9.,.*._ ~ N b c g s p a a u a a u a k w ",
"^.^.^.; 4.;.` / A S Q W K H F F F F F F F F T r ",
"^.^.^.^.; -.) ! B R # = % $ % % % @ % % % % % . ",
"^.^.^.^.^.+ =.V M E ^.^.^.^.^.^.^.^.^.^.^.^.^.^.",
"^.^.^.^.^.^.O { n P ^.^.^.^.^.^.^.^.^.^.^.^.^.^.",
"^.^.^.^.^.^.^.+ P L ^.^.^.^.^.^.^.^.^.^.^.^.^.^.",
"^.^.^.^.^.^.^.^.o ] ^.^.^.^.^.^.^.^.^.^.^.^.^.^.",
"^.^.^.^.^.^.^.^.^.  ^.^.^.^.^.^.^.^.^.^.^.^.^.^.",
"^.^.^.^.^.^.^.^.^.^.^.^.^.^.^.^.^.^.^.^.^.^.^.^.",
"^.^.^.^.^.^.^.^.^.^.^.^.^.^.^.^.^.^.^.^.^.^.^.^."
};
