/* XPM */
static char * nBullet_yellow_xpm[] = {
"16 16 66 1",
" 	c None",
".	c #FFFFFB",
"+	c #FFFFD3",
"@	c #FCFABC",
"#	c #F6F4C3",
"$	c #FAF9EC",
"%	c #FFFFD5",
"&	c #FFFF7B",
"*	c #FFFF6C",
"=	c #FFF967",
"-	c #EFE960",
";	c #CDC854",
">	c #CFCC92",
",	c #FDFCFB",
"'	c #FFFFD8",
")	c #FFFF71",
"!	c #FFFF6F",
"~	c #FBF867",
"{	c #E4DF5C",
"]	c #CFCA53",
"^	c #A4A041",
"/	c #AFAD7A",
"(	c #FFFF82",
"_	c #FFFF70",
":	c #FFFF73",
"<	c #FBF866",
"[	c #DED959",
"}	c #B9B44B",
"|	c #9E9A40",
"1	c #777430",
"2	c #DCDBCA",
"3	c #FFFF69",
"4	c #FFFF6D",
"5	c #FFFF72",
"6	c #F5F468",
"7	c #C8C351",
"8	c #A19E40",
"9	c #848035",
"0	c #AEAC84",
"a	c #F8F263",
"b	c #FBF566",
"c	c #FFFB6A",
"d	c #E8E766",
"e	c #868335",
"f	c #9E9C6C",
"g	c #DFD959",
"h	c #E2DD5A",
"i	c #E9E35D",
"j	c #E4DE5C",
"k	c #868435",
"l	c #AAA87D",
"m	c #C6C25E",
"n	c #C3BF4E",
"o	c #BDB84C",
"p	c #ADA844",
"q	c #8A8637",
"r	c #D2D1BB",
"s	c #E4E2BD",
"t	c #A8A444",
"u	c #8F8C3A",
"v	c #797530",
"w	c #999663",
"x	c #CFCDAB",
"y	c #7B7837",
"z	c #9C9A69",
"A	c #F7F6F2",
"                ",
"                ",
"                ",
"     .+@#$      ",
"    %&*=-;>,    ",
"   '))!~{]^/    ",
"   (_:_<[}|12   ",
"   34)5678910   ",
"   abc4de111f   ",
"   ghijk1111l   ",
"   mnopq1111r   ",
"   stu1v111w    ",
"    xy1111zA    ",
"                ",
"                ",
"                "};
