<?xml version="1.0" encoding="UTF-8" standalone="no"?>
<!-- Creator: CorelDRAW X6 -->

<svg
   xmlns:dc="http://purl.org/dc/elements/1.1/"
   xmlns:cc="http://creativecommons.org/ns#"
   xmlns:rdf="http://www.w3.org/1999/02/22-rdf-syntax-ns#"
   xmlns:svg="http://www.w3.org/2000/svg"
   xmlns="http://www.w3.org/2000/svg"
   xmlns:sodipodi="http://sodipodi.sourceforge.net/DTD/sodipodi-0.dtd"
   xmlns:inkscape="http://www.inkscape.org/namespaces/inkscape"
   xml:space="preserve"
   width="32"
   height="32"
   version="1.1"
   viewBox="0 0 846.66667 846.66667"
   id="svg13"
   sodipodi:docname="target.svg"
   inkscape:version="0.92.4 (unknown)"
   style="clip-rule:evenodd;fill-rule:evenodd;image-rendering:optimizeQuality;shape-rendering:geometricPrecision;text-rendering:geometricPrecision"><metadata
   id="metadata19"><rdf:RDF><cc:Work
       rdf:about=""><dc:format>image/svg+xml</dc:format><dc:type
         rdf:resource="http://purl.org/dc/dcmitype/StillImage" /><dc:title></dc:title></cc:Work></rdf:RDF></metadata><defs
   id="defs17" /><sodipodi:namedview
   pagecolor="#ffffff"
   bordercolor="#666666"
   borderopacity="1"
   objecttolerance="10"
   gridtolerance="10"
   guidetolerance="10"
   inkscape:pageopacity="0"
   inkscape:pageshadow="2"
   inkscape:window-width="1366"
   inkscape:window-height="716"
   id="namedview15"
   showgrid="false"
   inkscape:zoom="3.4689815"
   inkscape:cx="23.926332"
   inkscape:cy="34.015748"
   inkscape:window-x="0"
   inkscape:window-y="0"
   inkscape:window-maximized="1"
   inkscape:current-layer="layer1-2"
   units="px" />
 <g
   id="Layer_x0020_1"
   transform="matrix(0.47457627,0,0,0.47881356,0,-15.197753)">
  <metadata
   id="CorelCorpID_0Corel-Layer" />
  <rect
   width="1800"
   height="1800"
   id="rect3"
   mask="none"
   x="0"
   y="0"
   style="fill:none" />
  
 </g>
<g
   transform="matrix(105.08552,0,0,83.282928,-1327.4642,-24720.53)"
   id="layer1"
   inkscape:label="Calque 1"><path
     inkscape:connector-curvature="0"
     id="path10000"
     d="m 9.6478421,302.77592 v -1.27333 l 0.2126118,0.082 c 0.1169363,0.0451 0.6977051,0.33806 1.2905981,0.65097 l 1.077987,0.56893 -1.242002,0.62236 c -0.683101,0.34231 -1.2638704,0.62237 -1.2905983,0.62237 -0.026728,0 -0.048597,-0.573 -0.048597,-1.27333 z"
     style="opacity:0.03999999;fill:#0ef510;fill-opacity:0.93846154;stroke:#008000;stroke-width:0.09449405" /><g
     transform="matrix(0.9516059,0,0,1.2007263,15.245808,-66.22255)"
     id="layer1-2"
     inkscape:label="Calque 1"><rect
       ry="0.59974509"
       rx="0.19664605"
       y="302.72516"
       x="-0.58494616"
       height="7.7145147"
       width="0.7445997"
       id="rect815"
       style="opacity:1;fill:#ffff00;fill-opacity:0.93846154;stroke:#1a1a1a;stroke-width:0.29204971" /><path
       inkscape:connector-curvature="0"
       id="path821"
       d="m -0.58494611,302.72515 4.63020821,2.26786"
       style="opacity:1;fill:#4d4d4d;fill-opacity:0.93846154;stroke:#000000;stroke-width:0.26458332px;stroke-linecap:butt;stroke-linejoin:miter;stroke-opacity:1" /><path
       sodipodi:nodetypes="cc"
       inkscape:connector-curvature="0"
       id="path823"
       d="M 0.07651219,306.97738 4.0452621,304.99301"
       style="opacity:1;fill:#4d4d4d;fill-opacity:0.93846154;stroke:#000000;stroke-width:0.26458332px;stroke-linecap:butt;stroke-linejoin:miter;stroke-opacity:1" /><path
       inkscape:connector-curvature="0"
       id="path9916"
       d="m 0.3354192,305.02102 c 0,-0.88333 0.019521,-1.60605 0.0433814,-1.60605 0.0238601,0 0.7599793,0.35538 1.6358209,0.78972 l 1.5924392,0.78973 -1.6358208,0.81633 -1.63582065,0.81632 z"
       style="opacity:1;fill:#4d4d4d;fill-opacity:0.93846154;stroke:#1a1a1a;stroke-width:0.09449405" /><path
       inkscape:connector-curvature="0"
       id="path9918"
       d="m 0.42991328,304.97353 v -1.46525 l 1.44103402,0.71997 c 0.7925689,0.39598 1.4562098,0.73389 1.4747574,0.7509 0.033354,0.0306 -2.77392474,1.45963 -2.86736367,1.45963 -0.0266353,0 -0.0484277,-0.65936 -0.0484277,-1.46525 z"
       style="opacity:1;fill:#ff0000;fill-opacity:0.93846154;stroke:#1a1a1a;stroke-width:0.09449405" /></g></g></svg>