<?xml version="1.0" encoding="UTF-8" standalone="no"?>
<!-- Creator: CorelDRAW X6 -->

<svg
   xmlns:dc="http://purl.org/dc/elements/1.1/"
   xmlns:cc="http://creativecommons.org/ns#"
   xmlns:rdf="http://www.w3.org/1999/02/22-rdf-syntax-ns#"
   xmlns:svg="http://www.w3.org/2000/svg"
   xmlns="http://www.w3.org/2000/svg"
   xmlns:sodipodi="http://sodipodi.sourceforge.net/DTD/sodipodi-0.dtd"
   xmlns:inkscape="http://www.inkscape.org/namespaces/inkscape"
   xml:space="preserve"
   width="32"
   height="32"
   version="1.1"
   viewBox="0 0 846.66667 846.66667"
   id="svg13"
   sodipodi:docname="target.svg"
   inkscape:version="0.92.4 (unknown)"
   style="clip-rule:evenodd;fill-rule:evenodd;image-rendering:optimizeQuality;shape-rendering:geometricPrecision;text-rendering:geometricPrecision"><metadata
   id="metadata19"><rdf:RDF><cc:Work
       rdf:about=""><dc:format>image/svg+xml</dc:format><dc:type
         rdf:resource="http://purl.org/dc/dcmitype/StillImage" /><dc:title></dc:title></cc:Work></rdf:RDF></metadata><defs
   id="defs17" /><sodipodi:namedview
   pagecolor="#ffffff"
   bordercolor="#666666"
   borderopacity="1"
   objecttolerance="10"
   gridtolerance="10"
   guidetolerance="10"
   inkscape:pageopacity="0"
   inkscape:pageshadow="2"
   inkscape:window-width="1366"
   inkscape:window-height="716"
   id="namedview15"
   showgrid="false"
   inkscape:zoom="6.937963"
   inkscape:cx="39.993214"
   inkscape:cy="22.966124"
   inkscape:window-x="0"
   inkscape:window-y="0"
   inkscape:window-maximized="1"
   inkscape:current-layer="svg13"
   units="px" />
 <g
   id="layer1-6"
   transform="matrix(67.690347,0,0,66.998239,-470.44443,-19867.045)"
   style="stroke-width:1.49812508"><rect
     style="fill:#303030;fill-opacity:1;fill-rule:evenodd;stroke-width:0.63420624;stroke-miterlimit:4;stroke-dasharray:none"
     id="rect815"
     width="12.731279"
     height="12.637154"
     x="6.8956218"
     y="296.64554"
     ry="0" /></g><g
   id="Layer_x0020_1"
   transform="matrix(1.0271514,0,0,1,-19.274918,-949.51983)"
   mask="none">
  <metadata
   id="CorelCorpID_0Corel-Layer" />
  
  
 <g
   id="layer1"
   transform="matrix(67.348235,0,0,66.99821,-1531.8081,-20246.653)"
   style="stroke-width:1.48869359"><path
     sodipodi:nodetypes="ccccccc"
     inkscape:connector-curvature="0"
     style="fill:none;stroke:#cccccc;stroke-width:0.63021362;stroke-linecap:butt;stroke-linejoin:bevel;stroke-miterlimit:4;stroke-dasharray:none;stroke-opacity:0.92432425"
     d="m 32.377583,327.98987 -8.137172,-3.47943 8.734538,-0.95564 -6.49732,-4.16328 v 0 l 3.701982,-1.33792 2.25553,-0.81516"
     id="path817" /><ellipse
     style="opacity:1;fill:#000000;fill-opacity:1;fill-rule:nonzero;stroke:#cccccc;stroke-width:0.92551589;stroke-linejoin:bevel;stroke-miterlimit:4;stroke-dasharray:none;stroke-opacity:0.92432425"
     id="path861-6"
     cx="24.259659"
     cy="324.54324"
     rx="0.30002248"
     ry="0.17077501" /><path
     inkscape:connector-curvature="0"
     id="path856"
     d="m 32.858344,319.69266 0.03588,3.01756"
     style="fill:#ffff00;stroke:#ffff00;stroke-width:0.39388347px;stroke-linecap:butt;stroke-linejoin:miter;stroke-opacity:0.92432425" /><path
     inkscape:connector-curvature="0"
     id="path858"
     d="m 32.858344,319.69266 1.668221,0.75338"
     style="fill:#ffff00;stroke:#ffff00;stroke-width:0.39388347px;stroke-linecap:butt;stroke-linejoin:miter;stroke-opacity:0.92432425" /><path
     inkscape:connector-curvature="0"
     id="path860"
     d="m 33.019786,321.25325 1.506779,-0.80721"
     style="fill:#ffff00;stroke:#ffff00;stroke-width:0.39388347px;stroke-linecap:butt;stroke-linejoin:miter;stroke-opacity:0.92432425" /><path
     inkscape:connector-curvature="0"
     id="path856-6"
     d="m 24.091717,320.80733 0.03588,3.01756"
     style="fill:#ffff00;stroke:#ffff00;stroke-width:0.39388347px;stroke-linecap:butt;stroke-linejoin:miter;stroke-opacity:0.92432425" /><path
     inkscape:connector-curvature="0"
     id="path858-2"
     d="m 24.091717,320.80733 1.668221,0.75338"
     style="fill:#ffff00;stroke:#ffff00;stroke-width:0.39388347px;stroke-linecap:butt;stroke-linejoin:miter;stroke-opacity:0.92432425" /><path
     inkscape:connector-curvature="0"
     id="path860-9"
     d="m 24.253159,322.36792 1.506779,-0.80721"
     style="fill:#ffff00;stroke:#ffff00;stroke-width:0.39388347px;stroke-linecap:butt;stroke-linejoin:miter;stroke-opacity:0.92432425" /><path
     inkscape:connector-curvature="0"
     id="path892"
     d="m 33.081314,320.52213 c 0,-0.25208 0.02058,-0.45833 0.04574,-0.45833 0.02516,0 0.23996,0.0904 0.477342,0.2008 l 0.431603,0.20081 -0.477342,0.25752 -0.477342,0.25752 z"
     style="opacity:0.36300001;fill:#00ff00;fill-opacity:1;stroke:#ff0000;stroke-width:0.07950804" /><path
     transform="matrix(0.3928586,0,0,0.39491105,7.6415233,284.49778)"
     inkscape:connector-curvature="0"
     id="path894"
     d=""
     style="opacity:0.36300001;fill:#00ff00;fill-opacity:1;stroke:#ff0000;stroke-width:0.20185676" /><path
     transform="matrix(0.3928586,0,0,0.39491105,7.6415233,284.49778)"
     inkscape:connector-curvature="0"
     id="path896"
     d=""
     style="opacity:0.36300001;fill:#ff0000;fill-opacity:1;stroke:#ff0000;stroke-width:0.20185676" /><path
     inkscape:connector-curvature="0"
     id="path898"
     d="m 33.134583,320.51895 c 0,-0.24283 0.02013,-0.348 0.06659,-0.34789 0.03662,9e-5 0.209029,0.0676 0.383126,0.15007 l 0.316539,0.1499 -0.358324,0.19799 c -0.197079,0.10889 -0.369486,0.19799 -0.383126,0.19799 -0.01364,0 -0.0248,-0.15663 -0.0248,-0.34806 z"
     style="opacity:0.36300001;fill:#ff0000;fill-opacity:1;stroke:#ff0000;stroke-width:0.07950804" /><path
     inkscape:connector-curvature="0"
     id="path900"
     d="m 33.134583,320.51895 c 0,-0.41164 0.03055,-0.42413 0.473454,-0.19363 l 0.287012,0.14938 -0.348937,0.19615 c -0.191915,0.10789 -0.36302,0.19616 -0.380232,0.19616 -0.01721,0 -0.0313,-0.15663 -0.0313,-0.34806 z"
     style="opacity:0.36300001;fill:#ff0000;fill-opacity:1;stroke:#ff0000;stroke-width:0.07950804" /><path
     inkscape:connector-curvature="0"
     id="path902"
     d="m 33.134583,320.51895 c 0,-0.40994 0.01872,-0.41735 0.496463,-0.1966 l 0.310023,0.14325 -0.369663,0.2007 c -0.203315,0.11039 -0.384774,0.20071 -0.403243,0.20071 -0.01847,0 -0.03358,-0.15663 -0.03358,-0.34806 z"
     style="opacity:0.36300001;fill:#ff0000;fill-opacity:1;stroke:#ff0000;stroke-width:0.07950804" /><path
     inkscape:connector-curvature="0"
     id="path904"
     d="m 33.134583,320.51895 c 0,-0.326 0.0076,-0.34789 0.119855,-0.34553 0.06592,10e-4 0.248911,0.0697 0.406646,0.15179 l 0.286792,0.14926 -0.355211,0.19627 c -0.195366,0.10795 -0.378357,0.19627 -0.406647,0.19627 -0.02829,0 -0.05143,-0.15663 -0.05143,-0.34806 z"
     style="opacity:1;fill:#00ff00;fill-opacity:1;stroke:#06f911;stroke-width:0.07950804;stroke-opacity:0.99215686" /><path
     inkscape:connector-curvature="0"
     id="path970"
     d="m 24.336522,321.62234 c 0,-0.35074 0.01632,-0.45786 0.06659,-0.43701 0.463085,0.19212 0.834382,0.38369 0.800923,0.41323 -0.02301,0.0203 -0.227616,0.13852 -0.454675,0.26267 l -0.412834,0.22574 z"
     style="opacity:1;fill:#ff0000;fill-opacity:1;stroke:#f8030c;stroke-width:0.07950804;stroke-opacity:1" /><ellipse
     style="opacity:1;fill:#000000;fill-opacity:1;fill-rule:nonzero;stroke:#cccccc;stroke-width:0.92551589;stroke-linejoin:bevel;stroke-miterlimit:4;stroke-dasharray:none;stroke-opacity:0.92432425"
     id="path861-6-1"
     cx="33.037815"
     cy="323.57257"
     rx="0.30002248"
     ry="0.17077501" /><ellipse
     style="opacity:1;fill:#000000;fill-opacity:1;fill-rule:nonzero;stroke:#cccccc;stroke-width:0.92551589;stroke-linejoin:bevel;stroke-miterlimit:4;stroke-dasharray:none;stroke-opacity:0.92432425"
     id="path861-6-2"
     cx="32.335251"
     cy="327.9162"
     rx="0.30002248"
     ry="0.17077501" /><ellipse
     style="opacity:1;fill:#000000;fill-opacity:1;fill-rule:nonzero;stroke:#cccccc;stroke-width:0.92551589;stroke-linejoin:bevel;stroke-miterlimit:4;stroke-dasharray:none;stroke-opacity:0.92432425"
     id="path861-6-2-7"
     cx="26.419043"
     cy="319.31827"
     rx="0.30002248"
     ry="0.17077501" /><ellipse
     style="clip-rule:evenodd;opacity:1;fill:#000000;fill-opacity:1;fill-rule:nonzero;stroke:#cccccc;stroke-width:0.92551589;stroke-linejoin:bevel;stroke-miterlimit:4;stroke-dasharray:none;stroke-opacity:0.92432425;image-rendering:optimizeQuality;shape-rendering:geometricPrecision;text-rendering:geometricPrecision"
     id="path861-6-2-3"
     cx="32.314129"
     cy="317.33771"
     rx="0.30002248"
     ry="0.17077501" /></g><g
   inkscape:groupmode="layer"
   id="layer2"
   inkscape:label="Layer 1" /><rect
   style="opacity:0;fill:#000000;fill-opacity:1;stroke:#ffffff;stroke-width:0;stroke-miterlimit:4;stroke-dasharray:none;stroke-opacity:1"
   id="rect982"
   width="835.16943"
   height="842.79657"
   x="7.6271181"
   y="957.20343" /></g>
<rect
   style="opacity:0.49100001;fill:#000000;fill-opacity:1;stroke:#ffffff;stroke-width:0;stroke-miterlimit:4;stroke-dasharray:none;stroke-opacity:1"
   id="rect1192"
   width="865.73444"
   height="846.6665"
   x="-3.6773992"
   y="7.6837296" /></svg>