<?xml version="1.0" encoding="UTF-8" standalone="no"?>
<!-- Creator: CorelDRAW X6 -->

<svg
   xmlns:dc="http://purl.org/dc/elements/1.1/"
   xmlns:cc="http://creativecommons.org/ns#"
   xmlns:rdf="http://www.w3.org/1999/02/22-rdf-syntax-ns#"
   xmlns:svg="http://www.w3.org/2000/svg"
   xmlns="http://www.w3.org/2000/svg"
   xmlns:sodipodi="http://sodipodi.sourceforge.net/DTD/sodipodi-0.dtd"
   xmlns:inkscape="http://www.inkscape.org/namespaces/inkscape"
   xml:space="preserve"
   width="32"
   height="32"
   version="1.1"
   viewBox="0 0 846.66667 846.66667"
   id="svg13"
   sodipodi:docname="target.svg"
   inkscape:version="0.92.4 (unknown)"
   style="clip-rule:evenodd;fill-rule:evenodd;image-rendering:optimizeQuality;shape-rendering:geometricPrecision;text-rendering:geometricPrecision"><metadata
   id="metadata19"><rdf:RDF><cc:Work
       rdf:about=""><dc:format>image/svg+xml</dc:format><dc:type
         rdf:resource="http://purl.org/dc/dcmitype/StillImage" /><dc:title></dc:title></cc:Work></rdf:RDF></metadata><defs
   id="defs17" /><sodipodi:namedview
   pagecolor="#ffffff"
   bordercolor="#666666"
   borderopacity="1"
   objecttolerance="10"
   gridtolerance="10"
   guidetolerance="10"
   inkscape:pageopacity="0"
   inkscape:pageshadow="2"
   inkscape:window-width="1366"
   inkscape:window-height="716"
   id="namedview15"
   showgrid="false"
   inkscape:zoom="3.4689815"
   inkscape:cx="-22.340851"
   inkscape:cy="34.015748"
   inkscape:window-x="0"
   inkscape:window-y="0"
   inkscape:window-maximized="1"
   inkscape:current-layer="Layer_x0020_1"
   units="px" />
 <g
   id="Layer_x0020_1"
   transform="translate(0,-953.33336)">
  <metadata
   id="CorelCorpID_0Corel-Layer" />
  <rect
   width="1800"
   height="1800"
   id="rect3"
   x="0"
   y="0"
   style="fill:none" />
  
 <g
   id="_271487512"
   transform="translate(2288.1356,274.57627)">
   <path
   d="m -1861.017,798.30509 c 166,0 300,134 300,300.00001 0,166 -134,300 -300,300 -166,0 -300,-134 -300,-300 0,-166.00001 134,-300.00001 300,-300.00001 z"
   id="path5"
   style="fill:#00ff00;stroke:#00ff00"
   inkscape:connector-curvature="0" />
   <path
   d="m -1861.017,923.30509 c 97,0 175,78.00001 175,175.00001 0,97 -78,175 -175,175 -97,0 -175,-78 -175,-175 0,-97 78,-175.00001 175,-175.00001 z"
   id="path7"
   inkscape:connector-curvature="0"
   style="fill:#ffdb12" />
   <path
   d="m -1882.017,1077.3051 c 12,-12 31,-12 42,0 12,12 12,31 0,42 -11,12 -30,12 -42,0 -12,-11 -12,-30 0,-42 z"
   id="path9"
   inkscape:connector-curvature="0"
   style="fill:#000000" />
  </g></g>
</svg>